<svg xmlns="http://www.w3.org/2000/svg" xmlns:xlink="http://www.w3.org/1999/xlink" width="364" zoomAndPan="magnify" viewBox="0 0 273 91.5" height="122" preserveAspectRatio="xMidYMid meet" version="1.0"><defs><g/><clipPath id="bf70d36e10"><path d="M 49.613281 0 L 91.386719 0 L 91.386719 41.773438 L 49.613281 41.773438 Z M 49.613281 0 " clip-rule="nonzero"/></clipPath><clipPath id="92092ec734"><path d="M 49.613281 2.460938 L 86.484375 2.460938 L 86.484375 41.773438 L 49.613281 41.773438 Z M 49.613281 2.460938 " clip-rule="nonzero"/></clipPath><clipPath id="a67411210c"><path d="M 61.234375 0 L 89.734375 8.820312 L 57.242188 113.808594 L 28.742188 104.984375 Z M 61.234375 0 " clip-rule="nonzero"/></clipPath><clipPath id="01a7e67e5c"><path d="M 52.753906 96.417969 L 50.882812 102.460938 L 44.714844 103.871094 L 40.421875 99.226562 L 42.292969 93.179688 L 48.457031 91.777344 Z M 78.855469 15.855469 C 77.828125 19.234375 74.160156 21.066406 70.652344 19.984375 C 67.183594 18.910156 65.203125 15.304688 66.242188 11.953125 L 69.171875 2.480469 C 63.765625 3.347656 59.027344 7.128906 57.296875 12.726562 C 55.71875 17.828125 57.058594 23.101562 60.304688 26.886719 L 41.734375 86.878906 C 38.660156 88.234375 36.160156 90.820312 35.09375 94.265625 C 33.132812 100.601562 36.671875 107.34375 43.027344 109.308594 C 49.367188 111.273438 56.09375 107.707031 58.054688 101.375 C 59.121094 97.925781 58.496094 94.375 56.769531 91.53125 L 75.34375 31.519531 C 80.152344 30.246094 84.214844 26.648438 85.792969 21.546875 C 87.527344 15.949219 85.777344 10.160156 81.816406 6.371094 Z M 78.855469 15.855469 " clip-rule="nonzero"/></clipPath><clipPath id="cb6241b8b6"><path d="M 61.234375 0 L 89.734375 8.820312 L 57.242188 113.808594 L 28.742188 104.984375 Z M 61.234375 0 " clip-rule="nonzero"/></clipPath><clipPath id="b6d7386c83"><path d="M 52.753906 96.417969 L 50.882812 102.460938 L 44.714844 103.871094 L 40.421875 99.226562 L 42.292969 93.179688 L 48.457031 91.777344 Z M 78.855469 15.855469 C 77.828125 19.234375 74.160156 21.066406 70.652344 19.984375 C 67.183594 18.910156 65.203125 15.304688 66.242188 11.953125 L 69.171875 2.480469 C 63.765625 3.347656 59.027344 7.128906 57.296875 12.726562 C 55.71875 17.828125 57.058594 23.101562 60.304688 26.886719 L 41.734375 86.878906 C 38.660156 88.234375 36.160156 90.820312 35.09375 94.265625 C 33.132812 100.601562 36.671875 107.34375 43.027344 109.308594 C 49.367188 111.273438 56.09375 107.707031 58.054688 101.375 C 59.121094 97.925781 58.496094 94.375 56.769531 91.53125 L 75.34375 31.519531 C 80.152344 30.246094 84.214844 26.648438 85.792969 21.546875 C 87.527344 15.949219 85.777344 10.160156 81.816406 6.371094 Z M 78.855469 15.855469 " clip-rule="nonzero"/></clipPath><clipPath id="94c520dd77"><path d="M 0.742188 0 L 42.511719 0 L 42.511719 41.773438 L 0.742188 41.773438 Z M 0.742188 0 " clip-rule="nonzero"/></clipPath><clipPath id="9f657ca582"><path d="M 9.9375 2.753906 L 42.511719 2.753906 L 42.511719 41.773438 L 9.9375 41.773438 Z M 9.9375 2.753906 " clip-rule="nonzero"/></clipPath><clipPath id="837480caa8"><path d="M 6.972656 7.851562 L 15.4375 0 L 49.273438 36.46875 L 40.808594 44.324219 Z M 6.972656 7.851562 " clip-rule="nonzero"/></clipPath><clipPath id="dc4ac8c92b"><path d="M 47.878906 35.554688 L 31.992188 18.429688 C 31.519531 17.921875 30.796875 17.796875 30.191406 18.054688 L 28.945312 16.710938 C 29.488281 16.089844 29.496094 15.152344 28.925781 14.539062 C 28.3125 13.882812 27.289062 13.84375 26.628906 14.453125 L 24.617188 16.320312 L 17.207031 8.335938 L 17.417969 8.140625 L 16.019531 5.507812 L 12.445312 2.777344 L 10.171875 4.882812 L 9.964844 5.078125 L 12.421875 8.847656 L 14.941406 10.441406 L 15.148438 10.25 L 15.152344 10.242188 L 22.5625 18.230469 L 20.546875 20.097656 C 19.890625 20.707031 19.847656 21.734375 20.460938 22.390625 C 21.03125 23.007812 21.96875 23.074219 22.621094 22.574219 L 23.871094 23.921875 C 23.566406 24.503906 23.640625 25.234375 24.109375 25.742188 L 39.996094 42.863281 C 40.59375 43.511719 41.601562 43.546875 42.246094 42.949219 L 47.792969 37.800781 C 48.4375 37.207031 48.476562 36.199219 47.878906 35.554688 " clip-rule="nonzero"/></clipPath><clipPath id="21914c78d2"><path d="M 6.972656 7.851562 L 15.4375 0 L 49.273438 36.46875 L 40.808594 44.324219 Z M 6.972656 7.851562 " clip-rule="nonzero"/></clipPath><clipPath id="318e88fba1"><path d="M 47.878906 35.554688 L 31.992188 18.429688 C 31.519531 17.921875 30.796875 17.796875 30.191406 18.054688 L 28.945312 16.710938 C 29.488281 16.089844 29.496094 15.152344 28.925781 14.539062 C 28.3125 13.882812 27.289062 13.84375 26.628906 14.453125 L 24.617188 16.320312 L 17.207031 8.335938 L 17.417969 8.140625 L 16.019531 5.507812 L 12.445312 2.777344 L 10.171875 4.882812 L 9.964844 5.078125 L 12.421875 8.847656 L 14.941406 10.441406 L 15.148438 10.25 L 15.152344 10.242188 L 22.5625 18.230469 L 20.546875 20.097656 C 19.890625 20.707031 19.847656 21.734375 20.460938 22.390625 C 21.03125 23.007812 21.96875 23.074219 22.621094 22.574219 L 23.871094 23.921875 C 23.566406 24.503906 23.640625 25.234375 24.109375 25.742188 L 39.996094 42.863281 C 40.59375 43.511719 41.601562 43.546875 42.246094 42.949219 L 47.792969 37.800781 C 48.4375 37.207031 48.476562 36.199219 47.878906 35.554688 " clip-rule="nonzero"/></clipPath><clipPath id="ed8e0b990b"><path d="M 9.804688 21.308594 L 32.824219 21.308594 L 32.824219 41.773438 L 9.804688 41.773438 Z M 9.804688 21.308594 " clip-rule="nonzero"/></clipPath><clipPath id="3474a951ad"><path d="M 8.019531 24.355469 L 13.085938 19.652344 L 33.351562 41.492188 L 28.28125 46.195312 Z M 8.019531 24.355469 " clip-rule="nonzero"/></clipPath><clipPath id="09aa69301c"><path d="M 32.515625 40.945312 L 23 30.691406 C 22.71875 30.386719 22.285156 30.3125 21.925781 30.464844 L 21.179688 29.660156 C 21.503906 29.289062 21.507812 28.730469 21.164062 28.359375 C 20.800781 27.96875 20.183594 27.945312 19.792969 28.308594 L 18.585938 29.429688 L 14.148438 24.644531 L 14.273438 24.527344 L 13.4375 22.953125 L 11.296875 21.316406 L 9.933594 22.578125 L 9.8125 22.695312 L 11.285156 24.953125 L 12.792969 25.90625 L 12.914062 25.792969 L 12.917969 25.789062 L 17.355469 30.570312 L 16.148438 31.691406 C 15.753906 32.054688 15.730469 32.667969 16.097656 33.0625 C 16.4375 33.433594 17 33.472656 17.390625 33.171875 L 18.140625 33.980469 C 17.957031 34.328125 18 34.765625 18.28125 35.070312 L 27.796875 45.324219 C 28.152344 45.710938 28.757812 45.734375 29.144531 45.375 L 32.464844 42.292969 C 32.851562 41.933594 32.875 41.332031 32.515625 40.945312 " clip-rule="nonzero"/></clipPath><clipPath id="0ba847358b"><path d="M 8.019531 24.355469 L 13.085938 19.652344 L 33.351562 41.492188 L 28.28125 46.195312 Z M 8.019531 24.355469 " clip-rule="nonzero"/></clipPath><clipPath id="0d14a19c23"><path d="M 32.515625 40.945312 L 23 30.691406 C 22.71875 30.386719 22.285156 30.3125 21.925781 30.464844 L 21.179688 29.660156 C 21.503906 29.289062 21.507812 28.730469 21.164062 28.359375 C 20.800781 27.96875 20.183594 27.945312 19.792969 28.308594 L 18.585938 29.429688 L 14.148438 24.644531 L 14.273438 24.527344 L 13.4375 22.953125 L 11.296875 21.316406 L 9.933594 22.578125 L 9.8125 22.695312 L 11.285156 24.953125 L 12.792969 25.90625 L 12.914062 25.792969 L 12.917969 25.789062 L 17.355469 30.570312 L 16.148438 31.691406 C 15.753906 32.054688 15.730469 32.667969 16.097656 33.0625 C 16.4375 33.433594 17 33.472656 17.390625 33.171875 L 18.140625 33.980469 C 17.957031 34.328125 18 34.765625 18.28125 35.070312 L 27.796875 45.324219 C 28.152344 45.710938 28.757812 45.734375 29.144531 45.375 L 32.464844 42.292969 C 32.851562 41.933594 32.875 41.332031 32.515625 40.945312 " clip-rule="nonzero"/></clipPath><clipPath id="8e0660cc79"><path d="M 49.613281 48.871094 L 91.386719 48.871094 L 91.386719 90.644531 L 49.613281 90.644531 Z M 49.613281 48.871094 " clip-rule="nonzero"/></clipPath><clipPath id="a1714ba3b1"><path d="M 49.613281 48.871094 L 77 48.871094 L 77 82.625 L 49.613281 82.625 Z M 49.613281 48.871094 " clip-rule="nonzero"/></clipPath><clipPath id="73def3bade"><path d="M 108.566406 21.773438 L 115.082031 109.585938 L 27.269531 116.101562 L 20.753906 28.285156 Z M 108.566406 21.773438 " clip-rule="nonzero"/></clipPath><clipPath id="3d14bb9746"><path d="M 108.566406 21.773438 L 115.082031 109.585938 L 27.269531 116.101562 L 20.753906 28.285156 Z M 108.566406 21.773438 " clip-rule="nonzero"/></clipPath><clipPath id="64e413f849"><path d="M 71.113281 68.253906 L 90.382812 68.253906 L 90.382812 90.644531 L 71.113281 90.644531 Z M 71.113281 68.253906 " clip-rule="nonzero"/></clipPath><clipPath id="dd3411db27"><path d="M 108.566406 21.773438 L 115.082031 109.585938 L 27.269531 116.101562 L 20.753906 28.285156 Z M 108.566406 21.773438 " clip-rule="nonzero"/></clipPath><clipPath id="0da85a00da"><path d="M 108.566406 21.773438 L 115.082031 109.585938 L 27.269531 116.101562 L 20.753906 28.285156 Z M 108.566406 21.773438 " clip-rule="nonzero"/></clipPath><clipPath id="f237834b77"><path d="M 0.742188 48.871094 L 42.511719 48.871094 L 42.511719 90.644531 L 0.742188 90.644531 Z M 0.742188 48.871094 " clip-rule="nonzero"/></clipPath><clipPath id="309a94a40d"><path d="M 2.078125 56.113281 L 39.507812 56.113281 L 39.507812 90.644531 L 2.078125 90.644531 Z M 2.078125 56.113281 " clip-rule="nonzero"/></clipPath><clipPath id="f11d4ad9d1"><path d="M 10.082031 50.570312 L 40.085938 61.957031 L 20.425781 113.753906 L -9.578125 102.367188 Z M 10.082031 50.570312 " clip-rule="nonzero"/></clipPath><clipPath id="cbe878bd47"><path d="M 39.335938 63.925781 C 39.792969 62.78125 38.636719 62.066406 37.464844 61.59375 C 36.292969 61.121094 34.230469 61.867188 32.023438 60.976562 C 29.816406 60.085938 30.203125 58.328125 27.347656 57.257812 C 24.492188 56.1875 21.859375 55.957031 17.597656 56.398438 C 13.335938 56.835938 5.765625 62.929688 5.765625 62.929688 C 4.246094 64.226562 5.167969 65.222656 6.585938 64.589844 C 7.46875 64.191406 11.925781 62.253906 11.925781 62.253906 C 16.164062 60.476562 17.367188 61.039062 18.742188 62.136719 C 20.160156 63.269531 19.90625 66.726562 19.90625 66.726562 C 19.90625 66.726562 20.03125 66.777344 20.257812 66.867188 L 15.863281 77.074219 C 15.527344 76.984375 15.035156 76.964844 14.714844 77.484375 C 14.195312 78.335938 11.722656 83.019531 10.691406 84.851562 C 9.65625 86.683594 7.507812 93.535156 7.507812 93.535156 L 6.785156 95.785156 C 6.058594 98.039062 3.929688 102.3125 2.699219 104.191406 C 1.472656 106.070312 2.410156 106.40625 3.347656 107.039062 C 4.289062 107.671875 6.347656 108.335938 8.019531 108.925781 C 9.691406 109.515625 10.886719 109.0625 11.105469 107.625 C 11.324219 106.1875 13.597656 100.066406 14.066406 98.894531 C 14.535156 97.726562 18.105469 90.304688 18.820312 88.519531 C 19.539062 86.726562 20.75 81.621094 21.101562 80.449219 C 21.273438 79.871094 20.933594 79.417969 20.542969 79.109375 L 24.515625 68.628906 C 24.535156 68.636719 24.554688 68.644531 24.578125 68.652344 C 24.582031 68.640625 24.589844 68.632812 24.597656 68.621094 C 24.632812 68.632812 24.664062 68.648438 24.695312 68.660156 C 25.988281 66.730469 27.320312 66.007812 28.488281 65.835938 C 29.769531 65.707031 30.832031 66.234375 31.398438 66.464844 C 32.488281 66.90625 32.851562 68.574219 33.671875 68.90625 C 34.488281 69.234375 33.671875 68.90625 35.238281 69.539062 C 35.613281 69.691406 35.917969 69.714844 36.171875 69.664062 C 37.132812 69.640625 37.464844 68.582031 37.464844 68.582031 C 37.464844 68.582031 38.871094 65.074219 39.332031 63.929688 " clip-rule="nonzero"/></clipPath><clipPath id="19f5305460"><path d="M 10.082031 50.570312 L 40.085938 61.957031 L 20.425781 113.753906 L -9.578125 102.367188 Z M 10.082031 50.570312 " clip-rule="nonzero"/></clipPath><clipPath id="9a1f2ce87b"><path d="M 39.335938 63.925781 C 39.792969 62.78125 38.636719 62.066406 37.464844 61.59375 C 36.292969 61.121094 34.230469 61.867188 32.023438 60.976562 C 29.816406 60.085938 30.203125 58.328125 27.347656 57.257812 C 24.492188 56.1875 21.859375 55.957031 17.597656 56.398438 C 13.335938 56.835938 5.765625 62.929688 5.765625 62.929688 C 4.246094 64.226562 5.167969 65.222656 6.585938 64.589844 C 7.46875 64.191406 11.925781 62.253906 11.925781 62.253906 C 16.164062 60.476562 17.367188 61.039062 18.742188 62.136719 C 20.160156 63.269531 19.90625 66.726562 19.90625 66.726562 C 19.90625 66.726562 20.03125 66.777344 20.257812 66.867188 L 15.863281 77.074219 C 15.527344 76.984375 15.035156 76.964844 14.714844 77.484375 C 14.195312 78.335938 11.722656 83.019531 10.691406 84.851562 C 9.65625 86.683594 7.507812 93.535156 7.507812 93.535156 L 6.785156 95.785156 C 6.058594 98.039062 3.929688 102.3125 2.699219 104.191406 C 1.472656 106.070312 2.410156 106.40625 3.347656 107.039062 C 4.289062 107.671875 6.347656 108.335938 8.019531 108.925781 C 9.691406 109.515625 10.886719 109.0625 11.105469 107.625 C 11.324219 106.1875 13.597656 100.066406 14.066406 98.894531 C 14.535156 97.726562 18.105469 90.304688 18.820312 88.519531 C 19.539062 86.726562 20.75 81.621094 21.101562 80.449219 C 21.273438 79.871094 20.933594 79.417969 20.542969 79.109375 L 24.515625 68.628906 C 24.535156 68.636719 24.554688 68.644531 24.578125 68.652344 C 24.582031 68.640625 24.589844 68.632812 24.597656 68.621094 C 24.632812 68.632812 24.664062 68.648438 24.695312 68.660156 C 25.988281 66.730469 27.320312 66.007812 28.488281 65.835938 C 29.769531 65.707031 30.832031 66.234375 31.398438 66.464844 C 32.488281 66.90625 32.851562 68.574219 33.671875 68.90625 C 34.488281 69.234375 33.671875 68.90625 35.238281 69.539062 C 35.613281 69.691406 35.917969 69.714844 36.171875 69.664062 C 37.132812 69.640625 37.464844 68.582031 37.464844 68.582031 C 37.464844 68.582031 38.871094 65.074219 39.332031 63.929688 " clip-rule="nonzero"/></clipPath></defs><g fill="#f5af23" fill-opacity="1"><g transform="translate(99.474664, 48.833163)"><g><path d="M 5.765625 0.671875 C 4.785156 0.671875 3.75 0.570312 2.65625 0.375 C 1.570312 0.1875 0.757812 -0.0546875 0.21875 -0.359375 L 0.21875 -7.34375 C 0.664062 -7.132812 1.238281 -6.96875 1.9375 -6.84375 C 2.644531 -6.726562 3.359375 -6.671875 4.078125 -6.671875 C 5.390625 -6.671875 6.3125 -6.945312 6.84375 -7.5 C 7.382812 -8.050781 7.65625 -8.96875 7.65625 -10.25 L 7.65625 -31.28125 L 15.578125 -31.28125 L 15.578125 -9.359375 C 15.578125 -6.285156 14.738281 -3.84375 13.0625 -2.03125 C 11.394531 -0.226562 8.960938 0.671875 5.765625 0.671875 Z M 5.765625 0.671875 "/></g></g></g><g fill="#f5af23" fill-opacity="1"><g transform="translate(116.835275, 48.833163)"><g><path d="M 17.9375 0.671875 C 14.78125 0.671875 11.925781 -0.015625 9.375 -1.390625 C 6.820312 -2.765625 4.804688 -4.679688 3.328125 -7.140625 C 1.859375 -9.597656 1.125 -12.425781 1.125 -15.625 C 1.125 -18.8125 1.859375 -21.640625 3.328125 -24.109375 C 4.804688 -26.585938 6.820312 -28.515625 9.375 -29.890625 C 11.925781 -31.265625 14.78125 -31.953125 17.9375 -31.953125 C 21.070312 -31.953125 23.914062 -31.265625 26.46875 -29.890625 C 29.019531 -28.515625 31.023438 -26.585938 32.484375 -24.109375 C 33.953125 -21.640625 34.6875 -18.8125 34.6875 -15.625 C 34.6875 -12.425781 33.953125 -9.597656 32.484375 -7.140625 C 31.023438 -4.679688 29.019531 -2.765625 26.46875 -1.390625 C 23.914062 -0.015625 21.070312 0.671875 17.9375 0.671875 Z M 17.9375 -6.75 C 19.519531 -6.75 20.96875 -7.109375 22.28125 -7.828125 C 23.59375 -8.546875 24.632812 -9.578125 25.40625 -10.921875 C 26.1875 -12.265625 26.578125 -13.832031 26.578125 -15.625 C 26.578125 -17.40625 26.195312 -18.957031 25.4375 -20.28125 C 24.675781 -21.613281 23.640625 -22.644531 22.328125 -23.375 C 21.015625 -24.113281 19.550781 -24.484375 17.9375 -24.484375 C 16.300781 -24.484375 14.828125 -24.113281 13.515625 -23.375 C 12.203125 -22.644531 11.164062 -21.613281 10.40625 -20.28125 C 9.644531 -18.957031 9.265625 -17.40625 9.265625 -15.625 C 9.265625 -13.832031 9.644531 -12.265625 10.40625 -10.921875 C 11.164062 -9.578125 12.207031 -8.546875 13.53125 -7.828125 C 14.863281 -7.109375 16.332031 -6.75 17.9375 -6.75 Z M 17.9375 -6.75 "/></g></g></g><g fill="#f5af23" fill-opacity="1"><g transform="translate(152.630345, 48.833163)"><g><path d="M 2.015625 -31.28125 L 17.859375 -31.28125 C 20.867188 -31.28125 23.242188 -30.535156 24.984375 -29.046875 C 26.734375 -27.554688 27.609375 -25.421875 27.609375 -22.640625 C 27.609375 -21.328125 27.3125 -20.101562 26.71875 -18.96875 C 26.125 -17.84375 25.273438 -16.945312 24.171875 -16.28125 C 25.691406 -15.6875 26.804688 -14.828125 27.515625 -13.703125 C 28.234375 -12.585938 28.59375 -11.140625 28.59375 -9.359375 C 28.59375 -7.441406 28.144531 -5.773438 27.25 -4.359375 C 26.351562 -2.941406 25.148438 -1.859375 23.640625 -1.109375 C 22.140625 -0.367188 20.460938 0 18.609375 0 L 2.015625 0 Z M 16.109375 -18.890625 C 18.429688 -18.890625 19.59375 -19.976562 19.59375 -22.15625 C 19.59375 -23.375 19.296875 -24.210938 18.703125 -24.671875 C 18.109375 -25.140625 17.195312 -25.375 15.96875 -25.375 L 9.9375 -25.375 L 9.9375 -18.890625 Z M 16.609375 -5.90625 C 17.941406 -5.90625 18.9375 -6.15625 19.59375 -6.65625 C 20.25 -7.164062 20.578125 -8.066406 20.578125 -9.359375 C 20.578125 -10.640625 20.234375 -11.566406 19.546875 -12.140625 C 18.867188 -12.722656 17.828125 -13.015625 16.421875 -13.015625 L 9.9375 -13.015625 L 9.9375 -5.90625 Z M 16.609375 -5.90625 "/></g></g></g><g fill="#179d2e" fill-opacity="1"><g transform="translate(182.342145, 48.833163)"><g><path d="M 5.765625 0.671875 C 4.785156 0.671875 3.75 0.570312 2.65625 0.375 C 1.570312 0.1875 0.757812 -0.0546875 0.21875 -0.359375 L 0.21875 -7.34375 C 0.664062 -7.132812 1.238281 -6.96875 1.9375 -6.84375 C 2.644531 -6.726562 3.359375 -6.671875 4.078125 -6.671875 C 5.390625 -6.671875 6.3125 -6.945312 6.84375 -7.5 C 7.382812 -8.050781 7.65625 -8.96875 7.65625 -10.25 L 7.65625 -31.28125 L 15.578125 -31.28125 L 15.578125 -9.359375 C 15.578125 -6.285156 14.738281 -3.84375 13.0625 -2.03125 C 11.394531 -0.226562 8.960938 0.671875 5.765625 0.671875 Z M 5.765625 0.671875 "/></g></g></g><g fill="#179d2e" fill-opacity="1"><g transform="translate(199.702757, 48.833163)"><g><path d="M 13.65625 -31.28125 L 21.4375 -31.28125 L 33.921875 0 L 25.828125 0 L 23.3125 -6.4375 L 11.765625 -6.4375 L 9.265625 0 L 1.125 0 Z M 21.34375 -12.53125 L 17.546875 -23.046875 L 13.6875 -12.53125 Z M 21.34375 -12.53125 "/></g></g></g><g fill="#179d2e" fill-opacity="1"><g transform="translate(234.737175, 48.833163)"><g><path d="M 2.015625 -31.28125 L 17.859375 -31.28125 C 20.867188 -31.28125 23.242188 -30.535156 24.984375 -29.046875 C 26.734375 -27.554688 27.609375 -25.421875 27.609375 -22.640625 C 27.609375 -21.328125 27.3125 -20.101562 26.71875 -18.96875 C 26.125 -17.84375 25.273438 -16.945312 24.171875 -16.28125 C 25.691406 -15.6875 26.804688 -14.828125 27.515625 -13.703125 C 28.234375 -12.585938 28.59375 -11.140625 28.59375 -9.359375 C 28.59375 -7.441406 28.144531 -5.773438 27.25 -4.359375 C 26.351562 -2.941406 25.148438 -1.859375 23.640625 -1.109375 C 22.140625 -0.367188 20.460938 0 18.609375 0 L 2.015625 0 Z M 16.109375 -18.890625 C 18.429688 -18.890625 19.59375 -19.976562 19.59375 -22.15625 C 19.59375 -23.375 19.296875 -24.210938 18.703125 -24.671875 C 18.109375 -25.140625 17.195312 -25.375 15.96875 -25.375 L 9.9375 -25.375 L 9.9375 -18.890625 Z M 16.609375 -5.90625 C 17.941406 -5.90625 18.9375 -6.15625 19.59375 -6.65625 C 20.25 -7.164062 20.578125 -8.066406 20.578125 -9.359375 C 20.578125 -10.640625 20.234375 -11.566406 19.546875 -12.140625 C 18.867188 -12.722656 17.828125 -13.015625 16.421875 -13.015625 L 9.9375 -13.015625 L 9.9375 -5.90625 Z M 16.609375 -5.90625 "/></g></g></g><g fill="#3871c1" fill-opacity="1"><g transform="translate(97.985263, 66.275333)"><g><path d="M 1.078125 -12.515625 L 9.546875 -12.515625 L 9.546875 -10.625 L 3.34375 -10.625 L 3.34375 -7.109375 L 7.953125 -7.109375 L 7.953125 -5.40625 L 3.34375 -5.40625 L 3.34375 0 L 1.078125 0 Z M 1.078125 -12.515625 "/></g></g></g><g fill="#3871c1" fill-opacity="1"><g transform="translate(107.885133, 66.275333)"><g><path d="M 1.078125 -12.515625 L 3.34375 -12.515625 L 3.34375 0 L 1.078125 0 Z M 1.078125 -12.515625 "/></g></g></g><g fill="#3871c1" fill-opacity="1"><g transform="translate(112.306954, 66.275333)"><g><path d="M 1.078125 -12.515625 L 9.546875 -12.515625 L 9.546875 -10.640625 L 3.34375 -10.640625 L 3.34375 -7.203125 L 7.953125 -7.203125 L 7.953125 -5.3125 L 3.34375 -5.3125 L 3.34375 -1.875 L 9.546875 -1.875 L 9.546875 0 L 1.078125 0 Z M 1.078125 -12.515625 "/></g></g></g><g fill="#3871c1" fill-opacity="1"><g transform="translate(122.38585, 66.275333)"><g><path d="M 1.078125 -12.515625 L 3.34375 -12.515625 L 3.34375 -1.875 L 9.359375 -1.875 L 9.359375 0 L 1.078125 0 Z M 1.078125 -12.515625 "/></g></g></g><g fill="#3871c1" fill-opacity="1"><g transform="translate(132.106705, 66.275333)"><g><path d="M 1.078125 -12.515625 L 5.265625 -12.515625 C 6.628906 -12.515625 7.8125 -12.265625 8.8125 -11.765625 C 9.8125 -11.265625 10.578125 -10.546875 11.109375 -9.609375 C 11.648438 -8.679688 11.921875 -7.585938 11.921875 -6.328125 C 11.921875 -4.242188 11.316406 -2.664062 10.109375 -1.59375 C 8.910156 -0.53125 7.226562 0 5.0625 0 L 1.078125 0 Z M 5.109375 -1.875 C 6.554688 -1.875 7.671875 -2.265625 8.453125 -3.046875 C 9.242188 -3.828125 9.640625 -4.921875 9.640625 -6.328125 C 9.640625 -7.171875 9.460938 -7.914062 9.109375 -8.5625 C 8.765625 -9.21875 8.269531 -9.726562 7.625 -10.09375 C 6.976562 -10.457031 6.21875 -10.640625 5.34375 -10.640625 L 3.34375 -10.640625 L 3.34375 -1.875 Z M 5.109375 -1.875 "/></g></g></g><g fill="#3871c1" fill-opacity="1"><g transform="translate(144.745605, 66.275333)"><g/></g></g><g fill="#3871c1" fill-opacity="1"><g transform="translate(151.190364, 66.275333)"><g><path d="M 4.6875 0.265625 C 3.945312 0.265625 3.21875 0.195312 2.5 0.0625 C 1.78125 -0.0703125 1.1875 -0.253906 0.71875 -0.484375 L 0.71875 -2.4375 C 1.3125 -2.144531 1.9375 -1.925781 2.59375 -1.78125 C 3.25 -1.644531 3.894531 -1.578125 4.53125 -1.578125 C 5.332031 -1.578125 5.941406 -1.722656 6.359375 -2.015625 C 6.773438 -2.316406 6.984375 -2.734375 6.984375 -3.265625 C 6.984375 -3.628906 6.882812 -3.929688 6.6875 -4.171875 C 6.5 -4.421875 6.21875 -4.640625 5.84375 -4.828125 C 5.476562 -5.015625 4.914062 -5.253906 4.15625 -5.546875 C 2.988281 -6.023438 2.140625 -6.554688 1.609375 -7.140625 C 1.085938 -7.722656 0.828125 -8.453125 0.828125 -9.328125 C 0.828125 -10.003906 1.007812 -10.601562 1.375 -11.125 C 1.75 -11.65625 2.269531 -12.0625 2.9375 -12.34375 C 3.601562 -12.632812 4.375 -12.78125 5.25 -12.78125 C 5.96875 -12.78125 6.601562 -12.722656 7.15625 -12.609375 C 7.707031 -12.492188 8.253906 -12.320312 8.796875 -12.09375 L 8.796875 -10.1875 C 7.753906 -10.6875 6.703125 -10.9375 5.640625 -10.9375 C 4.878906 -10.9375 4.285156 -10.796875 3.859375 -10.515625 C 3.441406 -10.234375 3.234375 -9.835938 3.234375 -9.328125 C 3.234375 -8.960938 3.328125 -8.660156 3.515625 -8.421875 C 3.710938 -8.191406 3.96875 -7.992188 4.28125 -7.828125 C 4.601562 -7.671875 5.175781 -7.421875 6 -7.078125 C 6.832031 -6.722656 7.488281 -6.378906 7.96875 -6.046875 C 8.457031 -5.710938 8.820312 -5.320312 9.0625 -4.875 C 9.3125 -4.425781 9.4375 -3.878906 9.4375 -3.234375 C 9.4375 -2.128906 9.035156 -1.269531 8.234375 -0.65625 C 7.429688 -0.0390625 6.25 0.265625 4.6875 0.265625 Z M 4.6875 0.265625 "/></g></g></g><g fill="#3871c1" fill-opacity="1"><g transform="translate(161.340864, 66.275333)"><g><path d="M 1.078125 -12.515625 L 9.546875 -12.515625 L 9.546875 -10.640625 L 3.34375 -10.640625 L 3.34375 -7.203125 L 7.953125 -7.203125 L 7.953125 -5.3125 L 3.34375 -5.3125 L 3.34375 -1.875 L 9.546875 -1.875 L 9.546875 0 L 1.078125 0 Z M 1.078125 -12.515625 "/></g></g></g><g fill="#3871c1" fill-opacity="1"><g transform="translate(171.419759, 66.275333)"><g><path d="M 1.078125 -12.515625 L 6.296875 -12.515625 C 7.679688 -12.515625 8.75 -12.171875 9.5 -11.484375 C 10.257812 -10.804688 10.640625 -9.828125 10.640625 -8.546875 C 10.640625 -7.617188 10.410156 -6.832031 9.953125 -6.1875 C 9.503906 -5.550781 8.859375 -5.09375 8.015625 -4.8125 L 10.5625 0 L 8.234375 0 L 5.8125 -4.578125 L 3.34375 -4.578125 L 3.34375 0 L 1.078125 0 Z M 5.890625 -6.46875 C 6.628906 -6.46875 7.222656 -6.640625 7.671875 -6.984375 C 8.128906 -7.328125 8.359375 -7.847656 8.359375 -8.546875 C 8.359375 -9.941406 7.535156 -10.640625 5.890625 -10.640625 L 3.34375 -10.640625 L 3.34375 -6.46875 Z M 5.890625 -6.46875 "/></g></g></g><g fill="#3871c1" fill-opacity="1"><g transform="translate(182.769706, 66.275333)"><g><path d="M 0.71875 -12.515625 L 3.140625 -12.515625 L 6.828125 -3.046875 L 10.53125 -12.515625 L 12.921875 -12.515625 L 7.9375 0 L 5.734375 0 Z M 0.71875 -12.515625 "/></g></g></g><g fill="#3871c1" fill-opacity="1"><g transform="translate(196.411124, 66.275333)"><g><path d="M 1.078125 -12.515625 L 3.34375 -12.515625 L 3.34375 0 L 1.078125 0 Z M 1.078125 -12.515625 "/></g></g></g><g fill="#3871c1" fill-opacity="1"><g transform="translate(200.832944, 66.275333)"><g><path d="M 7.40625 0.265625 C 6.09375 0.265625 4.929688 0 3.921875 -0.53125 C 2.910156 -1.0625 2.125 -1.816406 1.5625 -2.796875 C 1 -3.785156 0.71875 -4.9375 0.71875 -6.25 C 0.71875 -7.5625 1 -8.707031 1.5625 -9.6875 C 2.125 -10.675781 2.910156 -11.4375 3.921875 -11.96875 C 4.929688 -12.507812 6.09375 -12.78125 7.40625 -12.78125 C 9.144531 -12.78125 10.59375 -12.367188 11.75 -11.546875 L 11.75 -9.390625 C 10.707031 -10.265625 9.328125 -10.703125 7.609375 -10.703125 C 6.691406 -10.703125 5.882812 -10.519531 5.1875 -10.15625 C 4.5 -9.789062 3.960938 -9.273438 3.578125 -8.609375 C 3.203125 -7.941406 3.015625 -7.15625 3.015625 -6.25 C 3.015625 -5.34375 3.207031 -4.554688 3.59375 -3.890625 C 3.976562 -3.222656 4.515625 -2.707031 5.203125 -2.34375 C 5.898438 -1.976562 6.703125 -1.796875 7.609375 -1.796875 C 8.492188 -1.796875 9.28125 -1.90625 9.96875 -2.125 C 10.664062 -2.34375 11.304688 -2.695312 11.890625 -3.1875 L 11.890625 -1.015625 C 10.796875 -0.160156 9.300781 0.265625 7.40625 0.265625 Z M 7.40625 0.265625 "/></g></g></g><g fill="#3871c1" fill-opacity="1"><g transform="translate(213.436037, 66.275333)"><g><path d="M 1.078125 -12.515625 L 9.546875 -12.515625 L 9.546875 -10.640625 L 3.34375 -10.640625 L 3.34375 -7.203125 L 7.953125 -7.203125 L 7.953125 -5.3125 L 3.34375 -5.3125 L 3.34375 -1.875 L 9.546875 -1.875 L 9.546875 0 L 1.078125 0 Z M 1.078125 -12.515625 "/></g></g></g><g fill="#3871c1" fill-opacity="1"><g transform="translate(223.514933, 66.275333)"><g/></g></g><g fill="#3871c1" fill-opacity="1"><g transform="translate(229.959692, 66.275333)"><g><path d="M 5.734375 -12.515625 L 7.9375 -12.515625 L 12.921875 0 L 10.625 0 L 9.46875 -2.890625 L 4.171875 -2.890625 L 3.046875 0 L 0.71875 0 Z M 8.84375 -4.765625 L 6.828125 -10.078125 L 4.796875 -4.765625 Z M 8.84375 -4.765625 "/></g></g></g><g fill="#3871c1" fill-opacity="1"><g transform="translate(243.60111, 66.275333)"><g><path d="M 1.078125 -12.515625 L 6.09375 -12.515625 C 7.457031 -12.515625 8.554688 -12.148438 9.390625 -11.421875 C 10.222656 -10.691406 10.640625 -9.695312 10.640625 -8.4375 C 10.640625 -7.125 10.226562 -6.125 9.40625 -5.4375 C 8.582031 -4.75 7.46875 -4.40625 6.0625 -4.40625 L 3.34375 -4.40625 L 3.34375 0 L 1.078125 0 Z M 5.796875 -6.28125 C 7.503906 -6.28125 8.359375 -7 8.359375 -8.4375 C 8.359375 -9.90625 7.503906 -10.640625 5.796875 -10.640625 L 3.34375 -10.640625 L 3.34375 -6.28125 Z M 5.796875 -6.28125 "/></g></g></g><g fill="#3871c1" fill-opacity="1"><g transform="translate(254.593016, 66.275333)"><g><path d="M 1.078125 -12.515625 L 6.09375 -12.515625 C 7.457031 -12.515625 8.554688 -12.148438 9.390625 -11.421875 C 10.222656 -10.691406 10.640625 -9.695312 10.640625 -8.4375 C 10.640625 -7.125 10.226562 -6.125 9.40625 -5.4375 C 8.582031 -4.75 7.46875 -4.40625 6.0625 -4.40625 L 3.34375 -4.40625 L 3.34375 0 L 1.078125 0 Z M 5.796875 -6.28125 C 7.503906 -6.28125 8.359375 -7 8.359375 -8.4375 C 8.359375 -9.90625 7.503906 -10.640625 5.796875 -10.640625 L 3.34375 -10.640625 L 3.34375 -6.28125 Z M 5.796875 -6.28125 "/></g></g></g><g clip-path="url(#bf70d36e10)"><path fill="#ffffff" d="M 45.4375 -4.175781 L 95.5625 -4.175781 L 95.5625 45.949219 L 45.4375 45.949219 Z M 45.4375 -4.175781 " fill-opacity="1" fill-rule="nonzero"/><path fill="#ffffff" d="M 45.4375 -4.175781 L 95.5625 -4.175781 L 95.5625 45.949219 L 45.4375 45.949219 Z M 45.4375 -4.175781 " fill-opacity="1" fill-rule="nonzero"/><path fill="#0177b8" d="M 40.425781 -9.191406 L 100.574219 -9.191406 L 100.574219 50.960938 L 40.425781 50.960938 Z M 40.425781 -9.191406 " fill-opacity="1" fill-rule="nonzero"/></g><g clip-path="url(#92092ec734)"><g clip-path="url(#a67411210c)"><g clip-path="url(#01a7e67e5c)"><g clip-path="url(#cb6241b8b6)"><g clip-path="url(#b6d7386c83)"><path fill="#ffffff" d="M 61.234375 0 L 89.734375 8.820312 L 57.277344 113.695312 L 28.773438 104.875 Z M 61.234375 0 " fill-opacity="1" fill-rule="nonzero"/></g></g></g></g></g><g clip-path="url(#94c520dd77)"><path fill="#ffffff" d="M -3.433594 -4.175781 L 46.691406 -4.175781 L 46.691406 45.949219 L -3.433594 45.949219 Z M -3.433594 -4.175781 " fill-opacity="1" fill-rule="nonzero"/><path fill="#ffffff" d="M -3.433594 -4.175781 L 46.691406 -4.175781 L 46.691406 45.949219 L -3.433594 45.949219 Z M -3.433594 -4.175781 " fill-opacity="1" fill-rule="nonzero"/><path fill="#179d2e" d="M -8.449219 -9.191406 L 51.703125 -9.191406 L 51.703125 50.960938 L -8.449219 50.960938 Z M -8.449219 -9.191406 " fill-opacity="1" fill-rule="nonzero"/></g><g clip-path="url(#9f657ca582)"><g clip-path="url(#837480caa8)"><g clip-path="url(#dc4ac8c92b)"><g clip-path="url(#21914c78d2)"><g clip-path="url(#318e88fba1)"><path fill="#ffffff" d="M 6.972656 7.851562 L 15.4375 0 L 49.242188 36.4375 L 40.777344 44.289062 Z M 6.972656 7.851562 " fill-opacity="1" fill-rule="nonzero"/></g></g></g></g></g><g clip-path="url(#ed8e0b990b)"><g clip-path="url(#3474a951ad)"><g clip-path="url(#09aa69301c)"><g clip-path="url(#0ba847358b)"><g clip-path="url(#0d14a19c23)"><path fill="#ffffff" d="M 8.019531 24.355469 L 13.085938 19.652344 L 33.332031 41.472656 L 28.261719 46.175781 Z M 8.019531 24.355469 " fill-opacity="1" fill-rule="nonzero"/></g></g></g></g></g><g clip-path="url(#8e0660cc79)"><path fill="#ffffff" d="M 45.4375 44.695312 L 95.5625 44.695312 L 95.5625 94.820312 L 45.4375 94.820312 Z M 45.4375 44.695312 " fill-opacity="1" fill-rule="nonzero"/><path fill="#ffffff" d="M 45.4375 44.695312 L 95.5625 44.695312 L 95.5625 94.820312 L 45.4375 94.820312 Z M 45.4375 44.695312 " fill-opacity="1" fill-rule="nonzero"/><path fill="#f02e2c" d="M 40.425781 39.683594 L 100.574219 39.683594 L 100.574219 99.832031 L 40.425781 99.832031 Z M 40.425781 39.683594 " fill-opacity="1" fill-rule="nonzero"/></g><g clip-path="url(#a1714ba3b1)"><g clip-path="url(#73def3bade)"><g clip-path="url(#3d14bb9746)"><path fill="#ffffff" d="M 47.953125 48.480469 C 47.640625 48.039062 47.742188 47.429688 48.183594 47.113281 C 48.625 46.800781 49.238281 46.898438 49.554688 47.34375 C 49.867188 47.785156 49.765625 48.394531 49.320312 48.710938 C 48.882812 49.023438 48.269531 48.921875 47.953125 48.480469 Z M 70.128906 75.023438 C 70.117188 74.363281 70.386719 73.722656 70.871094 73.265625 L 76.578125 67.878906 C 76.707031 67.761719 76.84375 67.660156 76.996094 67.574219 L 48.890625 44.539062 L 45.230469 46.695312 L 44.679688 48.011719 L 45.835938 47.980469 L 45.429688 49.058594 L 46.582031 49.027344 L 46.175781 50.109375 L 47.332031 50.078125 L 46.925781 51.15625 L 48.078125 51.125 L 47.671875 52.207031 L 48.828125 52.175781 L 48.421875 53.253906 L 49.574219 53.222656 L 49.167969 54.304688 L 50.324219 54.269531 L 49.917969 55.351562 L 51.070312 55.320312 L 50.664062 56.398438 L 51.816406 56.367188 L 51.414062 57.449219 L 52.566406 57.417969 L 52.160156 58.496094 L 53.3125 58.464844 L 52.90625 59.546875 L 54.0625 59.511719 L 53.65625 60.59375 L 54.808594 60.5625 L 54.402344 61.644531 L 55.558594 61.609375 L 55.152344 62.691406 L 56.304688 62.660156 L 55.898438 63.742188 L 57.054688 63.707031 L 56.648438 64.789062 L 57.800781 64.757812 L 57.394531 65.835938 L 58.550781 65.804688 L 58.144531 66.886719 L 59.296875 66.855469 L 58.890625 67.933594 L 60.046875 67.902344 L 59.640625 68.984375 L 60.792969 68.949219 L 60.386719 70.03125 L 61.539062 70 L 61.132812 71.082031 L 62.289062 71.046875 L 61.882812 72.128906 L 63.035156 72.097656 L 62.628906 73.175781 L 63.785156 73.144531 L 63.378906 74.226562 L 64.53125 74.195312 L 64.125 75.273438 L 65.28125 75.242188 L 64.875 76.324219 L 66.027344 76.289062 L 65.621094 77.371094 L 66.777344 77.339844 L 66.371094 78.421875 L 67.523438 78.386719 L 67.117188 79.46875 L 68.273438 79.4375 L 67.863281 80.515625 L 69.019531 80.484375 L 68.613281 81.566406 L 69.765625 81.535156 L 69.359375 82.613281 L 70.25 82.589844 L 70.128906 75.023438 " fill-opacity="1" fill-rule="nonzero"/></g></g></g><g clip-path="url(#64e413f849)"><g clip-path="url(#dd3411db27)"><g clip-path="url(#0da85a00da)"><path fill="#ffffff" d="M 76.238281 86.503906 L 75.242188 85.722656 C 75.078125 85.589844 74.941406 85.433594 74.839844 85.253906 C 74.691406 84.996094 74.613281 84.699219 74.621094 84.394531 L 74.800781 78.515625 L 74.824219 77.753906 C 74.835938 77.375 75 77.019531 75.277344 76.761719 L 75.679688 76.394531 L 78.09375 74.175781 C 78.566406 73.742188 79.285156 73.734375 79.761719 74.160156 L 82.675781 76.75 C 82.78125 76.839844 82.863281 76.945312 82.929688 77.058594 C 83.152344 77.445312 83.15625 77.9375 82.910156 78.335938 L 78.046875 86.183594 C 77.660156 86.808594 76.816406 86.957031 76.238281 86.503906 Z M 72.242188 82.695312 C 72.027344 82.320312 72.15625 81.84375 72.53125 81.628906 C 72.90625 81.410156 73.386719 81.539062 73.601562 81.914062 C 73.816406 82.289062 73.6875 82.769531 73.3125 82.984375 C 72.9375 83.199219 72.457031 83.070312 72.242188 82.695312 Z M 72.539062 75.910156 C 72.324219 75.535156 72.453125 75.058594 72.828125 74.839844 C 73.203125 74.625 73.683594 74.753906 73.898438 75.128906 C 74.113281 75.503906 73.984375 75.984375 73.609375 76.199219 C 73.234375 76.414062 72.757812 76.289062 72.539062 75.910156 Z M 77.191406 71.425781 C 76.972656 71.050781 77.105469 70.574219 77.480469 70.355469 C 77.855469 70.140625 78.332031 70.269531 78.550781 70.644531 C 78.765625 71.019531 78.636719 71.5 78.261719 71.714844 C 77.886719 71.929688 77.40625 71.800781 77.191406 71.425781 Z M 82.445312 93.367188 C 82.570312 93.226562 82.644531 93.050781 82.660156 92.871094 C 82.679688 92.6875 82.644531 92.503906 82.554688 92.335938 L 82.203125 91.699219 C 82.003906 91.335938 82.027344 90.894531 82.261719 90.558594 C 83.253906 89.136719 85.949219 85.164062 87.84375 81.300781 C 88.109375 80.765625 88.539062 80.328125 89.074219 80.054688 L 89.886719 79.640625 C 90.019531 79.574219 90.132812 79.472656 90.214844 79.347656 C 90.40625 79.066406 90.417969 78.699219 90.25 78.410156 C 90.230469 78.375 90.207031 78.339844 90.183594 78.308594 L 89.476562 77.398438 C 89.277344 77.140625 89.042969 76.910156 88.777344 76.714844 C 87.378906 75.671875 82.53125 72.011719 78.765625 68.605469 C 78.527344 68.390625 78.214844 68.296875 77.914062 68.328125 C 77.683594 68.351562 77.457031 68.449219 77.277344 68.621094 L 71.570312 74.007812 C 71.292969 74.265625 71.140625 74.628906 71.144531 75.007812 L 71.300781 84.636719 C 71.300781 84.652344 71.300781 84.667969 71.300781 84.683594 C 71.3125 84.832031 71.355469 84.976562 71.429688 85.105469 C 71.484375 85.199219 71.554688 85.289062 71.640625 85.359375 L 81.167969 93.46875 C 81.546875 93.792969 82.121094 93.746094 82.445312 93.367188 " fill-opacity="1" fill-rule="nonzero"/></g></g></g><g clip-path="url(#f237834b77)"><path fill="#ffffff" d="M -3.433594 44.695312 L 46.691406 44.695312 L 46.691406 94.820312 L -3.433594 94.820312 Z M -3.433594 44.695312 " fill-opacity="1" fill-rule="nonzero"/><path fill="#ffffff" d="M -3.433594 44.695312 L 46.691406 44.695312 L 46.691406 94.820312 L -3.433594 94.820312 Z M -3.433594 44.695312 " fill-opacity="1" fill-rule="nonzero"/><path fill="#f5af23" d="M -8.449219 39.683594 L 51.703125 39.683594 L 51.703125 99.832031 L -8.449219 99.832031 Z M -8.449219 39.683594 " fill-opacity="1" fill-rule="nonzero"/></g><g clip-path="url(#309a94a40d)"><g clip-path="url(#f11d4ad9d1)"><g clip-path="url(#cbe878bd47)"><g clip-path="url(#19f5305460)"><g clip-path="url(#9a1f2ce87b)"><path fill="#ffffff" d="M 10.039062 50.6875 L 40.039062 62.074219 L 20.425781 113.753906 L -9.578125 102.367188 Z M 10.039062 50.6875 " fill-opacity="1" fill-rule="nonzero"/></g></g></g></g></g></svg>