<svg xmlns="http://www.w3.org/2000/svg" xmlns:xlink="http://www.w3.org/1999/xlink" width="540" zoomAndPan="magnify" viewBox="0 0 404.88 404.99999" height="540" preserveAspectRatio="xMidYMid meet" version="1.0"><defs><clipPath id="087a247686"><path d="M 217.433594 0.0585938 L 404.761719 0.0585938 L 404.761719 187.503906 L 217.433594 187.503906 Z M 217.433594 0.0585938 " clip-rule="nonzero"/></clipPath><clipPath id="9377a3ed80"><path d="M 217.433594 11.097656 L 382.886719 11.097656 L 382.886719 187.503906 L 217.433594 187.503906 Z M 217.433594 11.097656 " clip-rule="nonzero"/></clipPath><clipPath id="861b1d72a4"><path d="M 269.585938 0.0585938 L 397.476562 39.644531 L 251.664062 510.75 L 123.773438 471.167969 Z M 269.585938 0.0585938 " clip-rule="nonzero"/></clipPath><clipPath id="a4419ac62e"><path d="M 231.519531 432.71875 L 223.125 459.84375 L 195.445312 466.164062 L 176.1875 445.328125 L 184.582031 418.191406 L 212.238281 411.902344 Z M 348.648438 71.210938 C 344.050781 86.378906 327.578125 94.597656 311.847656 89.730469 C 296.285156 84.914062 287.394531 68.742188 292.050781 53.695312 L 305.207031 11.183594 C 280.9375 15.082031 259.683594 32.046875 251.90625 57.171875 C 244.824219 80.054688 250.84375 103.71875 265.40625 120.714844 L 182.085938 389.910156 C 168.277344 396.003906 157.070312 407.605469 152.285156 423.070312 C 143.488281 451.492188 159.367188 481.75 187.878906 490.574219 C 216.324219 499.375 246.519531 483.382812 255.316406 454.957031 C 260.105469 439.484375 257.300781 423.546875 249.546875 410.789062 L 332.890625 141.503906 C 354.46875 135.792969 372.703125 119.632812 379.785156 96.753906 C 387.574219 71.628906 379.710938 45.652344 361.9375 28.644531 Z M 348.648438 71.210938 " clip-rule="nonzero"/></clipPath><clipPath id="94d21e8065"><path d="M 269.585938 0.0585938 L 397.476562 39.644531 L 251.664062 510.75 L 123.773438 471.167969 Z M 269.585938 0.0585938 " clip-rule="nonzero"/></clipPath><clipPath id="ded79a84aa"><path d="M 231.519531 432.71875 L 223.125 459.84375 L 195.445312 466.164062 L 176.1875 445.328125 L 184.582031 418.191406 L 212.238281 411.902344 Z M 348.648438 71.210938 C 344.050781 86.378906 327.578125 94.597656 311.847656 89.730469 C 296.285156 84.914062 287.394531 68.742188 292.050781 53.695312 L 305.207031 11.183594 C 280.9375 15.082031 259.683594 32.046875 251.90625 57.171875 C 244.824219 80.054688 250.84375 103.71875 265.40625 120.714844 L 182.085938 389.910156 C 168.277344 396.003906 157.070312 407.605469 152.285156 423.070312 C 143.488281 451.492188 159.367188 481.75 187.878906 490.574219 C 216.324219 499.375 246.519531 483.382812 255.316406 454.957031 C 260.105469 439.484375 257.300781 423.546875 249.546875 410.789062 L 332.890625 141.503906 C 354.46875 135.792969 372.703125 119.632812 379.785156 96.753906 C 387.574219 71.628906 379.710938 45.652344 361.9375 28.644531 Z M 348.648438 71.210938 " clip-rule="nonzero"/></clipPath><clipPath id="76ec107c12"><path d="M 0 0.0585938 L 187.445312 0.0585938 L 187.445312 187.503906 L 0 187.503906 Z M 0 0.0585938 " clip-rule="nonzero"/></clipPath><clipPath id="d0daef0466"><path d="M 41.265625 12.414062 L 187.445312 12.414062 L 187.445312 187.503906 L 41.265625 187.503906 Z M 41.265625 12.414062 " clip-rule="nonzero"/></clipPath><clipPath id="a7451682ad"><path d="M 27.953125 35.300781 L 65.9375 0.0585938 L 217.773438 163.710938 L 179.789062 198.953125 Z M 27.953125 35.300781 " clip-rule="nonzero"/></clipPath><clipPath id="905d3ff40c"><path d="M 211.511719 159.597656 L 140.222656 82.761719 C 138.105469 80.476562 134.859375 79.917969 132.15625 81.078125 L 126.558594 75.042969 C 129 72.269531 129.027344 68.0625 126.460938 65.292969 C 123.726562 62.351562 119.121094 62.175781 116.167969 64.910156 L 107.132812 73.300781 L 73.878906 37.46875 L 74.832031 36.585938 L 68.554688 24.78125 L 52.511719 12.515625 L 42.308594 21.980469 L 41.386719 22.847656 L 52.417969 39.753906 L 63.714844 46.90625 L 64.640625 46.054688 L 64.660156 46.027344 L 97.914062 81.863281 L 88.867188 90.253906 C 85.925781 92.980469 85.742188 97.582031 88.484375 100.539062 C 91.050781 103.304688 95.246094 103.597656 98.183594 101.367188 L 103.792969 107.410156 C 102.429688 110.015625 102.746094 113.296875 104.867188 115.570312 L 176.152344 192.40625 C 178.832031 195.304688 183.355469 195.472656 186.246094 192.785156 L 211.132812 169.691406 C 214.03125 167.011719 214.203125 162.492188 211.511719 159.597656 " clip-rule="nonzero"/></clipPath><clipPath id="126cbe1237"><path d="M 27.953125 35.300781 L 65.9375 0.0585938 L 217.773438 163.710938 L 179.789062 198.953125 Z M 27.953125 35.300781 " clip-rule="nonzero"/></clipPath><clipPath id="108e1cc9df"><path d="M 211.511719 159.597656 L 140.222656 82.761719 C 138.105469 80.476562 134.859375 79.917969 132.15625 81.078125 L 126.558594 75.042969 C 129 72.269531 129.027344 68.0625 126.460938 65.292969 C 123.726562 62.351562 119.121094 62.175781 116.167969 64.910156 L 107.132812 73.300781 L 73.878906 37.46875 L 74.832031 36.585938 L 68.554688 24.78125 L 52.511719 12.515625 L 42.308594 21.980469 L 41.386719 22.847656 L 52.417969 39.753906 L 63.714844 46.90625 L 64.640625 46.054688 L 64.660156 46.027344 L 97.914062 81.863281 L 88.867188 90.253906 C 85.925781 92.980469 85.742188 97.582031 88.484375 100.539062 C 91.050781 103.304688 95.246094 103.597656 98.183594 101.367188 L 103.792969 107.410156 C 102.429688 110.015625 102.746094 113.296875 104.867188 115.570312 L 176.152344 192.40625 C 178.832031 195.304688 183.355469 195.472656 186.246094 192.785156 L 211.132812 169.691406 C 214.03125 167.011719 214.203125 162.492188 211.511719 159.597656 " clip-rule="nonzero"/></clipPath><clipPath id="b331a40eb1"><path d="M 40.667969 95.671875 L 143.957031 95.671875 L 143.957031 187.503906 L 40.667969 187.503906 Z M 40.667969 95.671875 " clip-rule="nonzero"/></clipPath><clipPath id="c984d80282"><path d="M 32.65625 109.355469 L 55.398438 88.253906 L 146.328125 186.257812 L 123.582031 207.359375 Z M 32.65625 109.355469 " clip-rule="nonzero"/></clipPath><clipPath id="0ca8c8cdf1"><path d="M 142.578125 183.792969 L 99.886719 137.78125 C 98.617188 136.410156 96.675781 136.078125 95.054688 136.769531 L 91.707031 133.15625 C 93.164062 131.496094 93.183594 128.976562 91.648438 127.320312 C 90.007812 125.558594 87.25 125.453125 85.480469 127.089844 L 80.070312 132.113281 L 60.15625 110.652344 L 60.726562 110.125 L 56.96875 103.058594 L 47.359375 95.714844 L 41.25 101.378906 L 40.695312 101.898438 L 47.304688 112.023438 L 54.070312 116.308594 L 54.621094 115.796875 L 54.632812 115.78125 L 74.546875 137.238281 L 69.132812 142.265625 C 67.371094 143.898438 67.261719 146.65625 68.902344 148.425781 C 70.441406 150.082031 72.953125 150.257812 74.710938 148.921875 L 78.070312 152.539062 C 77.253906 154.101562 77.445312 156.066406 78.710938 157.425781 L 121.402344 203.441406 C 123.007812 205.175781 125.714844 205.277344 127.449219 203.667969 L 142.351562 189.839844 C 144.089844 188.234375 144.191406 185.523438 142.578125 183.792969 " clip-rule="nonzero"/></clipPath><clipPath id="20e6fbec15"><path d="M 32.65625 109.355469 L 55.398438 88.253906 L 146.328125 186.257812 L 123.582031 207.359375 Z M 32.65625 109.355469 " clip-rule="nonzero"/></clipPath><clipPath id="16078d068e"><path d="M 142.578125 183.792969 L 99.886719 137.78125 C 98.617188 136.410156 96.675781 136.078125 95.054688 136.769531 L 91.707031 133.15625 C 93.164062 131.496094 93.183594 128.976562 91.648438 127.320312 C 90.007812 125.558594 87.25 125.453125 85.480469 127.089844 L 80.070312 132.113281 L 60.15625 110.652344 L 60.726562 110.125 L 56.96875 103.058594 L 47.359375 95.714844 L 41.25 101.378906 L 40.695312 101.898438 L 47.304688 112.023438 L 54.070312 116.308594 L 54.621094 115.796875 L 54.632812 115.78125 L 74.546875 137.238281 L 69.132812 142.265625 C 67.371094 143.898438 67.261719 146.65625 68.902344 148.425781 C 70.441406 150.082031 72.953125 150.257812 74.710938 148.921875 L 78.070312 152.539062 C 77.253906 154.101562 77.445312 156.066406 78.710938 157.425781 L 121.402344 203.441406 C 123.007812 205.175781 125.714844 205.277344 127.449219 203.667969 L 142.351562 189.839844 C 144.089844 188.234375 144.191406 185.523438 142.578125 183.792969 " clip-rule="nonzero"/></clipPath><clipPath id="007daec9c7"><path d="M 217.433594 217.496094 L 404.761719 217.496094 L 404.761719 404.9375 L 217.433594 404.9375 Z M 217.433594 217.496094 " clip-rule="nonzero"/></clipPath><clipPath id="30fa842111"><path d="M 217.433594 217.496094 L 340.398438 217.496094 L 340.398438 368.949219 L 217.433594 368.949219 Z M 217.433594 217.496094 " clip-rule="nonzero"/></clipPath><clipPath id="bf9d53648b"><path d="M 481.984375 95.890625 L 511.21875 489.9375 L 117.167969 519.171875 L 87.933594 125.121094 Z M 481.984375 95.890625 " clip-rule="nonzero"/></clipPath><clipPath id="3ce29b2a09"><path d="M 481.984375 95.890625 L 511.21875 489.9375 L 117.167969 519.171875 L 87.933594 125.121094 Z M 481.984375 95.890625 " clip-rule="nonzero"/></clipPath><clipPath id="5ee58dc6dc"><path d="M 314 304.46875 L 400.382812 304.46875 L 400.382812 404.9375 L 314 404.9375 Z M 314 304.46875 " clip-rule="nonzero"/></clipPath><clipPath id="2e21266461"><path d="M 481.984375 95.890625 L 511.21875 489.9375 L 117.167969 519.171875 L 87.933594 125.121094 Z M 481.984375 95.890625 " clip-rule="nonzero"/></clipPath><clipPath id="329b01637b"><path d="M 481.984375 95.890625 L 511.21875 489.9375 L 117.167969 519.171875 L 87.933594 125.121094 Z M 481.984375 95.890625 " clip-rule="nonzero"/></clipPath><clipPath id="ff0aa077df"><path d="M 0 217.496094 L 187.445312 217.496094 L 187.445312 404.9375 L 0 404.9375 Z M 0 217.496094 " clip-rule="nonzero"/></clipPath><clipPath id="5a43fd9255"><path d="M 6 250 L 173.949219 250 L 173.949219 404.9375 L 6 404.9375 Z M 6 250 " clip-rule="nonzero"/></clipPath><clipPath id="2911399b07"><path d="M 41.921875 225.121094 L 176.542969 276.21875 L 88.320312 508.652344 L -46.300781 457.554688 Z M 41.921875 225.121094 " clip-rule="nonzero"/></clipPath><clipPath id="29f7902ab2"><path d="M 173.1875 285.054688 C 175.242188 279.914062 170.054688 276.703125 164.792969 274.582031 C 159.535156 272.457031 150.285156 275.808594 140.378906 271.8125 C 130.476562 267.816406 132.203125 259.925781 119.386719 255.125 C 106.570312 250.324219 94.761719 249.289062 75.636719 251.265625 C 56.515625 253.238281 22.550781 280.570312 22.550781 280.570312 C 15.722656 286.398438 19.863281 290.863281 26.222656 288.019531 C 30.1875 286.246094 50.1875 277.550781 50.1875 277.550781 C 69.207031 269.5625 74.597656 272.101562 80.769531 277.023438 C 87.136719 282.105469 86 297.613281 86 297.613281 C 86 297.613281 86.5625 297.839844 87.570312 298.246094 L 67.847656 344.054688 C 66.347656 343.640625 64.140625 343.554688 62.707031 345.894531 C 60.378906 349.710938 49.277344 370.734375 44.644531 378.953125 C 40.007812 387.171875 30.363281 417.914062 30.363281 417.914062 L 27.109375 428.015625 C 23.863281 438.128906 14.308594 457.296875 8.789062 465.730469 C 3.277344 474.160156 7.480469 475.671875 11.695312 478.511719 C 15.910156 481.351562 25.148438 484.324219 32.652344 486.972656 C 40.152344 489.621094 45.519531 487.597656 46.496094 481.140625 C 47.476562 474.6875 57.6875 447.214844 59.785156 441.972656 C 61.890625 436.730469 77.910156 403.425781 81.121094 395.40625 C 84.34375 387.371094 89.785156 364.445312 91.355469 359.1875 C 92.128906 356.59375 90.605469 354.566406 88.851562 353.183594 L 106.671875 306.144531 C 106.769531 306.179688 106.855469 306.222656 106.957031 306.257812 C 106.988281 306.214844 107.023438 306.167969 107.054688 306.117188 C 107.199219 306.179688 107.34375 306.234375 107.496094 306.296875 C 113.289062 297.632812 119.265625 294.398438 124.507812 293.621094 C 130.257812 293.046875 135.03125 295.410156 137.566406 296.4375 C 142.460938 298.417969 144.085938 305.910156 147.761719 307.390625 C 151.4375 308.867188 147.761719 307.390625 154.796875 310.234375 C 156.476562 310.917969 157.851562 311.019531 158.980469 310.800781 C 163.296875 310.691406 164.792969 305.9375 164.792969 305.9375 C 164.792969 305.9375 171.101562 290.199219 173.164062 285.066406 " clip-rule="nonzero"/></clipPath><clipPath id="6d1cee2a71"><path d="M 41.921875 225.121094 L 176.542969 276.21875 L 88.320312 508.652344 L -46.300781 457.554688 Z M 41.921875 225.121094 " clip-rule="nonzero"/></clipPath><clipPath id="b9462ec90a"><path d="M 173.1875 285.054688 C 175.242188 279.914062 170.054688 276.703125 164.792969 274.582031 C 159.535156 272.457031 150.285156 275.808594 140.378906 271.8125 C 130.476562 267.816406 132.203125 259.925781 119.386719 255.125 C 106.570312 250.324219 94.761719 249.289062 75.636719 251.265625 C 56.515625 253.238281 22.550781 280.570312 22.550781 280.570312 C 15.722656 286.398438 19.863281 290.863281 26.222656 288.019531 C 30.1875 286.246094 50.1875 277.550781 50.1875 277.550781 C 69.207031 269.5625 74.597656 272.101562 80.769531 277.023438 C 87.136719 282.105469 86 297.613281 86 297.613281 C 86 297.613281 86.5625 297.839844 87.570312 298.246094 L 67.847656 344.054688 C 66.347656 343.640625 64.140625 343.554688 62.707031 345.894531 C 60.378906 349.710938 49.277344 370.734375 44.644531 378.953125 C 40.007812 387.171875 30.363281 417.914062 30.363281 417.914062 L 27.109375 428.015625 C 23.863281 438.128906 14.308594 457.296875 8.789062 465.730469 C 3.277344 474.160156 7.480469 475.671875 11.695312 478.511719 C 15.910156 481.351562 25.148438 484.324219 32.652344 486.972656 C 40.152344 489.621094 45.519531 487.597656 46.496094 481.140625 C 47.476562 474.6875 57.6875 447.214844 59.785156 441.972656 C 61.890625 436.730469 77.910156 403.425781 81.121094 395.40625 C 84.34375 387.371094 89.785156 364.445312 91.355469 359.1875 C 92.128906 356.59375 90.605469 354.566406 88.851562 353.183594 L 106.671875 306.144531 C 106.769531 306.179688 106.855469 306.222656 106.957031 306.257812 C 106.988281 306.214844 107.023438 306.167969 107.054688 306.117188 C 107.199219 306.179688 107.34375 306.234375 107.496094 306.296875 C 113.289062 297.632812 119.265625 294.398438 124.507812 293.621094 C 130.257812 293.046875 135.03125 295.410156 137.566406 296.4375 C 142.460938 298.417969 144.085938 305.910156 147.761719 307.390625 C 151.4375 308.867188 147.761719 307.390625 154.796875 310.234375 C 156.476562 310.917969 157.851562 311.019531 158.980469 310.800781 C 163.296875 310.691406 164.792969 305.9375 164.792969 305.9375 C 164.792969 305.9375 171.101562 290.199219 173.164062 285.066406 " clip-rule="nonzero"/></clipPath></defs><g clip-path="url(#087a247686)"><path fill="#ffffff" d="M 198.691406 -18.683594 L 423.625 -18.683594 L 423.625 206.25 L 198.691406 206.25 Z M 198.691406 -18.683594 " fill-opacity="1" fill-rule="nonzero"/><path fill="#ffffff" d="M 198.691406 -18.683594 L 423.625 -18.683594 L 423.625 206.25 L 198.691406 206.25 Z M 198.691406 -18.683594 " fill-opacity="1" fill-rule="nonzero"/><path fill="#0177b8" d="M 176.199219 -41.179688 L 446.117188 -41.179688 L 446.117188 228.742188 L 176.199219 228.742188 Z M 176.199219 -41.179688 " fill-opacity="1" fill-rule="nonzero"/></g><g clip-path="url(#9377a3ed80)"><g clip-path="url(#861b1d72a4)"><g clip-path="url(#a4419ac62e)"><g clip-path="url(#94d21e8065)"><g clip-path="url(#ded79a84aa)"><path fill="#ffffff" d="M 269.585938 0.0585938 L 397.476562 39.644531 L 251.820312 510.253906 L 123.925781 470.667969 Z M 269.585938 0.0585938 " fill-opacity="1" fill-rule="nonzero"/></g></g></g></g></g><g clip-path="url(#76ec107c12)"><path fill="#ffffff" d="M -18.746094 -18.683594 L 206.1875 -18.683594 L 206.1875 206.25 L -18.746094 206.25 Z M -18.746094 -18.683594 " fill-opacity="1" fill-rule="nonzero"/><path fill="#ffffff" d="M -18.746094 -18.683594 L 206.1875 -18.683594 L 206.1875 206.25 L -18.746094 206.25 Z M -18.746094 -18.683594 " fill-opacity="1" fill-rule="nonzero"/><path fill="#179d2e" d="M -41.238281 -41.179688 L 228.683594 -41.179688 L 228.683594 228.742188 L -41.238281 228.742188 Z M -41.238281 -41.179688 " fill-opacity="1" fill-rule="nonzero"/></g><g clip-path="url(#d0daef0466)"><g clip-path="url(#a7451682ad)"><g clip-path="url(#905d3ff40c)"><g clip-path="url(#126cbe1237)"><g clip-path="url(#108e1cc9df)"><path fill="#ffffff" d="M 27.953125 35.300781 L 65.9375 0.0585938 L 217.632812 163.5625 L 179.652344 198.804688 Z M 27.953125 35.300781 " fill-opacity="1" fill-rule="nonzero"/></g></g></g></g></g><g clip-path="url(#b331a40eb1)"><g clip-path="url(#c984d80282)"><g clip-path="url(#0ca8c8cdf1)"><g clip-path="url(#20e6fbec15)"><g clip-path="url(#16078d068e)"><path fill="#ffffff" d="M 32.65625 109.355469 L 55.398438 88.253906 L 146.246094 186.167969 L 123.5 207.273438 Z M 32.65625 109.355469 " fill-opacity="1" fill-rule="nonzero"/></g></g></g></g></g><g clip-path="url(#007daec9c7)"><path fill="#ffffff" d="M 198.691406 198.75 L 423.625 198.75 L 423.625 423.683594 L 198.691406 423.683594 Z M 198.691406 198.75 " fill-opacity="1" fill-rule="nonzero"/><path fill="#ffffff" d="M 198.691406 198.75 L 423.625 198.75 L 423.625 423.683594 L 198.691406 423.683594 Z M 198.691406 198.75 " fill-opacity="1" fill-rule="nonzero"/><path fill="#f02e2c" d="M 176.199219 176.257812 L 446.117188 176.257812 L 446.117188 446.179688 L 176.199219 446.179688 Z M 176.199219 176.257812 " fill-opacity="1" fill-rule="nonzero"/></g><g clip-path="url(#30fa842111)"><g clip-path="url(#bf9d53648b)"><g clip-path="url(#3ce29b2a09)"><path fill="#ffffff" d="M 209.992188 215.746094 C 208.574219 213.761719 209.042969 211.015625 211.015625 209.605469 C 213 208.195312 215.746094 208.648438 217.164062 210.628906 C 218.574219 212.613281 218.109375 215.359375 216.128906 216.773438 C 214.152344 218.183594 211.402344 217.726562 209.992188 215.746094 Z M 309.492188 334.855469 C 309.4375 331.878906 310.652344 329 312.820312 326.964844 L 338.4375 302.792969 C 339.007812 302.253906 339.632812 301.796875 340.300781 301.421875 L 214.183594 198.050781 L 197.765625 207.730469 L 195.300781 213.636719 L 200.480469 213.492188 L 198.65625 218.339844 L 203.835938 218.195312 L 202.011719 223.046875 L 207.195312 222.902344 L 205.367188 227.753906 L 210.550781 227.605469 L 208.726562 232.457031 L 213.90625 232.3125 L 212.082031 237.164062 L 217.261719 237.015625 L 215.4375 241.867188 L 220.617188 241.722656 L 218.792969 246.574219 L 223.976562 246.429688 L 222.148438 251.277344 L 227.328125 251.132812 L 225.507812 255.984375 L 230.683594 255.839844 L 228.859375 260.691406 L 234.039062 260.546875 L 232.214844 265.394531 L 237.398438 265.25 L 235.574219 270.101562 L 240.753906 269.953125 L 238.929688 274.808594 L 244.105469 274.660156 L 242.285156 279.511719 L 247.464844 279.367188 L 245.640625 284.214844 L 250.820312 284.070312 L 248.996094 288.921875 L 254.179688 288.773438 L 252.351562 293.628906 L 257.53125 293.480469 L 255.710938 298.332031 L 260.890625 298.1875 L 259.066406 303.035156 L 264.246094 302.890625 L 262.421875 307.742188 L 267.601562 307.597656 L 265.777344 312.449219 L 270.957031 312.304688 L 269.132812 317.15625 L 274.3125 317.007812 L 272.488281 321.859375 L 277.667969 321.714844 L 275.84375 326.5625 L 281.023438 326.417969 L 279.199219 331.269531 L 284.378906 331.125 L 282.554688 335.972656 L 287.738281 335.828125 L 285.914062 340.683594 L 291.09375 340.535156 L 289.269531 345.386719 L 294.449219 345.242188 L 292.625 350.089844 L 297.804688 349.945312 L 295.980469 354.792969 L 301.160156 354.648438 L 299.335938 359.5 L 304.515625 359.355469 L 302.695312 364.207031 L 307.871094 364.058594 L 306.050781 368.910156 L 310.03125 368.800781 L 309.492188 334.855469 " fill-opacity="1" fill-rule="nonzero"/></g></g></g><g clip-path="url(#5ee58dc6dc)"><g clip-path="url(#2e21266461)"><g clip-path="url(#329b01637b)"><path fill="#ffffff" d="M 336.902344 386.359375 L 332.4375 382.851562 C 331.695312 382.269531 331.085938 381.558594 330.625 380.757812 C 329.960938 379.605469 329.617188 378.273438 329.660156 376.90625 L 330.464844 350.515625 L 330.570312 347.097656 C 330.621094 345.402344 331.351562 343.800781 332.597656 342.65625 L 334.398438 341 L 345.238281 331.035156 C 347.347656 329.097656 350.582031 329.070312 352.726562 330.976562 L 365.804688 342.597656 C 366.261719 343.003906 366.640625 343.476562 366.933594 343.984375 C 367.933594 345.722656 367.945312 347.925781 366.839844 349.710938 L 345.023438 384.921875 C 343.28125 387.726562 339.496094 388.394531 336.902344 386.359375 Z M 318.980469 369.28125 C 318.011719 367.597656 318.59375 365.449219 320.277344 364.480469 C 321.960938 363.511719 324.105469 364.089844 325.078125 365.773438 C 326.046875 367.453125 325.46875 369.605469 323.78125 370.574219 C 322.101562 371.542969 319.949219 370.964844 318.980469 369.28125 Z M 320.316406 338.832031 C 319.347656 337.152344 319.925781 335.003906 321.613281 334.03125 C 323.292969 333.0625 325.441406 333.644531 326.410156 335.324219 C 327.382812 337.007812 326.800781 339.160156 325.117188 340.128906 C 323.433594 341.09375 321.285156 340.519531 320.316406 338.832031 Z M 341.183594 318.707031 C 340.214844 317.023438 340.792969 314.875 342.476562 313.90625 C 344.160156 312.9375 346.308594 313.515625 347.277344 315.195312 C 348.25 316.878906 347.667969 319.03125 345.988281 320 C 344.300781 320.96875 342.15625 320.390625 341.183594 318.707031 Z M 364.765625 417.167969 C 365.324219 416.523438 365.648438 415.738281 365.734375 414.925781 C 365.816406 414.117188 365.660156 413.285156 365.25 412.539062 L 363.671875 409.667969 C 362.777344 408.050781 362.886719 406.070312 363.941406 404.554688 C 368.398438 398.171875 380.480469 380.347656 388.992188 363.015625 C 390.175781 360.605469 392.109375 358.648438 394.503906 357.425781 L 398.148438 355.5625 C 398.742188 355.261719 399.253906 354.8125 399.628906 354.257812 C 400.496094 352.988281 400.539062 351.347656 399.785156 350.042969 C 399.699219 349.886719 399.597656 349.734375 399.484375 349.589844 L 396.320312 345.507812 C 395.417969 344.34375 394.363281 343.308594 393.183594 342.429688 C 386.902344 337.75 365.152344 321.332031 348.257812 306.050781 C 347.179688 305.074219 345.777344 304.660156 344.425781 304.804688 C 343.390625 304.914062 342.386719 305.351562 341.574219 306.117188 L 315.957031 330.289062 C 314.71875 331.453125 314.03125 333.085938 314.058594 334.78125 L 314.75 377.980469 C 314.75 378.050781 314.753906 378.125 314.761719 378.195312 C 314.800781 378.863281 315 379.511719 315.332031 380.085938 C 315.578125 380.515625 315.898438 380.902344 316.285156 381.230469 L 359.027344 417.617188 C 360.738281 419.070312 363.300781 418.871094 364.765625 417.167969 " fill-opacity="1" fill-rule="nonzero"/></g></g></g><g clip-path="url(#ff0aa077df)"><path fill="#ffffff" d="M -18.746094 198.75 L 206.1875 198.75 L 206.1875 423.683594 L -18.746094 423.683594 Z M -18.746094 198.75 " fill-opacity="1" fill-rule="nonzero"/><path fill="#ffffff" d="M -18.746094 198.75 L 206.1875 198.75 L 206.1875 423.683594 L -18.746094 423.683594 Z M -18.746094 198.75 " fill-opacity="1" fill-rule="nonzero"/><path fill="#f5af23" d="M -41.238281 176.257812 L 228.683594 176.257812 L 228.683594 446.179688 L -41.238281 446.179688 Z M -41.238281 176.257812 " fill-opacity="1" fill-rule="nonzero"/></g><g clip-path="url(#5a43fd9255)"><g clip-path="url(#2911399b07)"><g clip-path="url(#29f7902ab2)"><g clip-path="url(#6d1cee2a71)"><g clip-path="url(#b9462ec90a)"><path fill="#ffffff" d="M 41.722656 225.644531 L 176.34375 276.742188 L 88.320312 508.652344 L -46.300781 457.554688 Z M 41.722656 225.644531 " fill-opacity="1" fill-rule="nonzero"/></g></g></g></g></g></svg>