<svg xmlns="http://www.w3.org/2000/svg" xmlns:xlink="http://www.w3.org/1999/xlink" width="364" zoomAndPan="magnify" viewBox="0 0 273 91.5" height="122" preserveAspectRatio="xMidYMid meet" version="1.0"><defs><g/><clipPath id="83858d328a"><path d="M 0.742188 0 L 272.257812 0 L 272.257812 91.003906 L 0.742188 91.003906 Z M 0.742188 0 " clip-rule="nonzero"/></clipPath><clipPath id="29d6a72894"><path d="M 0.742188 48.5625 L 43.257812 48.5625 L 43.257812 91 L 0.742188 91 Z M 0.742188 48.5625 " clip-rule="nonzero"/></clipPath><clipPath id="ff93f10a88"><path d="M 51 48.5625 L 91.539062 48.5625 L 91.539062 81 L 51 81 Z M 51 48.5625 " clip-rule="nonzero"/></clipPath><clipPath id="7b79f7ced0"><path d="M 49.191406 52 L 76 52 L 76 91 L 49.191406 91 Z M 49.191406 52 " clip-rule="nonzero"/></clipPath><clipPath id="3b7e24ed83"><path d="M 83 83 L 91.539062 83 L 91.539062 91 L 83 91 Z M 83 83 " clip-rule="nonzero"/></clipPath><clipPath id="e7639ad6ce"><path d="M 48.832031 0 L 91.183594 0 L 91.183594 42.519531 L 48.832031 42.519531 Z M 48.832031 0 " clip-rule="nonzero"/></clipPath><clipPath id="71a4673e2b"><path d="M 18 0 L 42.511719 0 L 42.511719 37 L 18 37 Z M 18 0 " clip-rule="nonzero"/></clipPath><clipPath id="8444552125"><path d="M 0.742188 0 L 36 0 L 36 42.519531 L 0.742188 42.519531 Z M 0.742188 0 " clip-rule="nonzero"/></clipPath></defs><g clip-path="url(#83858d328a)"><path fill="#ffffff" d="M 0.742188 0 L 272.257812 0 L 272.257812 91.003906 L 0.742188 91.003906 Z M 0.742188 0 " fill-opacity="1" fill-rule="nonzero"/><path fill="#ffffff" d="M 0.742188 0 L 272.257812 0 L 272.257812 91.003906 L 0.742188 91.003906 Z M 0.742188 0 " fill-opacity="1" fill-rule="nonzero"/></g><g clip-path="url(#29d6a72894)"><path fill="#f5af23" d="M 43.183594 48.351562 C 29.066406 48.371094 14.925781 48.351562 0.808594 48.351562 L 0.808594 67.125 C 0.808594 72.804688 0.789062 78.503906 0.808594 84.183594 C 0.808594 86.402344 0.808594 88.617188 0.808594 90.820312 C 3.53125 90.835938 6.269531 90.855469 8.996094 90.820312 C 10.183594 87.140625 11.5 83.515625 12.800781 79.871094 C 13.59375 77.726562 14.152344 75.507812 15.089844 73.417969 C 15.414062 72.605469 16.316406 72.351562 16.964844 71.902344 C 17.8125 69.539062 18.820312 67.25 19.363281 64.796875 C 19.488281 63.011719 19.761719 60.613281 17.921875 59.566406 C 16.0625 58.578125 14.027344 58.847656 12.042969 59.296875 C 10.507812 59.640625 9.066406 60.269531 7.785156 61.171875 L 7.730469 61.210938 L 7.714844 61.226562 C 7.679688 61.261719 7.625 61.300781 7.570312 61.316406 C 7.535156 61.335938 7.496094 61.351562 7.460938 61.371094 C 6.921875 61.570312 6.199219 61.28125 5.660156 61.316406 C 8.039062 57.117188 12.78125 54.898438 17.363281 54.105469 C 20.03125 53.5625 22.699219 54.445312 25.167969 55.402344 C 27.207031 55.996094 27.785156 58.539062 29.804688 59.152344 C 31.320312 59.640625 32.851562 58.972656 34.257812 58.503906 C 35.609375 58.9375 36.945312 59.40625 38.28125 59.910156 C 37.847656 62.722656 36.855469 65.410156 35.320312 67.808594 C 34.058594 67.359375 32.78125 66.90625 31.535156 66.4375 C 30.722656 64.113281 28.054688 62.054688 25.636719 63.464844 C 22.394531 65.679688 21.960938 69.863281 20.625 73.273438 C 22.769531 75.273438 20.515625 78.035156 20.011719 80.289062 C 18.785156 83.820312 17.523438 87.355469 16.296875 90.890625 C 25.242188 90.910156 34.1875 90.910156 43.113281 90.890625 C 43.113281 84.886719 43.09375 78.898438 43.128906 72.894531 C 43.167969 64.6875 43.183594 56.519531 43.183594 48.351562 Z M 43.183594 48.351562 " fill-opacity="1" fill-rule="nonzero"/></g><g clip-path="url(#ff93f10a88)"><path fill="#f02e2c" d="M 91.40625 48.421875 C 87.382812 48.242188 83.34375 48.421875 79.324219 48.332031 C 70.125 48.40625 60.929688 48.316406 51.734375 48.371094 C 61.183594 56.699219 70.722656 64.90625 80.171875 73.21875 C 80.695312 72.875 81.214844 72.535156 81.722656 72.191406 C 84.644531 74.410156 87.292969 76.96875 90.105469 79.3125 C 90.339844 79.496094 90.808594 79.890625 91.042969 80.089844 L 91.496094 80.449219 C 91.441406 69.773438 91.621094 59.082031 91.40625 48.421875 Z M 91.40625 48.421875 " fill-opacity="1" fill-rule="nonzero"/></g><g clip-path="url(#7b79f7ced0)"><path fill="#f02e2c" d="M 73.425781 87.789062 C 72.886719 86.5625 72.21875 85.410156 71.441406 84.328125 C 63.960938 73.617188 56.636719 62.8125 49.15625 52.121094 C 49.117188 65.085938 49.101562 78.035156 49.15625 91 C 58.027344 90.691406 66.933594 90.910156 75.824219 90.871094 C 74.851562 89.972656 73.914062 89.015625 73.425781 87.789062 Z M 73.425781 87.789062 " fill-opacity="1" fill-rule="nonzero"/></g><path fill="#f02e2c" d="M 85.816406 83.605469 C 86.789062 83.207031 86.644531 82.089844 86.859375 81.242188 C 85.347656 80.289062 83.902344 77.601562 81.867188 78.753906 C 79.9375 80.289062 78.546875 82.433594 76.816406 84.183594 C 75.535156 86.273438 77.789062 87.84375 79.269531 88.925781 C 80.386719 89.773438 82.0625 89.035156 82.371094 87.699219 C 82.949219 85.914062 84.191406 84.523438 85.816406 83.605469 Z M 85.816406 83.605469 " fill-opacity="1" fill-rule="nonzero"/><g clip-path="url(#3b7e24ed83)"><path fill="#f02e2c" d="M 89.621094 83.894531 C 87.726562 86.292969 85.6875 88.582031 83.667969 90.871094 C 86.285156 90.820312 88.878906 90.835938 91.496094 90.855469 C 91.476562 88.761719 91.476562 86.652344 91.496094 84.542969 C 90.882812 84.34375 90.25 84.128906 89.621094 83.894531 Z M 89.621094 83.894531 " fill-opacity="1" fill-rule="nonzero"/></g><g clip-path="url(#e7639ad6ce)"><path fill="#0177b8" d="M 59.742188 42.648438 C 60.320312 39.023438 61.347656 35.46875 61.6875 31.808594 C 59.652344 29.644531 57.378906 27.554688 56.371094 24.652344 C 53.464844 17.886719 56.566406 9.269531 63.113281 5.898438 C 64.359375 5.011719 66.054688 6.652344 65.601562 7.988281 C 65.042969 12.136719 64.175781 16.246094 63.527344 20.394531 C 65.476562 22.070312 67.460938 23.730469 69.40625 25.390625 C 71.804688 24.488281 74.222656 23.640625 76.621094 22.738281 C 77.394531 18.539062 77.972656 14.316406 78.839844 10.152344 C 78.929688 8.746094 80.804688 7.953125 81.777344 9.050781 C 84.5 11.867188 85.816406 15.90625 85.707031 19.78125 C 85.457031 26.238281 80.714844 31.988281 74.5625 33.8125 C 73.878906 36.734375 73.390625 39.691406 72.816406 42.648438 C 78.929688 42.648438 85.042969 42.558594 91.136719 42.71875 C 91.117188 40.394531 91.136719 38.085938 91.136719 35.757812 C 91.136719 29.375 91.117188 22.992188 91.136719 16.589844 C 91.15625 11.109375 91.136719 5.625 91.136719 0.144531 C 77.015625 0.164062 62.898438 0.164062 48.777344 0.179688 C 48.777344 14.335938 48.757812 28.507812 48.777344 42.664062 C 52.4375 42.648438 56.082031 42.648438 59.742188 42.648438 Z M 59.742188 42.648438 " fill-opacity="1" fill-rule="nonzero"/></g><g clip-path="url(#71a4673e2b)"><path fill="#179d2e" d="M 27.640625 17.382812 C 28.578125 17.167969 29.496094 16.933594 30.453125 16.804688 C 31.335938 17.726562 32.023438 18.808594 32.796875 19.835938 C 32.816406 20.988281 32.796875 22.144531 32.707031 23.316406 C 33.230469 24.199219 34.113281 24.6875 35.070312 24.992188 C 38.296875 28.09375 39.992188 32.386719 42.28125 36.15625 C 42.5 36.246094 42.914062 36.425781 43.128906 36.535156 C 43.003906 24.523438 43.09375 12.53125 43.074219 0.523438 C 34.835938 0.523438 26.59375 0.488281 18.351562 0.539062 C 19.652344 2.039062 20.335938 3.878906 20.5 5.84375 C 23.042969 9.558594 25.1875 13.578125 27.640625 17.382812 Z M 27.640625 17.382812 " fill-opacity="1" fill-rule="nonzero"/></g><g clip-path="url(#8444552125)"><path fill="#179d2e" d="M 21.6875 42.375 C 21.472656 41.890625 21.238281 41.421875 20.984375 40.953125 C 19.941406 38.96875 18.695312 37.074219 17.558594 35.164062 C 16.566406 33.359375 16.386719 31.269531 15.738281 29.320312 C 15.089844 29.230469 14.441406 29.140625 13.808594 29.050781 C 13.339844 28.058594 12.871094 27.085938 12.402344 26.09375 C 12.925781 25.535156 13.449219 24.976562 13.972656 24.417969 C 10.582031 19.023438 7.066406 13.667969 4.179688 7.988281 C 4.289062 7.5 4.394531 7.03125 4.484375 6.5625 L 12.960938 19.023438 C 12.996094 19.113281 13.035156 19.1875 13.085938 19.277344 C 13.085938 19.257812 13.085938 19.222656 13.085938 19.1875 L 15.324219 22.46875 C 15.378906 22.558594 15.433594 22.632812 15.484375 22.722656 L 16.152344 23.714844 L 16.152344 23.695312 C 16.1875 23.75 16.226562 23.804688 16.261719 23.839844 C 16.566406 23.460938 17.199219 22.703125 17.503906 22.324219 C 19.199219 23.515625 19.632812 25.480469 19.433594 27.445312 C 20.28125 28.132812 21.167969 28.78125 22.105469 29.355469 C 23.851562 31.792969 25.207031 34.496094 26.847656 37.003906 C 27.460938 38.066406 28.269531 39.058594 28.523438 40.285156 C 28.378906 40.628906 28.164062 41.152344 27.964844 41.636719 C 27.839844 41.925781 27.730469 42.195312 27.65625 42.394531 C 27.640625 42.414062 27.640625 42.449219 27.640625 42.46875 C 30.382812 42.394531 33.121094 42.429688 35.863281 42.394531 C 33.878906 38.84375 31.714844 35.378906 29.570312 31.9375 C 28.433594 30.242188 28.667969 28.113281 28.46875 26.183594 C 27.65625 25.894531 26.828125 25.589844 26.015625 25.300781 C 24.863281 24.054688 23.65625 22.683594 23.3125 20.972656 C 23.925781 20.214844 24.648438 19.566406 25.367188 18.917969 C 22.429688 15.128906 20.679688 10.511719 17.597656 6.851562 C 15.179688 5.246094 14.910156 2.289062 13.554688 0 C 9.355469 0.164062 5.136719 0.0546875 0.933594 0.0703125 L 0.84375 0.164062 L 0.84375 37.003906 L 0.808594 42.375 Z M 21.6875 42.375 " fill-opacity="1" fill-rule="nonzero"/></g><g fill="#f5af23" fill-opacity="1"><g transform="translate(101.292853, 49.479633)"><g><path d="M 5.640625 0.65625 C 4.679688 0.65625 3.664062 0.5625 2.59375 0.375 C 1.53125 0.1875 0.738281 -0.0507812 0.21875 -0.34375 L 0.21875 -7.171875 C 0.65625 -6.972656 1.21875 -6.8125 1.90625 -6.6875 C 2.59375 -6.570312 3.285156 -6.515625 3.984375 -6.515625 C 5.265625 -6.515625 6.164062 -6.785156 6.6875 -7.328125 C 7.21875 -7.867188 7.484375 -8.765625 7.484375 -10.015625 L 7.484375 -30.578125 L 15.21875 -30.578125 L 15.21875 -9.140625 C 15.21875 -6.140625 14.398438 -3.753906 12.765625 -1.984375 C 11.140625 -0.222656 8.765625 0.65625 5.640625 0.65625 Z M 5.640625 0.65625 "/></g></g></g><g fill="#f5af23" fill-opacity="1"><g transform="translate(118.269041, 49.479633)"><g><path d="M 17.546875 0.65625 C 14.453125 0.65625 11.65625 -0.015625 9.15625 -1.359375 C 6.664062 -2.703125 4.695312 -4.578125 3.25 -6.984375 C 1.8125 -9.390625 1.09375 -12.148438 1.09375 -15.265625 C 1.09375 -18.390625 1.8125 -21.160156 3.25 -23.578125 C 4.695312 -26.003906 6.664062 -27.882812 9.15625 -29.21875 C 11.65625 -30.5625 14.453125 -31.234375 17.546875 -31.234375 C 20.609375 -31.234375 23.382812 -30.5625 25.875 -29.21875 C 28.375 -27.882812 30.335938 -26.003906 31.765625 -23.578125 C 33.191406 -21.160156 33.90625 -18.390625 33.90625 -15.265625 C 33.90625 -12.148438 33.191406 -9.390625 31.765625 -6.984375 C 30.335938 -4.578125 28.375 -2.703125 25.875 -1.359375 C 23.382812 -0.015625 20.609375 0.65625 17.546875 0.65625 Z M 17.546875 -6.609375 C 19.085938 -6.609375 20.5 -6.957031 21.78125 -7.65625 C 23.070312 -8.351562 24.09375 -9.359375 24.84375 -10.671875 C 25.601562 -11.984375 25.984375 -13.515625 25.984375 -15.265625 C 25.984375 -17.015625 25.609375 -18.535156 24.859375 -19.828125 C 24.117188 -21.128906 23.109375 -22.140625 21.828125 -22.859375 C 20.546875 -23.578125 19.117188 -23.9375 17.546875 -23.9375 C 15.941406 -23.9375 14.492188 -23.578125 13.203125 -22.859375 C 11.921875 -22.140625 10.910156 -21.128906 10.171875 -19.828125 C 9.429688 -18.535156 9.0625 -17.015625 9.0625 -15.265625 C 9.0625 -13.515625 9.429688 -11.984375 10.171875 -10.671875 C 10.910156 -9.359375 11.929688 -8.351562 13.234375 -7.65625 C 14.535156 -6.957031 15.972656 -6.609375 17.546875 -6.609375 Z M 17.546875 -6.609375 "/></g></g></g><g fill="#f5af23" fill-opacity="1"><g transform="translate(153.271499, 49.479633)"><g><path d="M 1.96875 -30.578125 L 17.453125 -30.578125 C 20.398438 -30.578125 22.726562 -29.847656 24.4375 -28.390625 C 26.144531 -26.929688 27 -24.847656 27 -22.140625 C 27 -20.859375 26.707031 -19.660156 26.125 -18.546875 C 25.539062 -17.441406 24.707031 -16.566406 23.625 -15.921875 C 25.113281 -15.335938 26.207031 -14.5 26.90625 -13.40625 C 27.601562 -12.3125 27.953125 -10.890625 27.953125 -9.140625 C 27.953125 -7.273438 27.515625 -5.648438 26.640625 -4.265625 C 25.765625 -2.878906 24.585938 -1.820312 23.109375 -1.09375 C 21.640625 -0.363281 20.003906 0 18.203125 0 L 1.96875 0 Z M 15.75 -18.46875 C 18.019531 -18.46875 19.15625 -19.53125 19.15625 -21.65625 C 19.15625 -22.851562 18.863281 -23.675781 18.28125 -24.125 C 17.695312 -24.582031 16.8125 -24.8125 15.625 -24.8125 L 9.71875 -24.8125 L 9.71875 -18.46875 Z M 16.234375 -5.78125 C 17.546875 -5.78125 18.519531 -6.023438 19.15625 -6.515625 C 19.800781 -7.015625 20.125 -7.890625 20.125 -9.140625 C 20.125 -10.398438 19.785156 -11.3125 19.109375 -11.875 C 18.441406 -12.445312 17.425781 -12.734375 16.0625 -12.734375 L 9.71875 -12.734375 L 9.71875 -5.78125 Z M 16.234375 -5.78125 "/></g></g></g><g fill="#179d2e" fill-opacity="1"><g transform="translate(182.33049, 49.479633)"><g><path d="M 5.640625 0.65625 C 4.679688 0.65625 3.664062 0.5625 2.59375 0.375 C 1.53125 0.1875 0.738281 -0.0507812 0.21875 -0.34375 L 0.21875 -7.171875 C 0.65625 -6.972656 1.21875 -6.8125 1.90625 -6.6875 C 2.59375 -6.570312 3.285156 -6.515625 3.984375 -6.515625 C 5.265625 -6.515625 6.164062 -6.785156 6.6875 -7.328125 C 7.21875 -7.867188 7.484375 -8.765625 7.484375 -10.015625 L 7.484375 -30.578125 L 15.21875 -30.578125 L 15.21875 -9.140625 C 15.21875 -6.140625 14.398438 -3.753906 12.765625 -1.984375 C 11.140625 -0.222656 8.765625 0.65625 5.640625 0.65625 Z M 5.640625 0.65625 "/></g></g></g><g fill="#179d2e" fill-opacity="1"><g transform="translate(199.306678, 49.479633)"><g><path d="M 13.34375 -30.578125 L 20.953125 -30.578125 L 33.15625 0 L 25.25 0 L 22.796875 -6.296875 L 11.5 -6.296875 L 9.0625 0 L 1.09375 0 Z M 20.875 -12.25 L 17.15625 -22.53125 L 13.390625 -12.25 Z M 20.875 -12.25 "/></g></g></g><g fill="#179d2e" fill-opacity="1"><g transform="translate(233.565329, 49.479633)"><g><path d="M 1.96875 -30.578125 L 17.453125 -30.578125 C 20.398438 -30.578125 22.726562 -29.847656 24.4375 -28.390625 C 26.144531 -26.929688 27 -24.847656 27 -22.140625 C 27 -20.859375 26.707031 -19.660156 26.125 -18.546875 C 25.539062 -17.441406 24.707031 -16.566406 23.625 -15.921875 C 25.113281 -15.335938 26.207031 -14.5 26.90625 -13.40625 C 27.601562 -12.3125 27.953125 -10.890625 27.953125 -9.140625 C 27.953125 -7.273438 27.515625 -5.648438 26.640625 -4.265625 C 25.765625 -2.878906 24.585938 -1.820312 23.109375 -1.09375 C 21.640625 -0.363281 20.003906 0 18.203125 0 L 1.96875 0 Z M 15.75 -18.46875 C 18.019531 -18.46875 19.15625 -19.53125 19.15625 -21.65625 C 19.15625 -22.851562 18.863281 -23.675781 18.28125 -24.125 C 17.695312 -24.582031 16.8125 -24.8125 15.625 -24.8125 L 9.71875 -24.8125 L 9.71875 -18.46875 Z M 16.234375 -5.78125 C 17.546875 -5.78125 18.519531 -6.023438 19.15625 -6.515625 C 19.800781 -7.015625 20.125 -7.890625 20.125 -9.140625 C 20.125 -10.398438 19.785156 -11.3125 19.109375 -11.875 C 18.441406 -12.445312 17.425781 -12.734375 16.0625 -12.734375 L 9.71875 -12.734375 L 9.71875 -5.78125 Z M 16.234375 -5.78125 "/></g></g></g><g fill="#3871c1" fill-opacity="1"><g transform="translate(112.064576, 68.314197)"><g><path d="M 1.1875 -13.90625 L 10.609375 -13.90625 L 10.609375 -11.796875 L 3.71875 -11.796875 L 3.71875 -7.890625 L 8.828125 -7.890625 L 8.828125 -6 L 3.71875 -6 L 3.71875 0 L 1.1875 0 Z M 1.1875 -13.90625 "/></g></g></g><g fill="#3871c1" fill-opacity="1"><g transform="translate(123.060125, 68.314197)"><g><path d="M 1.1875 -13.90625 L 3.71875 -13.90625 L 3.71875 0 L 1.1875 0 Z M 1.1875 -13.90625 "/></g></g></g><g fill="#3871c1" fill-opacity="1"><g transform="translate(127.971344, 68.314197)"><g><path d="M 1.1875 -13.90625 L 10.609375 -13.90625 L 10.609375 -11.8125 L 3.71875 -11.8125 L 3.71875 -8 L 8.828125 -8 L 8.828125 -5.90625 L 3.71875 -5.90625 L 3.71875 -2.09375 L 10.609375 -2.09375 L 10.609375 0 L 1.1875 0 Z M 1.1875 -13.90625 "/></g></g></g><g fill="#3871c1" fill-opacity="1"><g transform="translate(139.165734, 68.314197)"><g><path d="M 1.1875 -13.90625 L 3.71875 -13.90625 L 3.71875 -2.09375 L 10.40625 -2.09375 L 10.40625 0 L 1.1875 0 Z M 1.1875 -13.90625 "/></g></g></g><g fill="#3871c1" fill-opacity="1"><g transform="translate(149.962452, 68.314197)"><g><path d="M 1.1875 -13.90625 L 5.84375 -13.90625 C 7.351562 -13.90625 8.664062 -13.625 9.78125 -13.0625 C 10.894531 -12.507812 11.75 -11.710938 12.34375 -10.671875 C 12.945312 -9.640625 13.25 -8.421875 13.25 -7.015625 C 13.25 -4.710938 12.578125 -2.96875 11.234375 -1.78125 C 9.898438 -0.59375 8.03125 0 5.625 0 L 1.1875 0 Z M 5.671875 -2.09375 C 7.285156 -2.09375 8.523438 -2.523438 9.390625 -3.390625 C 10.265625 -4.253906 10.703125 -5.460938 10.703125 -7.015625 C 10.703125 -7.960938 10.507812 -8.796875 10.125 -9.515625 C 9.738281 -10.242188 9.1875 -10.804688 8.46875 -11.203125 C 7.757812 -11.609375 6.910156 -11.8125 5.921875 -11.8125 L 3.71875 -11.8125 L 3.71875 -2.09375 Z M 5.671875 -2.09375 "/></g></g></g><g fill="#3871c1" fill-opacity="1"><g transform="translate(171.158226, 68.314197)"><g><path d="M 5.21875 0.296875 C 4.394531 0.296875 3.582031 0.21875 2.78125 0.0625 C 1.976562 -0.0820312 1.316406 -0.28125 0.796875 -0.53125 L 0.796875 -2.703125 C 1.460938 -2.390625 2.160156 -2.148438 2.890625 -1.984375 C 3.617188 -1.828125 4.332031 -1.75 5.03125 -1.75 C 5.914062 -1.75 6.585938 -1.914062 7.046875 -2.25 C 7.515625 -2.582031 7.75 -3.039062 7.75 -3.625 C 7.75 -4.03125 7.644531 -4.367188 7.4375 -4.640625 C 7.226562 -4.910156 6.914062 -5.148438 6.5 -5.359375 C 6.09375 -5.566406 5.460938 -5.835938 4.609375 -6.171875 C 3.316406 -6.703125 2.378906 -7.289062 1.796875 -7.9375 C 1.210938 -8.582031 0.921875 -9.390625 0.921875 -10.359375 C 0.921875 -11.117188 1.125 -11.789062 1.53125 -12.375 C 1.9375 -12.957031 2.507812 -13.40625 3.25 -13.71875 C 4 -14.039062 4.859375 -14.203125 5.828125 -14.203125 C 6.617188 -14.203125 7.320312 -14.140625 7.9375 -14.015625 C 8.5625 -13.890625 9.171875 -13.691406 9.765625 -13.421875 L 9.765625 -11.3125 C 8.609375 -11.875 7.441406 -12.15625 6.265625 -12.15625 C 5.421875 -12.15625 4.765625 -12 4.296875 -11.6875 C 3.828125 -11.375 3.59375 -10.929688 3.59375 -10.359375 C 3.59375 -9.953125 3.695312 -9.617188 3.90625 -9.359375 C 4.125 -9.097656 4.410156 -8.878906 4.765625 -8.703125 C 5.117188 -8.523438 5.75 -8.242188 6.65625 -7.859375 C 7.59375 -7.472656 8.328125 -7.09375 8.859375 -6.71875 C 9.398438 -6.351562 9.804688 -5.921875 10.078125 -5.421875 C 10.347656 -4.921875 10.484375 -4.3125 10.484375 -3.59375 C 10.484375 -2.363281 10.035156 -1.40625 9.140625 -0.71875 C 8.253906 -0.0390625 6.945312 0.296875 5.21875 0.296875 Z M 5.21875 0.296875 "/></g></g></g><g fill="#3871c1" fill-opacity="1"><g transform="translate(182.432153, 68.314197)"><g><path d="M 1.1875 -13.90625 L 10.609375 -13.90625 L 10.609375 -11.8125 L 3.71875 -11.8125 L 3.71875 -8 L 8.828125 -8 L 8.828125 -5.90625 L 3.71875 -5.90625 L 3.71875 -2.09375 L 10.609375 -2.09375 L 10.609375 0 L 1.1875 0 Z M 1.1875 -13.90625 "/></g></g></g><g fill="#3871c1" fill-opacity="1"><g transform="translate(193.626543, 68.314197)"><g><path d="M 1.1875 -13.90625 L 7 -13.90625 C 8.539062 -13.90625 9.726562 -13.523438 10.5625 -12.765625 C 11.394531 -12.015625 11.8125 -10.921875 11.8125 -9.484375 C 11.8125 -8.460938 11.554688 -7.59375 11.046875 -6.875 C 10.546875 -6.164062 9.832031 -5.65625 8.90625 -5.34375 L 11.734375 0 L 9.15625 0 L 6.46875 -5.09375 L 3.71875 -5.09375 L 3.71875 0 L 1.1875 0 Z M 6.546875 -7.1875 C 7.367188 -7.1875 8.03125 -7.375 8.53125 -7.75 C 9.03125 -8.132812 9.28125 -8.710938 9.28125 -9.484375 C 9.28125 -11.035156 8.367188 -11.8125 6.546875 -11.8125 L 3.71875 -11.8125 L 3.71875 -7.1875 Z M 6.546875 -7.1875 "/></g></g></g><g fill="#3871c1" fill-opacity="1"><g transform="translate(206.232652, 68.314197)"><g><path d="M 0.796875 -13.90625 L 3.484375 -13.90625 L 7.578125 -3.375 L 11.703125 -13.90625 L 14.359375 -13.90625 L 8.8125 0 L 6.359375 0 Z M 0.796875 -13.90625 "/></g></g></g><g fill="#3871c1" fill-opacity="1"><g transform="translate(221.383843, 68.314197)"><g><path d="M 1.1875 -13.90625 L 3.71875 -13.90625 L 3.71875 0 L 1.1875 0 Z M 1.1875 -13.90625 "/></g></g></g><g fill="#3871c1" fill-opacity="1"><g transform="translate(226.295063, 68.314197)"><g><path d="M 8.234375 0.296875 C 6.773438 0.296875 5.484375 0.00390625 4.359375 -0.578125 C 3.234375 -1.171875 2.359375 -2.015625 1.734375 -3.109375 C 1.109375 -4.203125 0.796875 -5.476562 0.796875 -6.9375 C 0.796875 -8.394531 1.109375 -9.671875 1.734375 -10.765625 C 2.359375 -11.859375 3.234375 -12.703125 4.359375 -13.296875 C 5.484375 -13.898438 6.773438 -14.203125 8.234375 -14.203125 C 10.160156 -14.203125 11.765625 -13.742188 13.046875 -12.828125 L 13.046875 -10.421875 C 11.890625 -11.398438 10.359375 -11.890625 8.453125 -11.890625 C 7.429688 -11.890625 6.535156 -11.6875 5.765625 -11.28125 C 4.992188 -10.882812 4.394531 -10.3125 3.96875 -9.5625 C 3.550781 -8.820312 3.34375 -7.945312 3.34375 -6.9375 C 3.34375 -5.9375 3.554688 -5.0625 3.984375 -4.3125 C 4.421875 -3.570312 5.019531 -3 5.78125 -2.59375 C 6.550781 -2.1875 7.441406 -1.984375 8.453125 -1.984375 C 9.429688 -1.984375 10.304688 -2.101562 11.078125 -2.34375 C 11.847656 -2.59375 12.554688 -2.992188 13.203125 -3.546875 L 13.203125 -1.140625 C 11.984375 -0.179688 10.328125 0.296875 8.234375 0.296875 Z M 8.234375 0.296875 "/></g></g></g><g fill="#3871c1" fill-opacity="1"><g transform="translate(240.293018, 68.314197)"><g><path d="M 1.1875 -13.90625 L 10.609375 -13.90625 L 10.609375 -11.8125 L 3.71875 -11.8125 L 3.71875 -8 L 8.828125 -8 L 8.828125 -5.90625 L 3.71875 -5.90625 L 3.71875 -2.09375 L 10.609375 -2.09375 L 10.609375 0 L 1.1875 0 Z M 1.1875 -13.90625 "/></g></g></g></svg>