<svg xmlns="http://www.w3.org/2000/svg" xmlns:xlink="http://www.w3.org/1999/xlink" width="500" zoomAndPan="magnify" viewBox="0 0 375 374.999991" height="500" preserveAspectRatio="xMidYMid meet" version="1.0"><defs><g/><clipPath id="3e2fc64d30"><rect x="0" width="252" y="0" height="105"/></clipPath><clipPath id="99b4bc854b"><rect x="0" width="259" y="0" height="42"/></clipPath><clipPath id="47159e4545"><path d="M 196.164062 17.316406 L 304.164062 17.316406 L 304.164062 125.316406 L 196.164062 125.316406 Z M 196.164062 17.316406 " clip-rule="nonzero"/></clipPath><clipPath id="f36351e27c"><path d="M 196.164062 23.671875 L 291.492188 23.671875 L 291.492188 125.316406 L 196.164062 125.316406 Z M 196.164062 23.671875 " clip-rule="nonzero"/></clipPath><clipPath id="f342d5393f"><path d="M 226.210938 17.316406 L 299.902344 40.121094 L 215.886719 311.558594 L 142.199219 288.753906 Z M 226.210938 17.316406 " clip-rule="nonzero"/></clipPath><clipPath id="fd6feecf2e"><path d="M 204.28125 266.601562 L 199.441406 282.230469 L 183.496094 285.871094 L 172.398438 273.867188 L 177.238281 258.230469 L 193.171875 254.605469 Z M 271.765625 58.3125 C 269.117188 67.050781 259.625 71.785156 250.5625 68.980469 C 241.59375 66.207031 236.472656 56.886719 239.15625 48.21875 L 246.738281 23.722656 C 232.753906 25.96875 220.507812 35.746094 216.027344 50.222656 C 211.949219 63.40625 215.414062 77.042969 223.804688 86.832031 L 175.800781 241.933594 C 167.839844 245.445312 161.386719 252.132812 158.628906 261.039062 C 153.558594 277.417969 162.707031 294.851562 179.136719 299.933594 C 195.523438 305.007812 212.921875 295.789062 217.992188 279.414062 C 220.75 270.5 219.136719 261.316406 214.667969 253.964844 L 262.6875 98.8125 C 275.121094 95.519531 285.628906 86.210938 289.707031 73.027344 C 294.195312 58.550781 289.664062 43.585938 279.421875 33.785156 Z M 271.765625 58.3125 " clip-rule="nonzero"/></clipPath><clipPath id="37b7df2e4b"><path d="M 226.210938 17.316406 L 299.902344 40.121094 L 215.886719 311.558594 L 142.199219 288.753906 Z M 226.210938 17.316406 " clip-rule="nonzero"/></clipPath><clipPath id="e43b049057"><path d="M 204.28125 266.601562 L 199.441406 282.230469 L 183.496094 285.871094 L 172.398438 273.867188 L 177.238281 258.230469 L 193.171875 254.605469 Z M 271.765625 58.3125 C 269.117188 67.050781 259.625 71.785156 250.5625 68.980469 C 241.59375 66.207031 236.472656 56.886719 239.15625 48.21875 L 246.738281 23.722656 C 232.753906 25.96875 220.507812 35.746094 216.027344 50.222656 C 211.949219 63.40625 215.414062 77.042969 223.804688 86.832031 L 175.800781 241.933594 C 167.839844 245.445312 161.386719 252.132812 158.628906 261.039062 C 153.558594 277.417969 162.707031 294.851562 179.136719 299.933594 C 195.523438 305.007812 212.921875 295.789062 217.992188 279.414062 C 220.75 270.5 219.136719 261.316406 214.667969 253.964844 L 262.6875 98.8125 C 275.121094 95.519531 285.628906 86.210938 289.707031 73.027344 C 294.195312 58.550781 289.664062 43.585938 279.421875 33.785156 Z M 271.765625 58.3125 " clip-rule="nonzero"/></clipPath><clipPath id="d9555ae318"><path d="M 70.511719 17.316406 L 178.511719 17.316406 L 178.511719 125.316406 L 70.511719 125.316406 Z M 70.511719 17.316406 " clip-rule="nonzero"/></clipPath><clipPath id="58857dbdf5"><path d="M 94.285156 24.433594 L 178.511719 24.433594 L 178.511719 125.316406 L 94.285156 125.316406 Z M 94.285156 24.433594 " clip-rule="nonzero"/></clipPath><clipPath id="dda6d8254b"><path d="M 86.617188 37.617188 L 108.5 17.3125 L 195.984375 111.605469 L 174.101562 131.910156 Z M 86.617188 37.617188 " clip-rule="nonzero"/></clipPath><clipPath id="bedec080d6"><path d="M 192.378906 109.238281 L 151.304688 64.964844 C 150.082031 63.648438 148.210938 63.328125 146.65625 63.996094 L 143.429688 60.519531 C 144.835938 58.917969 144.851562 56.496094 143.375 54.902344 C 141.796875 53.207031 139.144531 53.105469 137.441406 54.679688 L 132.238281 59.515625 L 113.078125 38.867188 L 113.625 38.359375 L 110.007812 31.558594 L 100.765625 24.492188 L 94.886719 29.945312 L 94.355469 30.445312 L 100.710938 40.1875 L 107.222656 44.304688 L 107.753906 43.816406 L 107.765625 43.800781 L 126.925781 64.445312 L 121.714844 69.28125 C 120.019531 70.855469 119.914062 73.503906 121.492188 75.207031 C 122.96875 76.800781 125.390625 76.96875 127.078125 75.683594 L 130.3125 79.167969 C 129.527344 80.667969 129.710938 82.558594 130.929688 83.867188 L 172.003906 128.140625 C 173.550781 129.808594 176.15625 129.90625 177.820312 128.355469 L 192.160156 115.050781 C 193.828125 113.507812 193.925781 110.902344 192.378906 109.238281 " clip-rule="nonzero"/></clipPath><clipPath id="70f9be44f8"><path d="M 86.617188 37.617188 L 108.5 17.3125 L 195.984375 111.605469 L 174.101562 131.910156 Z M 86.617188 37.617188 " clip-rule="nonzero"/></clipPath><clipPath id="9441d799f9"><path d="M 192.378906 109.238281 L 151.304688 64.964844 C 150.082031 63.648438 148.210938 63.328125 146.65625 63.996094 L 143.429688 60.519531 C 144.835938 58.917969 144.851562 56.496094 143.375 54.902344 C 141.796875 53.207031 139.144531 53.105469 137.441406 54.679688 L 132.238281 59.515625 L 113.078125 38.867188 L 113.625 38.359375 L 110.007812 31.558594 L 100.765625 24.492188 L 94.886719 29.945312 L 94.355469 30.445312 L 100.710938 40.1875 L 107.222656 44.304688 L 107.753906 43.816406 L 107.765625 43.800781 L 126.925781 64.445312 L 121.714844 69.28125 C 120.019531 70.855469 119.914062 73.503906 121.492188 75.207031 C 122.96875 76.800781 125.390625 76.96875 127.078125 75.683594 L 130.3125 79.167969 C 129.527344 80.667969 129.710938 82.558594 130.929688 83.867188 L 172.003906 128.140625 C 173.550781 129.808594 176.15625 129.90625 177.820312 128.355469 L 192.160156 115.050781 C 193.828125 113.507812 193.925781 110.902344 192.378906 109.238281 " clip-rule="nonzero"/></clipPath><clipPath id="1de89adb55"><path d="M 93.941406 72.402344 L 153.453125 72.402344 L 153.453125 125.316406 L 93.941406 125.316406 Z M 93.941406 72.402344 " clip-rule="nonzero"/></clipPath><clipPath id="803d021ca7"><path d="M 89.324219 80.289062 L 102.429688 68.128906 L 154.820312 124.597656 L 141.714844 136.753906 Z M 89.324219 80.289062 " clip-rule="nonzero"/></clipPath><clipPath id="e8ff98109f"><path d="M 152.660156 123.175781 L 128.0625 96.664062 C 127.332031 95.875 126.210938 95.683594 125.277344 96.085938 L 123.347656 94 C 124.1875 93.042969 124.199219 91.59375 123.3125 90.636719 C 122.371094 89.625 120.78125 89.5625 119.761719 90.503906 L 116.644531 93.398438 L 105.171875 81.035156 L 105.5 80.730469 L 103.332031 76.660156 L 97.796875 72.425781 L 94.277344 75.691406 L 93.957031 75.992188 L 97.765625 81.824219 L 101.664062 84.292969 L 101.980469 84 L 101.988281 83.992188 L 113.460938 96.355469 L 110.34375 99.25 C 109.328125 100.191406 109.265625 101.78125 110.210938 102.800781 C 111.09375 103.753906 112.542969 103.855469 113.554688 103.082031 L 115.492188 105.167969 C 115.023438 106.070312 115.132812 107.199219 115.859375 107.984375 L 140.460938 134.496094 C 141.382812 135.496094 142.945312 135.554688 143.941406 134.628906 L 152.53125 126.660156 C 153.53125 125.734375 153.589844 124.175781 152.660156 123.175781 " clip-rule="nonzero"/></clipPath><clipPath id="c32fa4e196"><path d="M 89.324219 80.289062 L 102.429688 68.128906 L 154.820312 124.597656 L 141.714844 136.753906 Z M 89.324219 80.289062 " clip-rule="nonzero"/></clipPath><clipPath id="0d53a30d00"><path d="M 152.660156 123.175781 L 128.0625 96.664062 C 127.332031 95.875 126.210938 95.683594 125.277344 96.085938 L 123.347656 94 C 124.1875 93.042969 124.199219 91.59375 123.3125 90.636719 C 122.371094 89.625 120.78125 89.5625 119.761719 90.503906 L 116.644531 93.398438 L 105.171875 81.035156 L 105.5 80.730469 L 103.332031 76.660156 L 97.796875 72.425781 L 94.277344 75.691406 L 93.957031 75.992188 L 97.765625 81.824219 L 101.664062 84.292969 L 101.980469 84 L 101.988281 83.992188 L 113.460938 96.355469 L 110.34375 99.25 C 109.328125 100.191406 109.265625 101.78125 110.210938 102.800781 C 111.09375 103.753906 112.542969 103.855469 113.554688 103.082031 L 115.492188 105.167969 C 115.023438 106.070312 115.132812 107.199219 115.859375 107.984375 L 140.460938 134.496094 C 141.382812 135.496094 142.945312 135.554688 143.941406 134.628906 L 152.53125 126.660156 C 153.53125 125.734375 153.589844 124.175781 152.660156 123.175781 " clip-rule="nonzero"/></clipPath><clipPath id="4cdf20a7f7"><path d="M 196.164062 142.96875 L 304.164062 142.96875 L 304.164062 250.96875 L 196.164062 250.96875 Z M 196.164062 142.96875 " clip-rule="nonzero"/></clipPath><clipPath id="df4c71cc6b"><path d="M 196.164062 142.96875 L 267 142.96875 L 267 230.234375 L 196.164062 230.234375 Z M 196.164062 142.96875 " clip-rule="nonzero"/></clipPath><clipPath id="95e663145a"><path d="M 348.589844 72.90625 L 365.433594 299.945312 L 138.394531 316.789062 L 121.550781 89.746094 Z M 348.589844 72.90625 " clip-rule="nonzero"/></clipPath><clipPath id="94925af7a1"><path d="M 348.589844 72.90625 L 365.433594 299.945312 L 138.394531 316.789062 L 121.550781 89.746094 Z M 348.589844 72.90625 " clip-rule="nonzero"/></clipPath><clipPath id="1af23b4fdc"><path d="M 251.75 193.082031 L 301.574219 193.082031 L 301.574219 250.96875 L 251.75 250.96875 Z M 251.75 193.082031 " clip-rule="nonzero"/></clipPath><clipPath id="aaa8a43766"><path d="M 348.589844 72.90625 L 365.433594 299.945312 L 138.394531 316.789062 L 121.550781 89.746094 Z M 348.589844 72.90625 " clip-rule="nonzero"/></clipPath><clipPath id="d20517b121"><path d="M 348.589844 72.90625 L 365.433594 299.945312 L 138.394531 316.789062 L 121.550781 89.746094 Z M 348.589844 72.90625 " clip-rule="nonzero"/></clipPath><clipPath id="9e06119c13"><path d="M 70.511719 142.96875 L 178.511719 142.96875 L 178.511719 250.96875 L 70.511719 250.96875 Z M 70.511719 142.96875 " clip-rule="nonzero"/></clipPath><clipPath id="6136ed341e"><path d="M 74 161.691406 L 170.734375 161.691406 L 170.734375 250.96875 L 74 250.96875 Z M 74 161.691406 " clip-rule="nonzero"/></clipPath><clipPath id="0fae948053"><path d="M 94.664062 147.363281 L 172.230469 176.804688 L 121.398438 310.726562 L 43.832031 281.285156 Z M 94.664062 147.363281 " clip-rule="nonzero"/></clipPath><clipPath id="f69070bc56"><path d="M 170.296875 181.894531 C 171.480469 178.933594 168.488281 177.085938 165.460938 175.859375 C 162.429688 174.636719 157.097656 176.570312 151.390625 174.265625 C 145.6875 171.964844 146.683594 167.417969 139.296875 164.652344 C 131.914062 161.886719 125.109375 161.289062 114.089844 162.425781 C 103.070312 163.5625 83.503906 179.3125 83.503906 179.3125 C 79.570312 182.667969 81.953125 185.242188 85.617188 183.605469 C 87.902344 182.582031 99.425781 177.574219 99.425781 177.574219 C 110.386719 172.96875 113.492188 174.433594 117.046875 177.269531 C 120.714844 180.199219 120.0625 189.132812 120.0625 189.132812 C 120.0625 189.132812 120.386719 189.261719 120.964844 189.496094 L 109.601562 215.890625 C 108.738281 215.652344 107.464844 215.601562 106.640625 216.949219 C 105.296875 219.148438 98.902344 231.261719 96.230469 235.996094 C 93.5625 240.734375 88.003906 258.445312 88.003906 258.445312 L 86.128906 264.265625 C 84.261719 270.09375 78.753906 281.136719 75.574219 285.996094 C 72.398438 290.855469 74.820312 291.726562 77.25 293.359375 C 79.675781 294.996094 85 296.710938 89.324219 298.234375 C 93.644531 299.761719 96.734375 298.597656 97.300781 294.875 C 97.867188 291.15625 103.746094 275.328125 104.957031 272.308594 C 106.171875 269.285156 115.398438 250.097656 117.25 245.476562 C 119.105469 240.847656 122.242188 227.640625 123.148438 224.609375 C 123.59375 223.113281 122.714844 221.949219 121.703125 221.148438 L 131.972656 194.046875 C 132.027344 194.066406 132.078125 194.089844 132.136719 194.113281 C 132.152344 194.085938 132.171875 194.0625 132.191406 194.03125 C 132.277344 194.066406 132.359375 194.097656 132.445312 194.132812 C 135.785156 189.144531 139.230469 187.28125 142.246094 186.832031 C 145.5625 186.5 148.3125 187.863281 149.773438 188.457031 C 152.589844 189.597656 153.527344 193.914062 155.644531 194.765625 C 157.765625 195.617188 155.644531 194.765625 159.699219 196.402344 C 160.667969 196.796875 161.457031 196.855469 162.109375 196.730469 C 164.597656 196.667969 165.460938 193.929688 165.460938 193.929688 C 165.460938 193.929688 169.09375 184.859375 170.28125 181.902344 " clip-rule="nonzero"/></clipPath><clipPath id="be0aae96e7"><path d="M 94.664062 147.363281 L 172.230469 176.804688 L 121.398438 310.726562 L 43.832031 281.285156 Z M 94.664062 147.363281 " clip-rule="nonzero"/></clipPath><clipPath id="7df84fca1f"><path d="M 170.296875 181.894531 C 171.480469 178.933594 168.488281 177.085938 165.460938 175.859375 C 162.429688 174.636719 157.097656 176.570312 151.390625 174.265625 C 145.6875 171.964844 146.683594 167.417969 139.296875 164.652344 C 131.914062 161.886719 125.109375 161.289062 114.089844 162.425781 C 103.070312 163.5625 83.503906 179.3125 83.503906 179.3125 C 79.570312 182.667969 81.953125 185.242188 85.617188 183.605469 C 87.902344 182.582031 99.425781 177.574219 99.425781 177.574219 C 110.386719 172.96875 113.492188 174.433594 117.046875 177.269531 C 120.714844 180.199219 120.0625 189.132812 120.0625 189.132812 C 120.0625 189.132812 120.386719 189.261719 120.964844 189.496094 L 109.601562 215.890625 C 108.738281 215.652344 107.464844 215.601562 106.640625 216.949219 C 105.296875 219.148438 98.902344 231.261719 96.230469 235.996094 C 93.5625 240.734375 88.003906 258.445312 88.003906 258.445312 L 86.128906 264.265625 C 84.261719 270.09375 78.753906 281.136719 75.574219 285.996094 C 72.398438 290.855469 74.820312 291.726562 77.25 293.359375 C 79.675781 294.996094 85 296.710938 89.324219 298.234375 C 93.644531 299.761719 96.734375 298.597656 97.300781 294.875 C 97.867188 291.15625 103.746094 275.328125 104.957031 272.308594 C 106.171875 269.285156 115.398438 250.097656 117.25 245.476562 C 119.105469 240.847656 122.242188 227.640625 123.148438 224.609375 C 123.59375 223.113281 122.714844 221.949219 121.703125 221.148438 L 131.972656 194.046875 C 132.027344 194.066406 132.078125 194.089844 132.136719 194.113281 C 132.152344 194.085938 132.171875 194.0625 132.191406 194.03125 C 132.277344 194.066406 132.359375 194.097656 132.445312 194.132812 C 135.785156 189.144531 139.230469 187.28125 142.246094 186.832031 C 145.5625 186.5 148.3125 187.863281 149.773438 188.457031 C 152.589844 189.597656 153.527344 193.914062 155.644531 194.765625 C 157.765625 195.617188 155.644531 194.765625 159.699219 196.402344 C 160.667969 196.796875 161.457031 196.855469 162.109375 196.730469 C 164.597656 196.667969 165.460938 193.929688 165.460938 193.929688 C 165.460938 193.929688 169.09375 184.859375 170.28125 181.902344 " clip-rule="nonzero"/></clipPath></defs><rect x="-37.5" width="450" fill="#ffffff" y="-37.499999" height="449.999989" fill-opacity="1"/><rect x="-37.5" width="450" fill="#ffffff" y="-37.499999" height="449.999989" fill-opacity="1"/><g transform="matrix(1, 0, 0, 1, 61, 241)"><g clip-path="url(#3e2fc64d30)"><g fill="#f5af23" fill-opacity="1"><g transform="translate(1.511001, 75.041028)"><g><path d="M 8.75 1.015625 C 7.257812 1.015625 5.6875 0.867188 4.03125 0.578125 C 2.382812 0.285156 1.15625 -0.0859375 0.34375 -0.546875 L 0.34375 -11.125 C 1.019531 -10.800781 1.890625 -10.550781 2.953125 -10.375 C 4.015625 -10.195312 5.085938 -10.109375 6.171875 -10.109375 C 8.160156 -10.109375 9.5625 -10.523438 10.375 -11.359375 C 11.1875 -12.191406 11.59375 -13.582031 11.59375 -15.53125 L 11.59375 -47.40625 L 23.59375 -47.40625 L 23.59375 -14.171875 C 23.59375 -9.515625 22.328125 -5.816406 19.796875 -3.078125 C 17.265625 -0.347656 13.582031 1.015625 8.75 1.015625 Z M 8.75 1.015625 "/></g></g></g><g fill="#f5af23" fill-opacity="1"><g transform="translate(27.815701, 75.041028)"><g><path d="M 27.1875 1.015625 C 22.394531 1.015625 18.066406 -0.0195312 14.203125 -2.09375 C 10.335938 -4.175781 7.285156 -7.082031 5.046875 -10.8125 C 2.804688 -14.539062 1.6875 -18.828125 1.6875 -23.671875 C 1.6875 -28.503906 2.804688 -32.796875 5.046875 -36.546875 C 7.285156 -40.296875 10.335938 -43.210938 14.203125 -45.296875 C 18.066406 -47.378906 22.394531 -48.421875 27.1875 -48.421875 C 31.9375 -48.421875 36.242188 -47.378906 40.109375 -45.296875 C 43.972656 -43.210938 47.007812 -40.296875 49.21875 -36.546875 C 51.4375 -32.796875 52.546875 -28.503906 52.546875 -23.671875 C 52.546875 -18.828125 51.4375 -14.539062 49.21875 -10.8125 C 47.007812 -7.082031 43.972656 -4.175781 40.109375 -2.09375 C 36.242188 -0.0195312 31.9375 1.015625 27.1875 1.015625 Z M 27.1875 -10.234375 C 29.582031 -10.234375 31.773438 -10.773438 33.765625 -11.859375 C 35.753906 -12.953125 37.335938 -14.515625 38.515625 -16.546875 C 39.691406 -18.578125 40.28125 -20.953125 40.28125 -23.671875 C 40.28125 -26.378906 39.703125 -28.738281 38.546875 -30.75 C 37.398438 -32.757812 35.832031 -34.316406 33.84375 -35.421875 C 31.851562 -36.535156 29.632812 -37.09375 27.1875 -37.09375 C 24.707031 -37.09375 22.472656 -36.535156 20.484375 -35.421875 C 18.492188 -34.316406 16.921875 -32.757812 15.765625 -30.75 C 14.609375 -28.738281 14.03125 -26.378906 14.03125 -23.671875 C 14.03125 -20.953125 14.609375 -18.578125 15.765625 -16.546875 C 16.921875 -14.515625 18.503906 -12.953125 20.515625 -11.859375 C 22.523438 -10.773438 24.75 -10.234375 27.1875 -10.234375 Z M 27.1875 -10.234375 "/></g></g></g><g fill="#f5af23" fill-opacity="1"><g transform="translate(82.052202, 75.041028)"><g><path d="M 3.046875 -47.40625 L 27.0625 -47.40625 C 31.625 -47.40625 35.226562 -46.273438 37.875 -44.015625 C 40.519531 -41.753906 41.84375 -38.519531 41.84375 -34.3125 C 41.84375 -32.320312 41.390625 -30.46875 40.484375 -28.75 C 39.578125 -27.03125 38.289062 -25.675781 36.625 -24.6875 C 38.925781 -23.78125 40.617188 -22.476562 41.703125 -20.78125 C 42.785156 -19.082031 43.328125 -16.878906 43.328125 -14.171875 C 43.328125 -11.273438 42.648438 -8.753906 41.296875 -6.609375 C 39.941406 -4.460938 38.125 -2.820312 35.84375 -1.6875 C 33.5625 -0.5625 31.015625 0 28.203125 0 L 3.046875 0 Z M 24.40625 -28.609375 C 27.9375 -28.609375 29.703125 -30.257812 29.703125 -33.5625 C 29.703125 -35.414062 29.25 -36.691406 28.34375 -37.390625 C 27.4375 -38.097656 26.054688 -38.453125 24.203125 -38.453125 L 15.046875 -38.453125 L 15.046875 -28.609375 Z M 25.15625 -8.953125 C 27.1875 -8.953125 28.695312 -9.332031 29.6875 -10.09375 C 30.6875 -10.863281 31.1875 -12.222656 31.1875 -14.171875 C 31.1875 -16.117188 30.664062 -17.53125 29.625 -18.40625 C 28.59375 -19.289062 27.015625 -19.734375 24.890625 -19.734375 L 15.046875 -19.734375 L 15.046875 -8.953125 Z M 25.15625 -8.953125 "/></g></g></g><g fill="#179d2e" fill-opacity="1"><g transform="translate(127.07032, 75.041028)"><g><path d="M 8.75 1.015625 C 7.257812 1.015625 5.6875 0.867188 4.03125 0.578125 C 2.382812 0.285156 1.15625 -0.0859375 0.34375 -0.546875 L 0.34375 -11.125 C 1.019531 -10.800781 1.890625 -10.550781 2.953125 -10.375 C 4.015625 -10.195312 5.085938 -10.109375 6.171875 -10.109375 C 8.160156 -10.109375 9.5625 -10.523438 10.375 -11.359375 C 11.1875 -12.191406 11.59375 -13.582031 11.59375 -15.53125 L 11.59375 -47.40625 L 23.59375 -47.40625 L 23.59375 -14.171875 C 23.59375 -9.515625 22.328125 -5.816406 19.796875 -3.078125 C 17.265625 -0.347656 13.582031 1.015625 8.75 1.015625 Z M 8.75 1.015625 "/></g></g></g><g fill="#179d2e" fill-opacity="1"><g transform="translate(153.375019, 75.041028)"><g><path d="M 20.6875 -47.40625 L 32.484375 -47.40625 L 51.40625 0 L 39.125 0 L 35.328125 -9.765625 L 17.828125 -9.765625 L 14.03125 0 L 1.6875 0 Z M 32.34375 -18.984375 L 26.578125 -34.921875 L 20.75 -18.984375 Z M 32.34375 -18.984375 "/></g></g></g><g fill="#179d2e" fill-opacity="1"><g transform="translate(206.458988, 75.041028)"><g><path d="M 3.046875 -47.40625 L 27.0625 -47.40625 C 31.625 -47.40625 35.226562 -46.273438 37.875 -44.015625 C 40.519531 -41.753906 41.84375 -38.519531 41.84375 -34.3125 C 41.84375 -32.320312 41.390625 -30.46875 40.484375 -28.75 C 39.578125 -27.03125 38.289062 -25.675781 36.625 -24.6875 C 38.925781 -23.78125 40.617188 -22.476562 41.703125 -20.78125 C 42.785156 -19.082031 43.328125 -16.878906 43.328125 -14.171875 C 43.328125 -11.273438 42.648438 -8.753906 41.296875 -6.609375 C 39.941406 -4.460938 38.125 -2.820312 35.84375 -1.6875 C 33.5625 -0.5625 31.015625 0 28.203125 0 L 3.046875 0 Z M 24.40625 -28.609375 C 27.9375 -28.609375 29.703125 -30.257812 29.703125 -33.5625 C 29.703125 -35.414062 29.25 -36.691406 28.34375 -37.390625 C 27.4375 -38.097656 26.054688 -38.453125 24.203125 -38.453125 L 15.046875 -38.453125 L 15.046875 -28.609375 Z M 25.15625 -8.953125 C 27.1875 -8.953125 28.695312 -9.332031 29.6875 -10.09375 C 30.6875 -10.863281 31.1875 -12.222656 31.1875 -14.171875 C 31.1875 -16.117188 30.664062 -17.53125 29.625 -18.40625 C 28.59375 -19.289062 27.015625 -19.734375 24.890625 -19.734375 L 15.046875 -19.734375 L 15.046875 -8.953125 Z M 25.15625 -8.953125 "/></g></g></g></g></g><g transform="matrix(1, 0, 0, 1, 58, 320)"><g clip-path="url(#99b4bc854b)"><g fill="#0177b8" fill-opacity="1"><g transform="translate(0.994678, 29.199379)"><g><path d="M 1.640625 -19.1875 L 14.625 -19.1875 L 14.625 -16.28125 L 5.140625 -16.28125 L 5.140625 -10.90625 L 12.1875 -10.90625 L 12.1875 -8.296875 L 5.140625 -8.296875 L 5.140625 0 L 1.640625 0 Z M 1.640625 -19.1875 "/></g></g></g><g fill="#0177b8" fill-opacity="1"><g transform="translate(16.17382, 29.199379)"><g><path d="M 1.640625 -19.1875 L 5.140625 -19.1875 L 5.140625 0 L 1.640625 0 Z M 1.640625 -19.1875 "/></g></g></g><g fill="#0177b8" fill-opacity="1"><g transform="translate(22.953659, 29.199379)"><g><path d="M 1.640625 -19.1875 L 14.625 -19.1875 L 14.625 -16.3125 L 5.140625 -16.3125 L 5.140625 -11.03125 L 12.1875 -11.03125 L 12.1875 -8.15625 L 5.140625 -8.15625 L 5.140625 -2.875 L 14.625 -2.875 L 14.625 0 L 1.640625 0 Z M 1.640625 -19.1875 "/></g></g></g><g fill="#0177b8" fill-opacity="1"><g transform="translate(38.407282, 29.199379)"><g><path d="M 1.640625 -19.1875 L 5.140625 -19.1875 L 5.140625 -2.875 L 14.359375 -2.875 L 14.359375 0 L 1.640625 0 Z M 1.640625 -19.1875 "/></g></g></g><g fill="#0177b8" fill-opacity="1"><g transform="translate(53.31193, 29.199379)"><g><path d="M 1.640625 -19.1875 L 8.078125 -19.1875 C 10.160156 -19.1875 11.96875 -18.800781 13.5 -18.03125 C 15.039062 -17.269531 16.222656 -16.171875 17.046875 -14.734375 C 17.867188 -13.304688 18.28125 -11.625 18.28125 -9.6875 C 18.28125 -6.507812 17.351562 -4.097656 15.5 -2.453125 C 13.65625 -0.816406 11.078125 0 7.765625 0 L 1.640625 0 Z M 7.828125 -2.875 C 10.054688 -2.875 11.769531 -3.472656 12.96875 -4.671875 C 14.164062 -5.878906 14.765625 -7.550781 14.765625 -9.6875 C 14.765625 -10.988281 14.5 -12.132812 13.96875 -13.125 C 13.4375 -14.125 12.675781 -14.90625 11.6875 -15.46875 C 10.707031 -16.03125 9.539062 -16.3125 8.1875 -16.3125 L 5.140625 -16.3125 L 5.140625 -2.875 Z M 7.828125 -2.875 "/></g></g></g><g fill="#0177b8" fill-opacity="1"><g transform="translate(72.690724, 29.199379)"><g/></g></g><g fill="#0177b8" fill-opacity="1"><g transform="translate(82.572264, 29.199379)"><g><path d="M 7.1875 0.40625 C 6.050781 0.40625 4.929688 0.300781 3.828125 0.09375 C 2.722656 -0.113281 1.8125 -0.390625 1.09375 -0.734375 L 1.09375 -3.734375 C 2.007812 -3.296875 2.96875 -2.96875 3.96875 -2.75 C 4.976562 -2.53125 5.972656 -2.421875 6.953125 -2.421875 C 8.171875 -2.421875 9.097656 -2.644531 9.734375 -3.09375 C 10.378906 -3.550781 10.703125 -4.1875 10.703125 -5 C 10.703125 -5.5625 10.554688 -6.03125 10.265625 -6.40625 C 9.972656 -6.78125 9.539062 -7.109375 8.96875 -7.390625 C 8.40625 -7.679688 7.539062 -8.054688 6.375 -8.515625 C 4.570312 -9.242188 3.269531 -10.054688 2.46875 -10.953125 C 1.664062 -11.847656 1.265625 -12.960938 1.265625 -14.296875 C 1.265625 -15.347656 1.546875 -16.273438 2.109375 -17.078125 C 2.679688 -17.878906 3.476562 -18.5 4.5 -18.9375 C 5.53125 -19.382812 6.710938 -19.609375 8.046875 -19.609375 C 9.140625 -19.609375 10.113281 -19.519531 10.96875 -19.34375 C 11.820312 -19.164062 12.660156 -18.894531 13.484375 -18.53125 L 13.484375 -15.625 C 11.890625 -16.394531 10.273438 -16.78125 8.640625 -16.78125 C 7.472656 -16.78125 6.566406 -16.5625 5.921875 -16.125 C 5.285156 -15.695312 4.96875 -15.085938 4.96875 -14.296875 C 4.96875 -13.734375 5.113281 -13.269531 5.40625 -12.90625 C 5.695312 -12.550781 6.082031 -12.25 6.5625 -12 C 7.050781 -11.757812 7.929688 -11.375 9.203125 -10.84375 C 10.484375 -10.3125 11.492188 -9.789062 12.234375 -9.28125 C 12.972656 -8.769531 13.53125 -8.171875 13.90625 -7.484375 C 14.28125 -6.796875 14.46875 -5.957031 14.46875 -4.96875 C 14.46875 -3.269531 13.851562 -1.945312 12.625 -1 C 11.40625 -0.0625 9.59375 0.40625 7.1875 0.40625 Z M 7.1875 0.40625 "/></g></g></g><g fill="#0177b8" fill-opacity="1"><g transform="translate(98.135693, 29.199379)"><g><path d="M 1.640625 -19.1875 L 14.625 -19.1875 L 14.625 -16.3125 L 5.140625 -16.3125 L 5.140625 -11.03125 L 12.1875 -11.03125 L 12.1875 -8.15625 L 5.140625 -8.15625 L 5.140625 -2.875 L 14.625 -2.875 L 14.625 0 L 1.640625 0 Z M 1.640625 -19.1875 "/></g></g></g><g fill="#0177b8" fill-opacity="1"><g transform="translate(113.589316, 29.199379)"><g><path d="M 1.640625 -19.1875 L 9.65625 -19.1875 C 11.78125 -19.1875 13.421875 -18.664062 14.578125 -17.625 C 15.734375 -16.582031 16.3125 -15.070312 16.3125 -13.09375 C 16.3125 -11.6875 15.960938 -10.488281 15.265625 -9.5 C 14.566406 -8.507812 13.578125 -7.804688 12.296875 -7.390625 L 16.203125 0 L 12.625 0 L 8.921875 -7.03125 L 5.140625 -7.03125 L 5.140625 0 L 1.640625 0 Z M 9.03125 -9.90625 C 10.164062 -9.90625 11.082031 -10.171875 11.78125 -10.703125 C 12.476562 -11.234375 12.828125 -12.03125 12.828125 -13.09375 C 12.828125 -15.238281 11.5625 -16.3125 9.03125 -16.3125 L 5.140625 -16.3125 L 5.140625 -9.90625 Z M 9.03125 -9.90625 "/></g></g></g><g fill="#0177b8" fill-opacity="1"><g transform="translate(130.991808, 29.199379)"><g><path d="M 1.09375 -19.1875 L 4.796875 -19.1875 L 10.453125 -4.671875 L 16.140625 -19.1875 L 19.828125 -19.1875 L 12.15625 0 L 8.78125 0 Z M 1.09375 -19.1875 "/></g></g></g><g fill="#0177b8" fill-opacity="1"><g transform="translate(151.907735, 29.199379)"><g><path d="M 1.640625 -19.1875 L 5.140625 -19.1875 L 5.140625 0 L 1.640625 0 Z M 1.640625 -19.1875 "/></g></g></g><g fill="#0177b8" fill-opacity="1"><g transform="translate(158.687574, 29.199379)"><g><path d="M 11.359375 0.40625 C 9.347656 0.40625 7.5625 0 6 -0.8125 C 4.445312 -1.625 3.238281 -2.785156 2.375 -4.296875 C 1.519531 -5.804688 1.09375 -7.566406 1.09375 -9.578125 C 1.09375 -11.585938 1.519531 -13.347656 2.375 -14.859375 C 3.238281 -16.367188 4.445312 -17.535156 6 -18.359375 C 7.5625 -19.191406 9.347656 -19.609375 11.359375 -19.609375 C 14.015625 -19.609375 16.234375 -18.972656 18.015625 -17.703125 L 18.015625 -14.390625 C 16.421875 -15.742188 14.304688 -16.421875 11.671875 -16.421875 C 10.253906 -16.421875 9.015625 -16.140625 7.953125 -15.578125 C 6.898438 -15.023438 6.078125 -14.234375 5.484375 -13.203125 C 4.898438 -12.179688 4.609375 -10.972656 4.609375 -9.578125 C 4.609375 -8.191406 4.90625 -6.984375 5.5 -5.953125 C 6.09375 -4.929688 6.921875 -4.140625 7.984375 -3.578125 C 9.046875 -3.023438 10.273438 -2.75 11.671875 -2.75 C 13.023438 -2.75 14.234375 -2.914062 15.296875 -3.25 C 16.359375 -3.59375 17.335938 -4.140625 18.234375 -4.890625 L 18.234375 -1.5625 C 16.546875 -0.25 14.253906 0.40625 11.359375 0.40625 Z M 11.359375 0.40625 "/></g></g></g><g fill="#0177b8" fill-opacity="1"><g transform="translate(178.011472, 29.199379)"><g><path d="M 1.640625 -19.1875 L 14.625 -19.1875 L 14.625 -16.3125 L 5.140625 -16.3125 L 5.140625 -11.03125 L 12.1875 -11.03125 L 12.1875 -8.15625 L 5.140625 -8.15625 L 5.140625 -2.875 L 14.625 -2.875 L 14.625 0 L 1.640625 0 Z M 1.640625 -19.1875 "/></g></g></g><g fill="#0177b8" fill-opacity="1"><g transform="translate(193.465094, 29.199379)"><g/></g></g><g fill="#0177b8" fill-opacity="1"><g transform="translate(203.346635, 29.199379)"><g><path d="M 8.78125 -19.1875 L 12.15625 -19.1875 L 19.828125 0 L 16.28125 0 L 14.515625 -4.421875 L 6.390625 -4.421875 L 4.671875 0 L 1.09375 0 Z M 13.5625 -7.296875 L 10.453125 -15.453125 L 7.359375 -7.296875 Z M 13.5625 -7.296875 "/></g></g></g><g fill="#0177b8" fill-opacity="1"><g transform="translate(224.262562, 29.199379)"><g><path d="M 1.640625 -19.1875 L 9.328125 -19.1875 C 11.429688 -19.1875 13.117188 -18.628906 14.390625 -17.515625 C 15.671875 -16.398438 16.3125 -14.875 16.3125 -12.9375 C 16.3125 -10.914062 15.675781 -9.378906 14.40625 -8.328125 C 13.144531 -7.273438 11.445312 -6.75 9.3125 -6.75 L 5.140625 -6.75 L 5.140625 0 L 1.640625 0 Z M 8.890625 -9.640625 C 11.515625 -9.640625 12.828125 -10.738281 12.828125 -12.9375 C 12.828125 -15.1875 11.515625 -16.3125 8.890625 -16.3125 L 5.140625 -16.3125 L 5.140625 -9.640625 Z M 8.890625 -9.640625 "/></g></g></g><g fill="#0177b8" fill-opacity="1"><g transform="translate(241.116092, 29.199379)"><g><path d="M 1.640625 -19.1875 L 9.328125 -19.1875 C 11.429688 -19.1875 13.117188 -18.628906 14.390625 -17.515625 C 15.671875 -16.398438 16.3125 -14.875 16.3125 -12.9375 C 16.3125 -10.914062 15.675781 -9.378906 14.40625 -8.328125 C 13.144531 -7.273438 11.445312 -6.75 9.3125 -6.75 L 5.140625 -6.75 L 5.140625 0 L 1.640625 0 Z M 8.890625 -9.640625 C 11.515625 -9.640625 12.828125 -10.738281 12.828125 -12.9375 C 12.828125 -15.1875 11.515625 -16.3125 8.890625 -16.3125 L 5.140625 -16.3125 L 5.140625 -9.640625 Z M 8.890625 -9.640625 "/></g></g></g></g></g><g clip-path="url(#47159e4545)"><path fill="#ffffff" d="M 185.367188 6.515625 L 314.964844 6.515625 L 314.964844 136.113281 L 185.367188 136.113281 Z M 185.367188 6.515625 " fill-opacity="1" fill-rule="nonzero"/><path fill="#ffffff" d="M 185.367188 6.515625 L 314.964844 6.515625 L 314.964844 136.113281 L 185.367188 136.113281 Z M 185.367188 6.515625 " fill-opacity="1" fill-rule="nonzero"/><path fill="#0177b8" d="M 172.40625 -6.445312 L 327.925781 -6.445312 L 327.925781 149.074219 L 172.40625 149.074219 Z M 172.40625 -6.445312 " fill-opacity="1" fill-rule="nonzero"/></g><g clip-path="url(#f36351e27c)"><g clip-path="url(#f342d5393f)"><g clip-path="url(#fd6feecf2e)"><g clip-path="url(#37b7df2e4b)"><g clip-path="url(#e43b049057)"><path fill="#ffffff" d="M 226.210938 17.316406 L 299.902344 40.121094 L 215.976562 311.273438 L 142.289062 288.464844 Z M 226.210938 17.316406 " fill-opacity="1" fill-rule="nonzero"/></g></g></g></g></g><g clip-path="url(#d9555ae318)"><path fill="#ffffff" d="M 59.710938 6.515625 L 189.308594 6.515625 L 189.308594 136.113281 L 59.710938 136.113281 Z M 59.710938 6.515625 " fill-opacity="1" fill-rule="nonzero"/><path fill="#ffffff" d="M 59.710938 6.515625 L 189.308594 6.515625 L 189.308594 136.113281 L 59.710938 136.113281 Z M 59.710938 6.515625 " fill-opacity="1" fill-rule="nonzero"/><path fill="#179d2e" d="M 46.75 -6.445312 L 202.269531 -6.445312 L 202.269531 149.074219 L 46.75 149.074219 Z M 46.75 -6.445312 " fill-opacity="1" fill-rule="nonzero"/></g><g clip-path="url(#58857dbdf5)"><g clip-path="url(#dda6d8254b)"><g clip-path="url(#bedec080d6)"><g clip-path="url(#70f9be44f8)"><g clip-path="url(#9441d799f9)"><path fill="#ffffff" d="M 86.617188 37.617188 L 108.5 17.3125 L 195.90625 111.519531 L 174.019531 131.824219 Z M 86.617188 37.617188 " fill-opacity="1" fill-rule="nonzero"/></g></g></g></g></g><g clip-path="url(#1de89adb55)"><g clip-path="url(#803d021ca7)"><g clip-path="url(#e8ff98109f)"><g clip-path="url(#c32fa4e196)"><g clip-path="url(#0d53a30d00)"><path fill="#ffffff" d="M 89.324219 80.289062 L 102.429688 68.128906 L 154.773438 124.546875 L 141.667969 136.703125 Z M 89.324219 80.289062 " fill-opacity="1" fill-rule="nonzero"/></g></g></g></g></g><g clip-path="url(#4cdf20a7f7)"><path fill="#ffffff" d="M 185.367188 132.171875 L 314.964844 132.171875 L 314.964844 261.769531 L 185.367188 261.769531 Z M 185.367188 132.171875 " fill-opacity="1" fill-rule="nonzero"/><path fill="#ffffff" d="M 185.367188 132.171875 L 314.964844 132.171875 L 314.964844 261.769531 L 185.367188 261.769531 Z M 185.367188 132.171875 " fill-opacity="1" fill-rule="nonzero"/><path fill="#f02e2c" d="M 172.40625 119.210938 L 327.925781 119.210938 L 327.925781 274.730469 L 172.40625 274.730469 Z M 172.40625 119.210938 " fill-opacity="1" fill-rule="nonzero"/></g><g clip-path="url(#df4c71cc6b)"><g clip-path="url(#95e663145a)"><g clip-path="url(#94925af7a1)"><path fill="#ffffff" d="M 191.875 141.960938 C 191.0625 140.820312 191.328125 139.238281 192.46875 138.425781 C 193.609375 137.609375 195.191406 137.875 196.007812 139.015625 C 196.824219 140.15625 196.554688 141.738281 195.414062 142.554688 C 194.273438 143.367188 192.691406 143.105469 191.875 141.960938 Z M 249.207031 210.589844 C 249.175781 208.875 249.875 207.21875 251.125 206.042969 L 265.882812 192.117188 C 266.210938 191.808594 266.570312 191.542969 266.957031 191.328125 L 194.292969 131.765625 L 184.832031 137.34375 L 183.414062 140.746094 L 186.398438 140.664062 L 185.34375 143.457031 L 188.332031 143.375 L 187.28125 146.167969 L 190.265625 146.085938 L 189.214844 148.878906 L 192.199219 148.796875 L 191.148438 151.589844 L 194.132812 151.507812 L 193.082031 154.304688 L 196.066406 154.21875 L 195.015625 157.011719 L 198 156.929688 L 196.949219 159.726562 L 199.933594 159.640625 L 198.882812 162.433594 L 201.863281 162.351562 L 200.816406 165.148438 L 203.800781 165.0625 L 202.75 167.859375 L 205.734375 167.773438 L 204.683594 170.570312 L 207.667969 170.484375 L 206.617188 173.28125 L 209.601562 173.195312 L 208.550781 175.992188 L 211.535156 175.90625 L 210.484375 178.703125 L 213.46875 178.617188 L 212.417969 181.414062 L 215.402344 181.328125 L 214.351562 184.125 L 217.335938 184.039062 L 216.285156 186.835938 L 219.269531 186.75 L 218.21875 189.546875 L 221.203125 189.460938 L 220.152344 192.257812 L 223.136719 192.171875 L 222.085938 194.96875 L 225.070312 194.886719 L 224.019531 197.679688 L 227.003906 197.597656 L 225.953125 200.390625 L 228.9375 200.308594 L 227.886719 203.101562 L 230.871094 203.019531 L 229.820312 205.8125 L 232.804688 205.730469 L 231.753906 208.523438 L 234.738281 208.441406 L 233.6875 211.234375 L 236.671875 211.148438 L 235.621094 213.945312 L 238.605469 213.863281 L 237.554688 216.65625 L 240.539062 216.574219 L 239.488281 219.367188 L 242.472656 219.285156 L 241.421875 222.078125 L 244.40625 221.996094 L 243.355469 224.789062 L 246.339844 224.707031 L 245.289062 227.5 L 248.273438 227.417969 L 247.222656 230.210938 L 249.515625 230.148438 L 249.207031 210.589844 " fill-opacity="1" fill-rule="nonzero"/></g></g></g><g clip-path="url(#1af23b4fdc)"><g clip-path="url(#aaa8a43766)"><g clip-path="url(#d20517b121)"><path fill="#ffffff" d="M 265 240.265625 L 262.425781 238.246094 C 262 237.910156 261.648438 237.5 261.382812 237.039062 C 261 236.375 260.800781 235.605469 260.828125 234.816406 L 261.289062 219.613281 L 261.351562 217.640625 C 261.378906 216.667969 261.800781 215.746094 262.519531 215.085938 L 263.554688 214.132812 L 269.804688 208.390625 C 271.019531 207.273438 272.878906 207.257812 274.117188 208.355469 L 281.652344 215.050781 C 281.914062 215.285156 282.132812 215.558594 282.300781 215.847656 C 282.878906 216.851562 282.886719 218.121094 282.25 219.148438 L 269.679688 239.4375 C 268.675781 241.050781 266.492188 241.4375 265 240.265625 Z M 254.671875 230.425781 C 254.117188 229.453125 254.449219 228.21875 255.417969 227.660156 C 256.390625 227.101562 257.625 227.433594 258.1875 228.402344 C 258.742188 229.371094 258.410156 230.613281 257.441406 231.167969 C 256.46875 231.726562 255.230469 231.394531 254.671875 230.425781 Z M 255.441406 212.882812 C 254.886719 211.914062 255.21875 210.675781 256.1875 210.113281 C 257.160156 209.558594 258.394531 209.890625 258.953125 210.859375 C 259.511719 211.832031 259.179688 213.070312 258.210938 213.628906 C 257.238281 214.183594 256 213.851562 255.441406 212.882812 Z M 267.464844 201.285156 C 266.90625 200.316406 267.242188 199.078125 268.210938 198.519531 C 269.179688 197.960938 270.417969 198.292969 270.976562 199.261719 C 271.535156 200.234375 271.203125 201.472656 270.234375 202.03125 C 269.261719 202.585938 268.023438 202.257812 267.464844 201.285156 Z M 281.054688 258.015625 C 281.375 257.644531 281.5625 257.191406 281.609375 256.726562 C 281.660156 256.257812 281.570312 255.777344 281.332031 255.347656 L 280.421875 253.695312 C 279.910156 252.765625 279.96875 251.621094 280.578125 250.746094 C 283.144531 247.070312 290.109375 236.800781 295.011719 226.816406 C 295.695312 225.425781 296.808594 224.296875 298.1875 223.59375 L 300.289062 222.523438 C 300.628906 222.347656 300.921875 222.089844 301.140625 221.769531 C 301.640625 221.039062 301.664062 220.09375 301.230469 219.339844 C 301.179688 219.25 301.121094 219.164062 301.054688 219.078125 L 299.234375 216.726562 C 298.714844 216.054688 298.105469 215.460938 297.425781 214.953125 C 293.808594 212.257812 281.277344 202.796875 271.539062 193.992188 C 270.917969 193.429688 270.113281 193.191406 269.335938 193.273438 C 268.738281 193.339844 268.15625 193.589844 267.691406 194.03125 L 252.929688 207.957031 C 252.214844 208.628906 251.820312 209.570312 251.835938 210.546875 L 252.234375 235.4375 C 252.234375 235.476562 252.238281 235.519531 252.242188 235.558594 C 252.265625 235.945312 252.378906 236.320312 252.570312 236.648438 C 252.710938 236.898438 252.898438 237.121094 253.121094 237.3125 L 277.746094 258.273438 C 278.730469 259.113281 280.210938 258.996094 281.054688 258.015625 " fill-opacity="1" fill-rule="nonzero"/></g></g></g><g clip-path="url(#9e06119c13)"><path fill="#ffffff" d="M 59.710938 132.171875 L 189.308594 132.171875 L 189.308594 261.769531 L 59.710938 261.769531 Z M 59.710938 132.171875 " fill-opacity="1" fill-rule="nonzero"/><path fill="#ffffff" d="M 59.710938 132.171875 L 189.308594 132.171875 L 189.308594 261.769531 L 59.710938 261.769531 Z M 59.710938 132.171875 " fill-opacity="1" fill-rule="nonzero"/><path fill="#f5af23" d="M 46.75 119.210938 L 202.269531 119.210938 L 202.269531 274.730469 L 46.75 274.730469 Z M 46.75 119.210938 " fill-opacity="1" fill-rule="nonzero"/></g><g clip-path="url(#6136ed341e)"><g clip-path="url(#0fae948053)"><g clip-path="url(#f69070bc56)"><g clip-path="url(#be0aae96e7)"><g clip-path="url(#7df84fca1f)"><path fill="#ffffff" d="M 94.550781 147.667969 L 172.113281 177.109375 L 121.398438 310.726562 L 43.832031 281.285156 Z M 94.550781 147.667969 " fill-opacity="1" fill-rule="nonzero"/></g></g></g></g></g></svg>