<svg xmlns="http://www.w3.org/2000/svg" xmlns:xlink="http://www.w3.org/1999/xlink" width="500" zoomAndPan="magnify"
    viewBox="0 0 375 374.999991" height="500" preserveAspectRatio="xMidYMid meet" version="1.0">
    <defs>
        <clipPath id="6131fe1ebe">
            <path d="M 124 63 L 305.5 63 L 305.5 339.40625 L 124 339.40625 Z M 124 63 " clip-rule="nonzero" />
        </clipPath>
        <clipPath id="3209310140">
            <path d="M 71 35.65625 L 198 35.65625 L 198 133 L 71 133 Z M 71 35.65625 " clip-rule="nonzero" />
        </clipPath>
        <clipPath id="2517a21849">
            <path d="M 69.25 140 L 116 140 L 116 205 L 69.25 205 Z M 69.25 140 " clip-rule="nonzero" />
        </clipPath>
    </defs>
    <g clip-path="url(#6131fe1ebe)">
        <path fill="#51ade5"
            d="M 240.03125 66.492188 C 233.089844 64.707031 225.8125 63.765625 218.320312 63.765625 L 207.738281 63.765625 L 207.742188 116.664062 L 218.320312 116.667969 C 227.871094 116.664062 236.523438 120.585938 242.753906 126.90625 C 248.875 133.125 252.660156 141.652344 252.660156 151.050781 C 252.660156 160.449219 248.875 168.980469 242.753906 175.191406 C 236.523438 181.515625 227.871094 185.441406 218.320312 185.433594 L 134.488281 185.4375 L 134.488281 320.113281 L 134.15625 320.113281 C 128.867188 320.113281 124.578125 324.402344 124.578125 329.699219 C 124.578125 334.996094 128.867188 339.289062 134.15625 339.289062 L 187.652344 339.289062 C 192.941406 339.289062 197.230469 334.996094 197.230469 329.699219 C 197.230469 324.402344 192.941406 320.113281 187.652344 320.113281 L 187.320312 320.113281 L 187.320312 238.339844 L 218.320312 238.339844 C 226.804688 238.339844 235.003906 237.125 242.753906 234.859375 C 279.007812 224.285156 305.496094 190.769531 305.496094 151.050781 C 305.496094 110.339844 277.675781 76.152344 240.03125 66.492188 "
            fill-opacity="1" fill-rule="nonzero" />
    </g>
    <g clip-path="url(#3209310140)">
        <path fill="#3871c1"
            d="M 115.054688 127.871094 C 115.054688 125.375 113.03125 123.351562 110.539062 123.351562 L 109.933594 123.351562 C 112.003906 113.828125 120.464844 106.695312 130.597656 106.695312 L 134.480469 106.695312 C 138.742188 111.070312 144.6875 113.785156 151.269531 113.785156 L 162.496094 113.785156 C 169.078125 113.785156 175.023438 111.070312 179.285156 106.695312 L 195.824219 106.695312 L 195.824219 73.628906 L 178.988281 73.628906 C 174.753906 69.429688 168.929688 66.835938 162.496094 66.835938 L 160.515625 66.835938 L 160.515625 54.917969 C 162.898438 53.972656 164.828125 52.132812 165.890625 49.808594 C 174.773438 52.597656 183.855469 55.609375 187.265625 55.609375 C 192.734375 55.609375 197.171875 51.171875 197.171875 45.691406 C 197.171875 40.210938 192.734375 35.773438 187.265625 35.773438 C 183.855469 35.773438 174.773438 38.785156 165.890625 41.574219 C 164.324219 38.152344 160.886719 35.773438 156.882812 35.773438 C 152.878906 35.773438 149.441406 38.152344 147.878906 41.574219 C 138.996094 38.785156 129.910156 35.773438 126.5 35.773438 C 121.03125 35.773438 116.59375 40.210938 116.59375 45.691406 C 116.59375 51.171875 121.03125 55.609375 126.5 55.609375 C 129.910156 55.609375 138.996094 52.597656 147.878906 49.808594 C 148.9375 52.132812 150.867188 53.972656 153.25 54.917969 L 153.25 66.835938 L 151.269531 66.835938 C 144.839844 66.835938 139.015625 69.429688 134.777344 73.628906 L 130.597656 73.628906 C 102.246094 73.628906 78.929688 95.550781 76.625 123.351562 L 75.976562 123.351562 C 73.484375 123.351562 71.464844 125.375 71.464844 127.871094 C 71.464844 130.367188 73.484375 132.390625 75.976562 132.390625 L 110.539062 132.390625 C 113.03125 132.390625 115.054688 130.367188 115.054688 127.871094 "
            fill-opacity="1" fill-rule="nonzero" />
    </g>
    <g clip-path="url(#2517a21849)">
        <path fill="#51ade5"
            d="M 97.117188 201.527344 C 101.828125 198.230469 105.320312 193.1875 106.523438 187.101562 C 108.53125 176.9375 102.527344 159.996094 97.355469 150.320312 C 103.664062 159.089844 110.414062 171.730469 110.414062 180.617188 C 110.414062 189.871094 104.972656 197.851562 97.117188 201.527344 Z M 92.296875 140.796875 C 88.292969 140.796875 69.253906 166.304688 69.253906 181.222656 C 69.253906 193.96875 79.570312 204.296875 92.296875 204.296875 C 105.023438 204.296875 115.339844 193.96875 115.339844 181.222656 C 115.339844 166.304688 96.300781 140.796875 92.296875 140.796875 "
            fill-opacity="1" fill-rule="nonzero" />
    </g>
</svg>