<svg xmlns="http://www.w3.org/2000/svg" xmlns:xlink="http://www.w3.org/1999/xlink" width="364" zoomAndPan="magnify" viewBox="0 0 273 91.5" height="122" preserveAspectRatio="xMidYMid meet" version="1.0"><defs><g/><clipPath id="50ca99d1fc"><path d="M 3 0 L 270 0 L 270 91.003906 L 3 91.003906 Z M 3 0 " clip-rule="nonzero"/></clipPath><clipPath id="36ca2fa922"><rect x="0" width="267" y="0" height="92"/></clipPath></defs><g clip-path="url(#50ca99d1fc)"><g transform="matrix(1, 0, 0, 1, 3, 0.000000000000004566)"><g clip-path="url(#36ca2fa922)"><g fill="#3871c1" fill-opacity="1"><g transform="translate(102.783956, 73.050033)"><g><path d="M 55.921875 -50.609375 C 55.921875 -50.117188 55.78125 -49.320312 55.5 -48.21875 C 55.226562 -47.125 54.941406 -45.90625 54.640625 -44.5625 C 54.296875 -43.070312 54.035156 -41.726562 53.859375 -40.53125 C 53.691406 -39.34375 53.457031 -37.976562 53.15625 -36.4375 C 52.800781 -34.539062 52.4375 -32.84375 52.0625 -31.34375 C 51.695312 -29.851562 51.238281 -28.164062 50.6875 -26.28125 C 50.34375 -25.132812 50.046875 -24.085938 49.796875 -23.140625 C 49.546875 -22.191406 49.296875 -21.148438 49.046875 -20.015625 C 48.847656 -19.109375 48.695312 -18.296875 48.59375 -17.578125 C 48.5 -16.859375 48.351562 -16.050781 48.15625 -15.15625 C 47.90625 -14.0625 47.640625 -13.085938 47.359375 -12.234375 C 47.085938 -11.390625 46.828125 -10.421875 46.578125 -9.328125 C 46.378906 -8.378906 46.179688 -7.507812 45.984375 -6.71875 C 45.785156 -5.925781 45.535156 -5.03125 45.234375 -4.03125 C 44.992188 -3.238281 44.734375 -2.503906 44.453125 -1.828125 C 44.179688 -1.160156 43.894531 -0.703125 43.59375 -0.453125 C 43.25 -0.148438 42.898438 0.0234375 42.546875 0.078125 C 42.203125 0.128906 41.832031 0.15625 41.4375 0.15625 C 40.4375 0.15625 39.550781 0.128906 38.78125 0.078125 C 38.007812 0.0234375 37.128906 0 36.140625 0 C 35.585938 0 35.070312 0.0234375 34.59375 0.078125 C 34.125 0.128906 33.617188 0.15625 33.078125 0.15625 C 32.578125 0.15625 32.203125 0.0546875 31.953125 -0.140625 C 31.703125 -0.347656 31.476562 -0.578125 31.28125 -0.828125 C 31.226562 -0.867188 31.175781 -0.976562 31.125 -1.15625 C 31.082031 -1.332031 31.0625 -1.421875 31.0625 -1.421875 C 31.0625 -1.421875 30.972656 -1.769531 30.796875 -2.46875 C 30.617188 -3.164062 30.441406 -3.960938 30.265625 -4.859375 C 30.097656 -5.753906 29.9375 -6.546875 29.78125 -7.234375 C 29.632812 -7.929688 29.5625 -8.28125 29.5625 -8.28125 C 29.414062 -8.925781 29.300781 -9.5 29.21875 -10 C 29.144531 -10.5 29.035156 -11.046875 28.890625 -11.640625 C 28.835938 -11.742188 28.710938 -12.164062 28.515625 -12.90625 C 28.316406 -13.65625 28.046875 -14.054688 27.703125 -14.109375 C 27.203125 -14.210938 26.8125 -13.765625 26.53125 -12.765625 C 26.257812 -11.765625 26 -10.84375 25.75 -10 C 25.40625 -8.90625 25.109375 -7.910156 24.859375 -7.015625 C 24.609375 -6.117188 24.3125 -5.097656 23.96875 -3.953125 C 23.8125 -3.453125 23.644531 -2.878906 23.46875 -2.234375 C 23.300781 -1.585938 23.191406 -1.238281 23.140625 -1.1875 C 22.992188 -0.988281 22.921875 -0.863281 22.921875 -0.8125 C 22.921875 -0.769531 22.796875 -0.625 22.546875 -0.375 C 22.242188 -0.0703125 21.742188 0.078125 21.046875 0.078125 C 20.253906 0.078125 19.554688 0.0625 18.953125 0.03125 C 18.359375 0.0078125 17.691406 0 16.953125 0 C 16.453125 0 15.925781 0.0078125 15.375 0.03125 C 14.832031 0.0625 14.285156 0.078125 13.734375 0.078125 C 13.085938 0.078125 12.578125 0.015625 12.203125 -0.109375 C 11.828125 -0.234375 11.46875 -0.472656 11.125 -0.828125 C 10.675781 -1.273438 10.300781 -2.378906 10 -4.140625 C 9.707031 -5.910156 9.382812 -7.664062 9.03125 -9.40625 C 8.632812 -11.75 8.148438 -13.835938 7.578125 -15.671875 C 7.003906 -17.515625 6.441406 -19.582031 5.890625 -21.875 C 5.546875 -23.269531 5.296875 -24.515625 5.140625 -25.609375 C 4.992188 -26.703125 4.75 -27.921875 4.40625 -29.265625 C 4.101562 -30.410156 3.800781 -31.441406 3.5 -32.359375 C 3.207031 -33.285156 2.9375 -34.296875 2.6875 -35.390625 C 2.632812 -35.585938 2.519531 -36.179688 2.34375 -37.171875 C 2.175781 -38.171875 1.96875 -39.367188 1.71875 -40.765625 C 1.46875 -42.160156 1.21875 -43.539062 0.96875 -44.90625 C 0.71875 -46.269531 0.519531 -47.445312 0.375 -48.4375 C 0.226562 -49.4375 0.15625 -50.039062 0.15625 -50.25 C 0.15625 -51.289062 0.335938 -51.984375 0.703125 -52.328125 C 1.078125 -52.679688 1.5 -52.867188 1.96875 -52.890625 C 2.445312 -52.921875 2.859375 -52.9375 3.203125 -52.9375 C 4.097656 -52.9375 4.921875 -52.894531 5.671875 -52.8125 C 6.421875 -52.738281 7.242188 -52.703125 8.140625 -52.703125 C 8.679688 -52.703125 9.148438 -52.726562 9.546875 -52.78125 C 9.953125 -52.832031 10.40625 -52.859375 10.90625 -52.859375 C 11.894531 -52.859375 12.597656 -52.535156 13.015625 -51.890625 C 13.441406 -51.242188 13.726562 -50.507812 13.875 -49.6875 C 14.03125 -48.863281 14.132812 -48.175781 14.1875 -47.625 C 14.28125 -46.976562 14.375 -46.394531 14.46875 -45.875 C 14.570312 -45.351562 14.675781 -44.742188 14.78125 -44.046875 C 15.226562 -41.703125 15.722656 -39.609375 16.265625 -37.765625 C 16.816406 -35.929688 17.367188 -33.84375 17.921875 -31.5 C 18.117188 -30.757812 18.316406 -29.898438 18.515625 -28.921875 C 18.710938 -27.953125 18.882812 -27.09375 19.03125 -26.34375 C 19.1875 -25.601562 19.265625 -25.207031 19.265625 -25.15625 C 19.410156 -24.957031 19.535156 -24.859375 19.640625 -24.859375 C 20.035156 -24.859375 20.234375 -25.003906 20.234375 -25.296875 C 20.234375 -25.597656 20.28125 -25.925781 20.375 -26.28125 C 20.476562 -26.53125 20.601562 -26.960938 20.75 -27.578125 C 20.90625 -28.203125 21.003906 -28.613281 21.046875 -28.8125 C 21.296875 -29.957031 21.546875 -30.988281 21.796875 -31.90625 C 22.046875 -32.832031 22.320312 -33.84375 22.625 -34.9375 C 22.375 -35.882812 22.125 -36.828125 21.875 -37.765625 C 21.625 -38.710938 21.398438 -39.660156 21.203125 -40.609375 C 21.003906 -41.609375 20.84375 -42.503906 20.71875 -43.296875 C 20.59375 -44.097656 20.40625 -44.992188 20.15625 -45.984375 C 20.007812 -46.679688 19.835938 -47.425781 19.640625 -48.21875 C 19.441406 -49.019531 19.34375 -49.769531 19.34375 -50.46875 C 19.34375 -51.414062 19.578125 -52.050781 20.046875 -52.375 C 20.515625 -52.695312 21.007812 -52.859375 21.53125 -52.859375 C 22.0625 -52.859375 22.375 -52.859375 22.46875 -52.859375 C 23.3125 -52.859375 24.066406 -52.816406 24.734375 -52.734375 C 25.410156 -52.660156 26.148438 -52.625 26.953125 -52.625 C 27.648438 -52.625 28.234375 -52.648438 28.703125 -52.703125 C 29.179688 -52.753906 29.742188 -52.78125 30.390625 -52.78125 C 31.878906 -52.78125 32.707031 -52.378906 32.875 -51.578125 C 33.050781 -50.785156 33.21875 -49.519531 33.375 -47.78125 C 33.425781 -47.132812 33.488281 -46.523438 33.5625 -45.953125 C 33.632812 -45.378906 33.71875 -44.742188 33.8125 -44.046875 C 34.21875 -41.304688 34.65625 -38.863281 35.125 -36.71875 C 35.59375 -34.582031 35.929688 -32.125 36.140625 -29.34375 C 36.179688 -28.695312 36.238281 -27.988281 36.3125 -27.21875 C 36.394531 -26.445312 36.5 -25.773438 36.625 -25.203125 C 36.75 -24.628906 36.929688 -24.34375 37.171875 -24.34375 C 37.421875 -24.34375 37.617188 -24.640625 37.765625 -25.234375 C 37.921875 -25.828125 38.035156 -26.519531 38.109375 -27.3125 C 38.179688 -28.113281 38.269531 -28.816406 38.375 -29.421875 C 38.570312 -30.554688 38.78125 -31.570312 39 -32.46875 C 39.226562 -33.363281 39.441406 -34.363281 39.640625 -35.46875 C 39.785156 -36.5625 39.894531 -37.554688 39.96875 -38.453125 C 40.050781 -39.347656 40.191406 -40.34375 40.390625 -41.4375 C 40.535156 -42.28125 40.695312 -43.050781 40.875 -43.75 C 41.050781 -44.445312 41.1875 -45.242188 41.28125 -46.140625 C 41.28125 -46.191406 41.304688 -46.601562 41.359375 -47.375 C 41.410156 -48.144531 41.457031 -48.898438 41.5 -49.640625 C 41.550781 -50.390625 41.578125 -50.789062 41.578125 -50.84375 C 41.578125 -50.9375 41.613281 -51.132812 41.6875 -51.4375 C 41.769531 -51.738281 41.9375 -52.015625 42.1875 -52.265625 C 42.53125 -52.609375 42.863281 -52.804688 43.1875 -52.859375 C 43.507812 -52.910156 43.992188 -52.9375 44.640625 -52.9375 C 45.390625 -52.9375 46.0625 -52.894531 46.65625 -52.8125 C 47.257812 -52.738281 47.929688 -52.675781 48.671875 -52.625 C 49.316406 -52.625 49.890625 -52.648438 50.390625 -52.703125 C 50.890625 -52.753906 51.4375 -52.78125 52.03125 -52.78125 C 52.476562 -52.78125 53.015625 -52.765625 53.640625 -52.734375 C 54.265625 -52.710938 54.800781 -52.550781 55.25 -52.25 C 55.695312 -51.957031 55.921875 -51.410156 55.921875 -50.609375 Z M 55.921875 -50.609375 "/></g></g></g><g fill="#3871c1" fill-opacity="1"><g transform="translate(156.612236, 73.050033)"><g><path d="M 37.109375 -2.984375 C 37.109375 -2.984375 37.054688 -2.734375 36.953125 -2.234375 C 36.859375 -1.742188 36.632812 -1.25 36.28125 -0.75 C 35.9375 -0.25 35.390625 0 34.640625 0 C 33.742188 0 32.929688 -0.0351562 32.203125 -0.109375 C 31.484375 -0.179688 30.675781 -0.21875 29.78125 -0.21875 C 29.039062 -0.21875 28.367188 -0.191406 27.765625 -0.140625 C 27.171875 -0.0976562 26.5 -0.078125 25.75 -0.078125 C 24.851562 -0.078125 24.242188 -0.25 23.921875 -0.59375 C 23.597656 -0.945312 23.425781 -1.347656 23.40625 -1.796875 C 23.382812 -2.242188 23.347656 -2.59375 23.296875 -2.84375 C 23.296875 -3.082031 23.253906 -3.597656 23.171875 -4.390625 C 23.097656 -5.191406 23.007812 -6.003906 22.90625 -6.828125 C 22.8125 -7.648438 22.640625 -8.160156 22.390625 -8.359375 C 22.191406 -8.554688 22.101562 -8.640625 22.125 -8.609375 C 22.15625 -8.585938 22.046875 -8.65625 21.796875 -8.8125 C 21.742188 -8.863281 21.15625 -8.898438 20.03125 -8.921875 C 18.914062 -8.941406 17.9375 -8.953125 17.09375 -8.953125 C 15.695312 -8.953125 14.898438 -8.765625 14.703125 -8.390625 C 14.503906 -8.023438 14.332031 -7.414062 14.1875 -6.5625 C 14.1875 -6.363281 14.160156 -5.851562 14.109375 -5.03125 C 14.054688 -4.21875 13.976562 -3.410156 13.875 -2.609375 C 13.78125 -1.816406 13.660156 -1.296875 13.515625 -1.046875 C 13.265625 -0.691406 12.988281 -0.441406 12.6875 -0.296875 C 12.394531 -0.148438 11.945312 -0.078125 11.34375 -0.078125 C 10.644531 -0.078125 10.007812 -0.0859375 9.4375 -0.109375 C 8.863281 -0.140625 8.234375 -0.15625 7.546875 -0.15625 C 6.796875 -0.15625 6.046875 -0.140625 5.296875 -0.109375 C 4.554688 -0.0859375 3.8125 -0.078125 3.0625 -0.078125 C 2.414062 -0.078125 1.78125 -0.1875 1.15625 -0.40625 C 0.53125 -0.632812 0.21875 -1.242188 0.21875 -2.234375 C 0.21875 -2.535156 0.28125 -3.007812 0.40625 -3.65625 C 0.53125 -4.300781 0.671875 -5.023438 0.828125 -5.828125 C 0.972656 -6.816406 1.082031 -7.6875 1.15625 -8.4375 C 1.226562 -9.1875 1.363281 -10.03125 1.5625 -10.96875 C 1.71875 -11.820312 1.867188 -12.59375 2.015625 -13.28125 C 2.160156 -13.976562 2.3125 -14.753906 2.46875 -15.609375 C 2.71875 -16.847656 2.890625 -17.953125 2.984375 -18.921875 C 3.085938 -19.890625 3.238281 -21 3.4375 -22.25 C 3.632812 -23.488281 3.832031 -24.582031 4.03125 -25.53125 C 4.226562 -26.476562 4.398438 -27.570312 4.546875 -28.8125 C 4.648438 -29.664062 4.738281 -30.453125 4.8125 -31.171875 C 4.882812 -31.890625 5 -32.695312 5.15625 -33.59375 C 5.351562 -34.59375 5.550781 -35.515625 5.75 -36.359375 C 5.945312 -37.203125 6.144531 -38.125 6.34375 -39.125 C 6.644531 -40.71875 6.859375 -42.132812 6.984375 -43.375 C 7.109375 -44.613281 7.34375 -46.007812 7.6875 -47.5625 C 7.9375 -48.550781 8.195312 -49.46875 8.46875 -50.3125 C 8.75 -51.164062 9.0625 -51.765625 9.40625 -52.109375 C 10.101562 -52.660156 11.195312 -52.9375 12.6875 -52.9375 C 13.976562 -52.9375 15.132812 -52.882812 16.15625 -52.78125 C 17.175781 -52.675781 18.3125 -52.625 19.5625 -52.625 C 20.507812 -52.625 21.453125 -52.632812 22.390625 -52.65625 C 23.335938 -52.6875 24.285156 -52.703125 25.234375 -52.703125 L 25.53125 -52.703125 C 26.53125 -52.703125 27.238281 -52.601562 27.65625 -52.40625 C 28.082031 -52.207031 28.46875 -51.785156 28.8125 -51.140625 C 28.914062 -51.085938 28.988281 -50.945312 29.03125 -50.71875 C 29.082031 -50.5 29.132812 -50.34375 29.1875 -50.25 C 29.1875 -50.25 29.25 -49.882812 29.375 -49.15625 C 29.5 -48.4375 29.660156 -47.628906 29.859375 -46.734375 C 30.054688 -45.835938 30.21875 -45.023438 30.34375 -44.296875 C 30.46875 -43.578125 30.53125 -43.21875 30.53125 -43.21875 C 30.726562 -42.03125 30.875 -40.945312 30.96875 -39.96875 C 31.070312 -39 31.226562 -37.921875 31.4375 -36.734375 C 31.675781 -35.285156 31.90625 -33.976562 32.125 -32.8125 C 32.351562 -31.644531 32.617188 -30.335938 32.921875 -28.890625 C 33.171875 -27.742188 33.394531 -26.6875 33.59375 -25.71875 C 33.789062 -24.75 33.96875 -23.691406 34.125 -22.546875 C 34.363281 -21.003906 34.519531 -19.625 34.59375 -18.40625 C 34.675781 -17.1875 34.816406 -15.804688 35.015625 -14.265625 C 35.265625 -12.765625 35.550781 -11.207031 35.875 -9.59375 C 36.195312 -7.976562 36.484375 -6.5625 36.734375 -5.34375 C 36.984375 -4.125 37.109375 -3.335938 37.109375 -2.984375 Z M 21.046875 -24.34375 C 21.046875 -25.6875 20.957031 -27.015625 20.78125 -28.328125 C 20.613281 -29.648438 20.441406 -30.804688 20.265625 -31.796875 C 20.097656 -32.796875 19.988281 -33.46875 19.9375 -33.8125 C 19.882812 -34.414062 19.820312 -35.039062 19.75 -35.6875 C 19.675781 -36.332031 19.585938 -36.707031 19.484375 -36.8125 C 19.335938 -37.351562 19.085938 -37.625 18.734375 -37.625 C 18.441406 -37.625 18.242188 -37.375 18.140625 -36.875 C 18.085938 -36.78125 18.007812 -36.492188 17.90625 -36.015625 C 17.8125 -35.546875 17.726562 -35.085938 17.65625 -34.640625 C 17.582031 -34.191406 17.519531 -33.894531 17.46875 -33.75 C 17.363281 -33.300781 17.257812 -32.890625 17.15625 -32.515625 C 17.0625 -32.140625 16.96875 -31.726562 16.875 -31.28125 C 16.875 -31.132812 16.820312 -30.710938 16.71875 -30.015625 C 16.625 -29.316406 16.515625 -28.539062 16.390625 -27.6875 C 16.265625 -26.84375 16.148438 -26.082031 16.046875 -25.40625 C 15.953125 -24.738281 15.90625 -24.332031 15.90625 -24.1875 C 15.90625 -23.039062 16.140625 -22.332031 16.609375 -22.0625 C 17.078125 -21.789062 17.613281 -21.65625 18.21875 -21.65625 C 18.71875 -21.65625 19.3125 -21.765625 20 -21.984375 C 20.695312 -22.210938 21.046875 -23 21.046875 -24.34375 Z M 21.046875 -24.34375 "/></g></g></g><g fill="#3871c1" fill-opacity="1"><g transform="translate(194.687828, 73.050033)"><g><path d="M 30.390625 -15.609375 C 30.390625 -12.316406 30.085938 -9.75 29.484375 -7.90625 C 28.890625 -6.070312 27.671875 -4.40625 25.828125 -2.90625 C 25.035156 -2.257812 24.175781 -1.695312 23.25 -1.21875 C 22.332031 -0.75 21.476562 -0.394531 20.6875 -0.15625 C 19.9375 0.0507812 19 0.226562 17.875 0.375 C 16.757812 0.519531 15.640625 0.617188 14.515625 0.671875 C 13.398438 0.722656 12.46875 0.75 11.71875 0.75 C 11.269531 0.75 10.582031 0.722656 9.65625 0.671875 C 8.738281 0.617188 7.742188 0.503906 6.671875 0.328125 C 5.609375 0.160156 4.613281 -0.0703125 3.6875 -0.375 C 2.769531 -0.675781 2.113281 -1.070312 1.71875 -1.5625 C 1.363281 -2.007812 1.1875 -2.632812 1.1875 -3.4375 C 1.1875 -4.28125 1.210938 -5.023438 1.265625 -5.671875 C 1.316406 -6.316406 1.34375 -7.039062 1.34375 -7.84375 C 1.34375 -8.488281 1.316406 -9.046875 1.265625 -9.515625 C 1.210938 -9.992188 1.1875 -10.554688 1.1875 -11.203125 C 1.1875 -11.453125 1.222656 -11.875 1.296875 -12.46875 C 1.378906 -13.0625 1.628906 -13.609375 2.046875 -14.109375 C 2.472656 -14.609375 3.207031 -14.832031 4.25 -14.78125 C 4.945312 -14.726562 5.445312 -14.628906 5.75 -14.484375 C 6.050781 -14.335938 6.398438 -14.140625 6.796875 -13.890625 C 6.890625 -13.835938 6.960938 -13.773438 7.015625 -13.703125 C 7.066406 -13.628906 7.140625 -13.539062 7.234375 -13.4375 C 7.441406 -13.332031 7.601562 -13.207031 7.71875 -13.0625 C 7.84375 -12.914062 8.007812 -12.789062 8.21875 -12.6875 C 8.707031 -12.394531 9.300781 -12.195312 10 -12.09375 C 10.695312 -11.988281 11.296875 -11.9375 11.796875 -11.9375 C 14.535156 -11.9375 15.976562 -12.757812 16.125 -14.40625 C 16.226562 -15.601562 15.753906 -16.710938 14.703125 -17.734375 C 13.660156 -18.753906 12.664062 -19.6875 11.71875 -20.53125 C 11.070312 -21.175781 10.5 -21.769531 10 -22.3125 C 9.5 -22.863281 8.90625 -23.460938 8.21875 -24.109375 C 8.007812 -24.304688 7.582031 -24.691406 6.9375 -25.265625 C 6.289062 -25.835938 5.644531 -26.5 5 -27.25 C 3.457031 -29.144531 2.523438 -30.875 2.203125 -32.4375 C 1.878906 -34.007812 1.71875 -35.738281 1.71875 -37.625 C 1.71875 -43.25 3.035156 -47.289062 5.671875 -49.75 C 8.304688 -52.21875 12.3125 -53.453125 17.6875 -53.453125 C 19.332031 -53.453125 20.953125 -53.425781 22.546875 -53.375 C 24.140625 -53.320312 25.457031 -53.070312 26.5 -52.625 C 27.550781 -52.175781 28.078125 -51.359375 28.078125 -50.171875 C 28.078125 -49.367188 28.050781 -48.644531 28 -48 C 27.945312 -47.351562 27.921875 -46.609375 27.921875 -45.765625 L 27.921875 -45.46875 C 27.921875 -44.96875 27.929688 -44.519531 27.953125 -44.125 C 27.984375 -43.726562 28 -43.253906 28 -42.703125 C 28 -42.453125 27.945312 -42.078125 27.84375 -41.578125 C 27.75 -41.085938 27.515625 -40.628906 27.140625 -40.203125 C 26.765625 -39.773438 26.101562 -39.5625 25.15625 -39.5625 C 24.5625 -39.5625 23.941406 -39.660156 23.296875 -39.859375 C 22.648438 -40.066406 22.25 -40.191406 22.09375 -40.234375 C 21.75 -40.335938 21.335938 -40.4375 20.859375 -40.53125 C 20.390625 -40.632812 19.78125 -40.6875 19.03125 -40.6875 C 18.882812 -40.6875 18.550781 -40.660156 18.03125 -40.609375 C 17.507812 -40.554688 17 -40.34375 16.5 -39.96875 C 16 -39.601562 15.75 -38.945312 15.75 -38 C 15.75 -37.207031 15.972656 -36.460938 16.421875 -35.765625 C 16.671875 -35.359375 17.46875 -34.535156 18.8125 -33.296875 C 20.15625 -32.054688 21.550781 -30.738281 23 -29.34375 C 23.539062 -28.84375 24.0625 -28.367188 24.5625 -27.921875 C 25.0625 -27.472656 25.5625 -26.953125 26.0625 -26.359375 C 27.851562 -24.367188 29.019531 -22.585938 29.5625 -21.015625 C 30.113281 -19.441406 30.390625 -17.640625 30.390625 -15.609375 Z M 30.390625 -15.609375 "/></g></g></g><g fill="#3871c1" fill-opacity="1"><g transform="translate(226.641457, 73.050033)"><g><path d="M 36.4375 -3.203125 C 36.4375 -1.960938 36.1875 -1.117188 35.6875 -0.671875 C 35.1875 -0.222656 34.585938 0 33.890625 0 C 33.242188 0 32.671875 -0.0234375 32.171875 -0.078125 C 31.679688 -0.128906 31.085938 -0.15625 30.390625 -0.15625 C 29.492188 -0.15625 28.671875 -0.113281 27.921875 -0.03125 C 27.171875 0.0390625 26.328125 0.078125 25.390625 0.078125 C 24.585938 0.078125 24.007812 -0.109375 23.65625 -0.484375 C 23.3125 -0.859375 23.101562 -1.269531 23.03125 -1.71875 C 22.957031 -2.164062 22.921875 -2.488281 22.921875 -2.6875 C 22.921875 -3.28125 22.957031 -3.8125 23.03125 -4.28125 C 23.101562 -4.757812 23.140625 -5.273438 23.140625 -5.828125 C 23.140625 -6.222656 23.125 -6.554688 23.09375 -6.828125 C 23.070312 -7.097656 23.0625 -7.410156 23.0625 -7.765625 C 23.0625 -9.203125 23.097656 -10.492188 23.171875 -11.640625 C 23.253906 -12.785156 23.296875 -14.054688 23.296875 -15.453125 C 23.296875 -16.941406 23.109375 -18 22.734375 -18.625 C 22.359375 -19.25 21.859375 -19.625 21.234375 -19.75 C 20.617188 -19.875 19.910156 -19.9375 19.109375 -19.9375 C 18.460938 -19.9375 17.960938 -19.859375 17.609375 -19.703125 C 17.265625 -19.554688 16.96875 -19.285156 16.71875 -18.890625 C 16.519531 -18.691406 16.359375 -18.21875 16.234375 -17.46875 C 16.109375 -16.71875 16.019531 -15.96875 15.96875 -15.21875 C 15.925781 -14.476562 15.90625 -13.984375 15.90625 -13.734375 C 15.90625 -12.984375 15.925781 -12.234375 15.96875 -11.484375 C 16.019531 -10.742188 16.046875 -9.976562 16.046875 -9.1875 C 16.046875 -8.382812 16.03125 -7.671875 16 -7.046875 C 15.976562 -6.429688 15.96875 -5.703125 15.96875 -4.859375 C 15.96875 -4.359375 15.976562 -3.90625 16 -3.5 C 16.03125 -3.101562 16.046875 -2.660156 16.046875 -2.171875 C 16.046875 -1.222656 15.785156 -0.597656 15.265625 -0.296875 C 14.742188 0.00390625 14.285156 0.15625 13.890625 0.15625 C 13.085938 0.15625 12.375 0.113281 11.75 0.03125 C 11.132812 -0.0390625 10.425781 -0.078125 9.625 -0.078125 C 9.132812 -0.078125 8.703125 -0.0625 8.328125 -0.03125 C 7.953125 -0.0078125 7.515625 0.0234375 7.015625 0.078125 C 6.710938 0.078125 6.4375 0.0976562 6.1875 0.140625 C 5.945312 0.191406 5.675781 0.21875 5.375 0.21875 C 4.476562 0.21875 3.816406 0.0195312 3.390625 -0.375 C 2.972656 -0.769531 2.710938 -1.203125 2.609375 -1.671875 C 2.515625 -2.148438 2.46875 -2.539062 2.46875 -2.84375 C 2.46875 -3.832031 2.53125 -4.738281 2.65625 -5.5625 C 2.78125 -6.382812 2.84375 -7.316406 2.84375 -8.359375 L 2.84375 -8.578125 C 2.84375 -9.722656 2.851562 -10.753906 2.875 -11.671875 C 2.894531 -12.597656 2.90625 -13.609375 2.90625 -14.703125 C 2.90625 -16.347656 2.867188 -17.828125 2.796875 -19.140625 C 2.722656 -20.460938 2.6875 -21.945312 2.6875 -23.59375 C 2.6875 -24.9375 2.734375 -26.15625 2.828125 -27.25 C 2.929688 -28.34375 2.984375 -29.585938 2.984375 -30.984375 C 2.984375 -31.734375 2.957031 -32.40625 2.90625 -33 C 2.863281 -33.59375 2.816406 -34.265625 2.765625 -35.015625 C 2.710938 -36.003906 2.6875 -36.910156 2.6875 -37.734375 C 2.6875 -38.554688 2.6875 -39.488281 2.6875 -40.53125 C 2.6875 -41.425781 2.710938 -42.234375 2.765625 -42.953125 C 2.816406 -43.679688 2.84375 -44.492188 2.84375 -45.390625 C 2.84375 -46.234375 2.789062 -47.003906 2.6875 -47.703125 C 2.582031 -48.398438 2.53125 -49.171875 2.53125 -50.015625 C 2.53125 -50.460938 2.679688 -51.007812 2.984375 -51.65625 C 3.285156 -52.300781 3.984375 -52.625 5.078125 -52.625 C 5.828125 -52.625 6.507812 -52.597656 7.125 -52.546875 C 7.75 -52.503906 8.457031 -52.484375 9.25 -52.484375 C 10 -52.484375 10.671875 -52.519531 11.265625 -52.59375 C 11.867188 -52.664062 12.539062 -52.703125 13.28125 -52.703125 C 14.582031 -52.703125 15.394531 -52.425781 15.71875 -51.875 C 16.039062 -51.332031 16.203125 -50.738281 16.203125 -50.09375 C 16.203125 -49.300781 16.140625 -48.601562 16.015625 -48 C 15.890625 -47.40625 15.828125 -46.707031 15.828125 -45.90625 C 15.828125 -45.0625 15.847656 -44.289062 15.890625 -43.59375 C 15.941406 -42.894531 15.96875 -42.125 15.96875 -41.28125 C 15.96875 -40.332031 15.957031 -39.5 15.9375 -38.78125 C 15.914062 -38.0625 15.90625 -37.226562 15.90625 -36.28125 L 15.90625 -36.0625 C 15.90625 -34.664062 16.226562 -33.828125 16.875 -33.546875 C 17.519531 -33.273438 18.390625 -33.140625 19.484375 -33.140625 C 20.378906 -33.140625 21.015625 -33.226562 21.390625 -33.40625 C 21.765625 -33.582031 22.125 -33.921875 22.46875 -34.421875 C 22.570312 -34.566406 22.644531 -34.988281 22.6875 -35.6875 C 22.738281 -36.382812 22.789062 -37.082031 22.84375 -37.78125 C 22.894531 -38.476562 22.921875 -38.898438 22.921875 -39.046875 C 22.921875 -39.890625 22.882812 -40.644531 22.8125 -41.3125 C 22.738281 -41.988281 22.703125 -42.75 22.703125 -43.59375 C 22.703125 -44.039062 22.710938 -44.5 22.734375 -44.96875 C 22.753906 -45.445312 22.765625 -45.910156 22.765625 -46.359375 C 22.765625 -47.054688 22.726562 -47.675781 22.65625 -48.21875 C 22.582031 -48.769531 22.546875 -49.367188 22.546875 -50.015625 C 22.546875 -51.265625 22.894531 -52.023438 23.59375 -52.296875 C 24.289062 -52.566406 24.863281 -52.703125 25.3125 -52.703125 C 26.15625 -52.703125 26.898438 -52.664062 27.546875 -52.59375 C 28.191406 -52.519531 28.9375 -52.484375 29.78125 -52.484375 C 30.476562 -52.484375 31.085938 -52.519531 31.609375 -52.59375 C 32.140625 -52.664062 32.726562 -52.703125 33.375 -52.703125 C 34.46875 -52.703125 35.210938 -52.476562 35.609375 -52.03125 C 36.003906 -51.582031 36.226562 -51.082031 36.28125 -50.53125 C 36.332031 -49.988281 36.359375 -49.59375 36.359375 -49.34375 C 36.359375 -47.945312 36.296875 -46.664062 36.171875 -45.5 C 36.046875 -44.332031 35.984375 -43.023438 35.984375 -41.578125 C 35.984375 -41.179688 35.992188 -40.820312 36.015625 -40.5 C 36.046875 -40.175781 36.0625 -39.816406 36.0625 -39.421875 C 36.0625 -38.722656 36.035156 -38.085938 35.984375 -37.515625 C 35.929688 -36.941406 35.90625 -36.304688 35.90625 -35.609375 C 35.90625 -34.410156 35.914062 -33.335938 35.9375 -32.390625 C 35.96875 -31.453125 35.984375 -30.382812 35.984375 -29.1875 C 35.984375 -27.75 35.957031 -26.441406 35.90625 -25.265625 C 35.851562 -24.097656 35.828125 -22.796875 35.828125 -21.359375 C 35.828125 -19.609375 35.890625 -18.046875 36.015625 -16.671875 C 36.140625 -15.304688 36.203125 -13.753906 36.203125 -12.015625 C 36.203125 -11.171875 36.191406 -10.398438 36.171875 -9.703125 C 36.148438 -9.003906 36.140625 -8.234375 36.140625 -7.390625 C 36.140625 -6.640625 36.1875 -5.953125 36.28125 -5.328125 C 36.382812 -4.710938 36.4375 -4.003906 36.4375 -3.203125 Z M 36.4375 -3.203125 "/></g></g></g><g fill="#51ade5" fill-opacity="1"><g transform="translate(1.620429, 73.050033)"><g><path d="M 28.75 -42.1875 C 28.75 -41.882812 28.644531 -41.367188 28.4375 -40.640625 C 28.238281 -39.921875 27.566406 -39.5625 26.421875 -39.5625 C 26.078125 -39.5625 25.753906 -39.570312 25.453125 -39.59375 C 25.160156 -39.625 24.8125 -39.640625 24.40625 -39.640625 C 23.3125 -39.640625 22.566406 -39.351562 22.171875 -38.78125 C 21.773438 -38.207031 21.578125 -37.175781 21.578125 -35.6875 C 21.578125 -34.4375 21.613281 -33.3125 21.6875 -32.3125 C 21.757812 -31.320312 21.796875 -30.179688 21.796875 -28.890625 C 21.796875 -27.347656 21.769531 -25.976562 21.71875 -24.78125 C 21.675781 -23.59375 21.65625 -22.226562 21.65625 -20.6875 C 21.65625 -19.289062 21.675781 -18.039062 21.71875 -16.9375 C 21.769531 -15.84375 21.796875 -14.601562 21.796875 -13.21875 C 21.796875 -12.414062 21.78125 -11.628906 21.75 -10.859375 C 21.726562 -10.085938 21.71875 -9.304688 21.71875 -8.515625 C 21.71875 -7.867188 21.726562 -7.269531 21.75 -6.71875 C 21.78125 -6.164062 21.820312 -5.546875 21.875 -4.859375 C 21.925781 -4.453125 21.972656 -4.085938 22.015625 -3.765625 C 22.066406 -3.441406 22.09375 -3.082031 22.09375 -2.6875 C 22.09375 -1.894531 21.90625 -1.320312 21.53125 -0.96875 C 21.164062 -0.625 20.757812 -0.398438 20.3125 -0.296875 C 19.863281 -0.203125 19.515625 -0.15625 19.265625 -0.15625 C 18.816406 -0.15625 18.414062 -0.164062 18.0625 -0.1875 C 17.71875 -0.207031 17.320312 -0.242188 16.875 -0.296875 C 16.226562 -0.347656 15.664062 -0.375 15.1875 -0.375 C 14.71875 -0.375 14.160156 -0.375 13.515625 -0.375 C 13.015625 -0.375 12.539062 -0.347656 12.09375 -0.296875 C 11.644531 -0.242188 11.144531 -0.21875 10.59375 -0.21875 C 9.800781 -0.21875 9.164062 -0.414062 8.6875 -0.8125 C 8.21875 -1.21875 7.984375 -2.039062 7.984375 -3.28125 C 7.984375 -4.53125 8.046875 -5.625 8.171875 -6.5625 C 8.296875 -7.507812 8.359375 -8.609375 8.359375 -9.859375 C 8.359375 -11.003906 8.320312 -12.046875 8.25 -12.984375 C 8.175781 -13.929688 8.140625 -14.976562 8.140625 -16.125 C 8.140625 -17.46875 8.203125 -18.6875 8.328125 -19.78125 C 8.453125 -20.875 8.515625 -22.09375 8.515625 -23.4375 C 8.515625 -24.4375 8.472656 -25.320312 8.390625 -26.09375 C 8.316406 -26.863281 8.257812 -27.722656 8.21875 -28.671875 C 8.164062 -30.210938 8.210938 -31.640625 8.359375 -32.953125 C 8.503906 -34.273438 8.550781 -35.445312 8.5 -36.46875 C 8.457031 -37.488281 8.113281 -38.273438 7.46875 -38.828125 C 7.3125 -39.023438 7.171875 -39.132812 7.046875 -39.15625 C 6.929688 -39.175781 6.847656 -39.210938 6.796875 -39.265625 C 6.546875 -39.421875 6.234375 -39.507812 5.859375 -39.53125 C 5.484375 -39.550781 5.171875 -39.5625 4.921875 -39.5625 C 4.628906 -39.5625 4.359375 -39.550781 4.109375 -39.53125 C 3.859375 -39.507812 3.609375 -39.5 3.359375 -39.5 C 2.359375 -39.5 1.6875 -39.757812 1.34375 -40.28125 C 1 -40.800781 0.828125 -41.285156 0.828125 -41.734375 C 0.828125 -42.679688 0.847656 -43.523438 0.890625 -44.265625 C 0.941406 -45.015625 0.96875 -45.863281 0.96875 -46.8125 C 0.96875 -47.457031 0.941406 -48.023438 0.890625 -48.515625 C 0.847656 -49.015625 0.828125 -49.59375 0.828125 -50.25 C 0.828125 -51.1875 1.023438 -51.84375 1.421875 -52.21875 C 1.816406 -52.59375 2.488281 -52.78125 3.4375 -52.78125 C 4.28125 -52.78125 5.050781 -52.753906 5.75 -52.703125 C 6.445312 -52.648438 7.21875 -52.625 8.0625 -52.625 C 9.351562 -52.625 10.632812 -52.660156 11.90625 -52.734375 C 13.175781 -52.816406 14.429688 -52.859375 15.671875 -52.859375 L 16.5 -52.859375 C 17.539062 -52.859375 18.484375 -52.832031 19.328125 -52.78125 C 20.179688 -52.726562 21.15625 -52.703125 22.25 -52.703125 C 22.945312 -52.703125 23.554688 -52.726562 24.078125 -52.78125 C 24.597656 -52.832031 25.179688 -52.859375 25.828125 -52.859375 C 27.273438 -52.859375 28.125 -52.421875 28.375 -51.546875 C 28.625 -50.679688 28.75 -49.75 28.75 -48.75 C 28.75 -48 28.734375 -47.335938 28.703125 -46.765625 C 28.679688 -46.191406 28.671875 -45.5625 28.671875 -44.875 C 28.671875 -44.375 28.679688 -43.921875 28.703125 -43.515625 C 28.734375 -43.117188 28.75 -42.675781 28.75 -42.1875 Z M 28.75 -42.1875 "/></g></g></g><g fill="#51ade5" fill-opacity="1"><g transform="translate(28.123856, 73.050033)"><g><path d="M 37.109375 -2.984375 C 37.109375 -2.984375 37.054688 -2.734375 36.953125 -2.234375 C 36.859375 -1.742188 36.632812 -1.25 36.28125 -0.75 C 35.9375 -0.25 35.390625 0 34.640625 0 C 33.742188 0 32.929688 -0.0351562 32.203125 -0.109375 C 31.484375 -0.179688 30.675781 -0.21875 29.78125 -0.21875 C 29.039062 -0.21875 28.367188 -0.191406 27.765625 -0.140625 C 27.171875 -0.0976562 26.5 -0.078125 25.75 -0.078125 C 24.851562 -0.078125 24.242188 -0.25 23.921875 -0.59375 C 23.597656 -0.945312 23.425781 -1.347656 23.40625 -1.796875 C 23.382812 -2.242188 23.347656 -2.59375 23.296875 -2.84375 C 23.296875 -3.082031 23.253906 -3.597656 23.171875 -4.390625 C 23.097656 -5.191406 23.007812 -6.003906 22.90625 -6.828125 C 22.8125 -7.648438 22.640625 -8.160156 22.390625 -8.359375 C 22.191406 -8.554688 22.101562 -8.640625 22.125 -8.609375 C 22.15625 -8.585938 22.046875 -8.65625 21.796875 -8.8125 C 21.742188 -8.863281 21.15625 -8.898438 20.03125 -8.921875 C 18.914062 -8.941406 17.9375 -8.953125 17.09375 -8.953125 C 15.695312 -8.953125 14.898438 -8.765625 14.703125 -8.390625 C 14.503906 -8.023438 14.332031 -7.414062 14.1875 -6.5625 C 14.1875 -6.363281 14.160156 -5.851562 14.109375 -5.03125 C 14.054688 -4.21875 13.976562 -3.410156 13.875 -2.609375 C 13.78125 -1.816406 13.660156 -1.296875 13.515625 -1.046875 C 13.265625 -0.691406 12.988281 -0.441406 12.6875 -0.296875 C 12.394531 -0.148438 11.945312 -0.078125 11.34375 -0.078125 C 10.644531 -0.078125 10.007812 -0.0859375 9.4375 -0.109375 C 8.863281 -0.140625 8.234375 -0.15625 7.546875 -0.15625 C 6.796875 -0.15625 6.046875 -0.140625 5.296875 -0.109375 C 4.554688 -0.0859375 3.8125 -0.078125 3.0625 -0.078125 C 2.414062 -0.078125 1.78125 -0.1875 1.15625 -0.40625 C 0.53125 -0.632812 0.21875 -1.242188 0.21875 -2.234375 C 0.21875 -2.535156 0.28125 -3.007812 0.40625 -3.65625 C 0.53125 -4.300781 0.671875 -5.023438 0.828125 -5.828125 C 0.972656 -6.816406 1.082031 -7.6875 1.15625 -8.4375 C 1.226562 -9.1875 1.363281 -10.03125 1.5625 -10.96875 C 1.71875 -11.820312 1.867188 -12.59375 2.015625 -13.28125 C 2.160156 -13.976562 2.3125 -14.753906 2.46875 -15.609375 C 2.71875 -16.847656 2.890625 -17.953125 2.984375 -18.921875 C 3.085938 -19.890625 3.238281 -21 3.4375 -22.25 C 3.632812 -23.488281 3.832031 -24.582031 4.03125 -25.53125 C 4.226562 -26.476562 4.398438 -27.570312 4.546875 -28.8125 C 4.648438 -29.664062 4.738281 -30.453125 4.8125 -31.171875 C 4.882812 -31.890625 5 -32.695312 5.15625 -33.59375 C 5.351562 -34.59375 5.550781 -35.515625 5.75 -36.359375 C 5.945312 -37.203125 6.144531 -38.125 6.34375 -39.125 C 6.644531 -40.71875 6.859375 -42.132812 6.984375 -43.375 C 7.109375 -44.613281 7.34375 -46.007812 7.6875 -47.5625 C 7.9375 -48.550781 8.195312 -49.46875 8.46875 -50.3125 C 8.75 -51.164062 9.0625 -51.765625 9.40625 -52.109375 C 10.101562 -52.660156 11.195312 -52.9375 12.6875 -52.9375 C 13.976562 -52.9375 15.132812 -52.882812 16.15625 -52.78125 C 17.175781 -52.675781 18.3125 -52.625 19.5625 -52.625 C 20.507812 -52.625 21.453125 -52.632812 22.390625 -52.65625 C 23.335938 -52.6875 24.285156 -52.703125 25.234375 -52.703125 L 25.53125 -52.703125 C 26.53125 -52.703125 27.238281 -52.601562 27.65625 -52.40625 C 28.082031 -52.207031 28.46875 -51.785156 28.8125 -51.140625 C 28.914062 -51.085938 28.988281 -50.945312 29.03125 -50.71875 C 29.082031 -50.5 29.132812 -50.34375 29.1875 -50.25 C 29.1875 -50.25 29.25 -49.882812 29.375 -49.15625 C 29.5 -48.4375 29.660156 -47.628906 29.859375 -46.734375 C 30.054688 -45.835938 30.21875 -45.023438 30.34375 -44.296875 C 30.46875 -43.578125 30.53125 -43.21875 30.53125 -43.21875 C 30.726562 -42.03125 30.875 -40.945312 30.96875 -39.96875 C 31.070312 -39 31.226562 -37.921875 31.4375 -36.734375 C 31.675781 -35.285156 31.90625 -33.976562 32.125 -32.8125 C 32.351562 -31.644531 32.617188 -30.335938 32.921875 -28.890625 C 33.171875 -27.742188 33.394531 -26.6875 33.59375 -25.71875 C 33.789062 -24.75 33.96875 -23.691406 34.125 -22.546875 C 34.363281 -21.003906 34.519531 -19.625 34.59375 -18.40625 C 34.675781 -17.1875 34.816406 -15.804688 35.015625 -14.265625 C 35.265625 -12.765625 35.550781 -11.207031 35.875 -9.59375 C 36.195312 -7.976562 36.484375 -6.5625 36.734375 -5.34375 C 36.984375 -4.125 37.109375 -3.335938 37.109375 -2.984375 Z M 21.046875 -24.34375 C 21.046875 -25.6875 20.957031 -27.015625 20.78125 -28.328125 C 20.613281 -29.648438 20.441406 -30.804688 20.265625 -31.796875 C 20.097656 -32.796875 19.988281 -33.46875 19.9375 -33.8125 C 19.882812 -34.414062 19.820312 -35.039062 19.75 -35.6875 C 19.675781 -36.332031 19.585938 -36.707031 19.484375 -36.8125 C 19.335938 -37.351562 19.085938 -37.625 18.734375 -37.625 C 18.441406 -37.625 18.242188 -37.375 18.140625 -36.875 C 18.085938 -36.78125 18.007812 -36.492188 17.90625 -36.015625 C 17.8125 -35.546875 17.726562 -35.085938 17.65625 -34.640625 C 17.582031 -34.191406 17.519531 -33.894531 17.46875 -33.75 C 17.363281 -33.300781 17.257812 -32.890625 17.15625 -32.515625 C 17.0625 -32.140625 16.96875 -31.726562 16.875 -31.28125 C 16.875 -31.132812 16.820312 -30.710938 16.71875 -30.015625 C 16.625 -29.316406 16.515625 -28.539062 16.390625 -27.6875 C 16.265625 -26.84375 16.148438 -26.082031 16.046875 -25.40625 C 15.953125 -24.738281 15.90625 -24.332031 15.90625 -24.1875 C 15.90625 -23.039062 16.140625 -22.332031 16.609375 -22.0625 C 17.078125 -21.789062 17.613281 -21.65625 18.21875 -21.65625 C 18.71875 -21.65625 19.3125 -21.765625 20 -21.984375 C 20.695312 -22.210938 21.046875 -23 21.046875 -24.34375 Z M 21.046875 -24.34375 "/></g></g></g><g fill="#51ade5" fill-opacity="1"><g transform="translate(65.452835, 73.050033)"><g><path d="M 36.875 -35.390625 C 36.875 -34.585938 36.835938 -33.765625 36.765625 -32.921875 C 36.691406 -32.078125 36.582031 -30.859375 36.4375 -29.265625 C 36.382812 -28.566406 36.28125 -27.644531 36.125 -26.5 C 35.976562 -25.351562 35.582031 -24.035156 34.9375 -22.546875 C 34.289062 -21.054688 33.171875 -19.4375 31.578125 -17.6875 C 30.585938 -16.59375 29.296875 -15.5625 27.703125 -14.59375 C 26.109375 -13.625 24.015625 -13.140625 21.421875 -13.140625 C 21.078125 -13.140625 20.703125 -13.148438 20.296875 -13.171875 C 19.898438 -13.203125 19.503906 -13.21875 19.109375 -13.21875 L 18.96875 -13.21875 C 18.613281 -13.21875 18.195312 -13.175781 17.71875 -13.09375 C 17.25 -13.019531 16.828125 -12.785156 16.453125 -12.390625 C 16.085938 -11.992188 15.90625 -11.320312 15.90625 -10.375 C 15.90625 -9.875 15.925781 -9.4375 15.96875 -9.0625 C 16.019531 -8.695312 16.046875 -8.265625 16.046875 -7.765625 C 16.097656 -7.265625 16.109375 -6.789062 16.078125 -6.34375 C 16.054688 -5.894531 16.070312 -5.398438 16.125 -4.859375 C 16.125 -4.453125 16.148438 -4.085938 16.203125 -3.765625 C 16.253906 -3.441406 16.28125 -3.082031 16.28125 -2.6875 C 16.28125 -2.1875 16.175781 -1.640625 15.96875 -1.046875 C 15.769531 -0.453125 15.078125 -0.15625 13.890625 -0.15625 C 12.992188 -0.15625 12.195312 -0.175781 11.5 -0.21875 C 10.800781 -0.269531 10.03125 -0.296875 9.1875 -0.296875 C 8.382812 -0.296875 7.660156 -0.242188 7.015625 -0.140625 C 6.367188 -0.046875 5.625 0 4.78125 0 C 4.03125 0 3.46875 -0.1875 3.09375 -0.5625 C 2.71875 -0.9375 2.53125 -1.695312 2.53125 -2.84375 C 2.53125 -3.238281 2.539062 -3.617188 2.5625 -3.984375 C 2.59375 -4.359375 2.632812 -4.722656 2.6875 -5.078125 C 2.6875 -5.523438 2.660156 -5.921875 2.609375 -6.265625 C 2.554688 -6.617188 2.554688 -6.992188 2.609375 -7.390625 C 2.660156 -8.035156 2.722656 -8.609375 2.796875 -9.109375 C 2.867188 -9.609375 2.90625 -10.179688 2.90625 -10.828125 C 2.90625 -11.867188 2.867188 -12.925781 2.796875 -14 C 2.722656 -15.070312 2.6875 -16.128906 2.6875 -17.171875 C 2.6875 -18.617188 2.710938 -19.898438 2.765625 -21.015625 C 2.816406 -22.140625 2.84375 -23.394531 2.84375 -24.78125 C 2.84375 -25.925781 2.828125 -27.070312 2.796875 -28.21875 C 2.773438 -29.363281 2.765625 -30.484375 2.765625 -31.578125 C 2.765625 -33.472656 2.785156 -35.191406 2.828125 -36.734375 C 2.878906 -38.273438 2.882812 -40.015625 2.84375 -41.953125 C 2.789062 -43.347656 2.738281 -44.59375 2.6875 -45.6875 C 2.632812 -46.78125 2.609375 -48.023438 2.609375 -49.421875 C 2.609375 -50.867188 3.003906 -51.828125 3.796875 -52.296875 C 4.597656 -52.765625 5.570312 -53 6.71875 -53 C 7.21875 -53 7.703125 -52.972656 8.171875 -52.921875 C 8.648438 -52.878906 9.113281 -52.859375 9.5625 -52.859375 C 10.25 -52.859375 10.925781 -52.878906 11.59375 -52.921875 C 12.269531 -52.972656 12.9375 -53 13.59375 -53 C 14.039062 -53 14.488281 -52.988281 14.9375 -52.96875 C 15.382812 -52.945312 15.832031 -52.9375 16.28125 -52.9375 C 16.925781 -52.882812 17.546875 -52.878906 18.140625 -52.921875 C 18.734375 -52.972656 19.359375 -53 20.015625 -53 C 23.347656 -53.101562 26.082031 -52.644531 28.21875 -51.625 C 30.363281 -50.601562 32.03125 -49.296875 33.21875 -47.703125 C 33.914062 -46.753906 34.375 -45.941406 34.59375 -45.265625 C 34.820312 -44.597656 35.007812 -44.066406 35.15625 -43.671875 C 35.5625 -42.628906 35.945312 -41.519531 36.3125 -40.34375 C 36.6875 -39.175781 36.875 -37.523438 36.875 -35.390625 Z M 22.703125 -30.765625 C 22.703125 -31.210938 22.6875 -31.597656 22.65625 -31.921875 C 22.632812 -32.242188 22.625 -32.628906 22.625 -33.078125 C 22.625 -33.523438 22.632812 -33.921875 22.65625 -34.265625 C 22.6875 -34.617188 22.703125 -35.019531 22.703125 -35.46875 C 22.703125 -37.050781 22.335938 -38.28125 21.609375 -39.15625 C 20.890625 -40.03125 20.03125 -40.46875 19.03125 -40.46875 L 18.734375 -40.46875 C 18.285156 -40.46875 17.863281 -40.316406 17.46875 -40.015625 C 16.96875 -39.671875 16.601562 -39.097656 16.375 -38.296875 C 16.15625 -37.503906 16.046875 -36.582031 16.046875 -35.53125 L 16.046875 -30.828125 C 16.046875 -29.441406 16.394531 -28.347656 17.09375 -27.546875 C 17.789062 -26.753906 18.539062 -26.378906 19.34375 -26.421875 C 19.882812 -26.421875 20.476562 -26.671875 21.125 -27.171875 C 21.625 -27.566406 22.007812 -28.023438 22.28125 -28.546875 C 22.5625 -29.078125 22.703125 -29.816406 22.703125 -30.765625 Z M 22.703125 -30.765625 "/></g></g></g></g></g></g></svg>