<svg xmlns="http://www.w3.org/2000/svg" xmlns:xlink="http://www.w3.org/1999/xlink" width="500" zoomAndPan="magnify" viewBox="0 0 375 374.999991" height="500" preserveAspectRatio="xMidYMid meet" version="1.0"><defs><g/><clipPath id="c12abbc517"><path d="M 194.445312 50.085938 L 281.445312 50.085938 L 281.445312 137.085938 L 194.445312 137.085938 Z M 194.445312 50.085938 " clip-rule="nonzero"/></clipPath><clipPath id="451a677bde"><path d="M 194.445312 55.207031 L 271.238281 55.207031 L 271.238281 137.085938 L 194.445312 137.085938 Z M 194.445312 55.207031 " clip-rule="nonzero"/></clipPath><clipPath id="d7082e18a2"><path d="M 218.648438 50.085938 L 278.007812 68.457031 L 210.332031 287.117188 L 150.972656 268.742188 Z M 218.648438 50.085938 " clip-rule="nonzero"/></clipPath><clipPath id="a04f2f4b6e"><path d="M 200.980469 250.898438 L 197.085938 263.488281 L 184.238281 266.421875 L 175.300781 256.75 L 179.195312 244.15625 L 192.03125 241.234375 Z M 255.34375 83.109375 C 253.210938 90.148438 245.566406 93.964844 238.265625 91.703125 C 231.039062 89.46875 226.914062 81.964844 229.074219 74.980469 L 235.183594 55.25 C 223.917969 57.058594 214.054688 64.929688 210.445312 76.59375 C 207.15625 87.214844 209.953125 98.199219 216.710938 106.085938 L 178.039062 231.027344 C 171.628906 233.859375 166.425781 239.242188 164.207031 246.417969 C 160.121094 259.613281 167.492188 273.65625 180.726562 277.75 C 193.929688 281.835938 207.941406 274.414062 212.027344 261.21875 C 214.25 254.039062 212.949219 246.640625 209.347656 240.71875 L 248.03125 115.734375 C 258.046875 113.085938 266.511719 105.585938 269.796875 94.964844 C 273.414062 83.304688 269.761719 71.246094 261.511719 63.351562 Z M 255.34375 83.109375 " clip-rule="nonzero"/></clipPath><clipPath id="f7f95582a5"><path d="M 218.648438 50.085938 L 278.007812 68.457031 L 210.332031 287.117188 L 150.972656 268.742188 Z M 218.648438 50.085938 " clip-rule="nonzero"/></clipPath><clipPath id="2e61adf0bb"><path d="M 200.980469 250.898438 L 197.085938 263.488281 L 184.238281 266.421875 L 175.300781 256.75 L 179.195312 244.15625 L 192.03125 241.234375 Z M 255.34375 83.109375 C 253.210938 90.148438 245.566406 93.964844 238.265625 91.703125 C 231.039062 89.46875 226.914062 81.964844 229.074219 74.980469 L 235.183594 55.25 C 223.917969 57.058594 214.054688 64.929688 210.445312 76.59375 C 207.15625 87.214844 209.953125 98.199219 216.710938 106.085938 L 178.039062 231.027344 C 171.628906 233.859375 166.425781 239.242188 164.207031 246.417969 C 160.121094 259.613281 167.492188 273.65625 180.726562 277.75 C 193.929688 281.835938 207.941406 274.414062 212.027344 261.21875 C 214.25 254.039062 212.949219 246.640625 209.347656 240.71875 L 248.03125 115.734375 C 258.046875 113.085938 266.511719 105.585938 269.796875 94.964844 C 273.414062 83.304688 269.761719 71.246094 261.511719 63.351562 Z M 255.34375 83.109375 " clip-rule="nonzero"/></clipPath><clipPath id="ef8c016c35"><path d="M 93.75 50.085938 L 180.75 50.085938 L 180.75 137.085938 L 93.75 137.085938 Z M 93.75 50.085938 " clip-rule="nonzero"/></clipPath><clipPath id="4e9e1ccbd2"><path d="M 112.902344 55.820312 L 180.75 55.820312 L 180.75 137.085938 L 112.902344 137.085938 Z M 112.902344 55.820312 " clip-rule="nonzero"/></clipPath><clipPath id="3550bf2f7b"><path d="M 106.726562 66.441406 L 124.355469 50.085938 L 194.828125 126.042969 L 177.199219 142.398438 Z M 106.726562 66.441406 " clip-rule="nonzero"/></clipPath><clipPath id="8bf74958d0"><path d="M 191.921875 124.132812 L 158.832031 88.46875 C 157.847656 87.410156 156.34375 87.152344 155.089844 87.6875 L 152.492188 84.886719 C 153.625 83.601562 153.636719 81.648438 152.445312 80.363281 C 151.175781 78.996094 149.039062 78.914062 147.667969 80.183594 L 143.472656 84.078125 L 128.039062 67.445312 L 128.480469 67.039062 L 125.570312 61.558594 L 118.121094 55.867188 L 113.386719 60.257812 L 112.957031 60.660156 L 118.078125 68.507812 L 123.324219 71.828125 L 123.75 71.433594 L 123.761719 71.421875 L 139.195312 88.050781 L 134.996094 91.945312 C 133.632812 93.214844 133.546875 95.351562 134.820312 96.722656 C 136.007812 98.003906 137.957031 98.140625 139.320312 97.105469 L 141.921875 99.910156 C 141.289062 101.117188 141.4375 102.640625 142.421875 103.695312 L 175.507812 139.359375 C 176.753906 140.707031 178.851562 140.785156 180.195312 139.535156 L 191.746094 128.820312 C 193.089844 127.574219 193.167969 125.476562 191.921875 124.132812 " clip-rule="nonzero"/></clipPath><clipPath id="7aaadbf430"><path d="M 106.726562 66.441406 L 124.355469 50.085938 L 194.828125 126.042969 L 177.199219 142.398438 Z M 106.726562 66.441406 " clip-rule="nonzero"/></clipPath><clipPath id="b0019a7442"><path d="M 191.921875 124.132812 L 158.832031 88.46875 C 157.847656 87.410156 156.34375 87.152344 155.089844 87.6875 L 152.492188 84.886719 C 153.625 83.601562 153.636719 81.648438 152.445312 80.363281 C 151.175781 78.996094 149.039062 78.914062 147.667969 80.183594 L 143.472656 84.078125 L 128.039062 67.445312 L 128.480469 67.039062 L 125.570312 61.558594 L 118.121094 55.867188 L 113.386719 60.257812 L 112.957031 60.660156 L 118.078125 68.507812 L 123.324219 71.828125 L 123.75 71.433594 L 123.761719 71.421875 L 139.195312 88.050781 L 134.996094 91.945312 C 133.632812 93.214844 133.546875 95.351562 134.820312 96.722656 C 136.007812 98.003906 137.957031 98.140625 139.320312 97.105469 L 141.921875 99.910156 C 141.289062 101.117188 141.4375 102.640625 142.421875 103.695312 L 175.507812 139.359375 C 176.753906 140.707031 178.851562 140.785156 180.195312 139.535156 L 191.746094 128.820312 C 193.089844 127.574219 193.167969 125.476562 191.921875 124.132812 " clip-rule="nonzero"/></clipPath><clipPath id="47ef3172c3"><path d="M 112.625 94.460938 L 160.566406 94.460938 L 160.566406 137.085938 L 112.625 137.085938 Z M 112.625 94.460938 " clip-rule="nonzero"/></clipPath><clipPath id="7e70c3c054"><path d="M 108.90625 100.8125 L 119.464844 91.019531 L 161.667969 136.507812 L 151.109375 146.300781 Z M 108.90625 100.8125 " clip-rule="nonzero"/></clipPath><clipPath id="eb14ce7543"><path d="M 159.925781 135.363281 L 140.113281 114.007812 C 139.523438 113.371094 138.621094 113.214844 137.867188 113.539062 L 136.3125 111.859375 C 136.992188 111.089844 137 109.921875 136.285156 109.152344 C 135.527344 108.332031 134.246094 108.285156 133.425781 109.042969 L 130.914062 111.375 L 121.671875 101.417969 L 121.933594 101.171875 L 120.191406 97.890625 L 115.730469 94.480469 L 112.894531 97.113281 L 112.640625 97.351562 L 115.707031 102.050781 L 118.847656 104.039062 L 119.101562 103.804688 L 119.109375 103.796875 L 128.351562 113.753906 L 125.835938 116.089844 C 125.019531 116.847656 124.96875 118.125 125.730469 118.949219 C 126.445312 119.714844 127.609375 119.796875 128.425781 119.175781 L 129.984375 120.855469 C 129.605469 121.582031 129.695312 122.492188 130.28125 123.125 L 150.097656 144.480469 C 150.84375 145.289062 152.101562 145.335938 152.902344 144.585938 L 159.820312 138.167969 C 160.625 137.421875 160.675781 136.167969 159.925781 135.363281 " clip-rule="nonzero"/></clipPath><clipPath id="900afc2408"><path d="M 108.90625 100.8125 L 119.464844 91.019531 L 161.667969 136.507812 L 151.109375 146.300781 Z M 108.90625 100.8125 " clip-rule="nonzero"/></clipPath><clipPath id="7df4b516f4"><path d="M 159.925781 135.363281 L 140.113281 114.007812 C 139.523438 113.371094 138.621094 113.214844 137.867188 113.539062 L 136.3125 111.859375 C 136.992188 111.089844 137 109.921875 136.285156 109.152344 C 135.527344 108.332031 134.246094 108.285156 133.425781 109.042969 L 130.914062 111.375 L 121.671875 101.417969 L 121.933594 101.171875 L 120.191406 97.890625 L 115.730469 94.480469 L 112.894531 97.113281 L 112.640625 97.351562 L 115.707031 102.050781 L 118.847656 104.039062 L 119.101562 103.804688 L 119.109375 103.796875 L 128.351562 113.753906 L 125.835938 116.089844 C 125.019531 116.847656 124.96875 118.125 125.730469 118.949219 C 126.445312 119.714844 127.609375 119.796875 128.425781 119.175781 L 129.984375 120.855469 C 129.605469 121.582031 129.695312 122.492188 130.28125 123.125 L 150.097656 144.480469 C 150.84375 145.289062 152.101562 145.335938 152.902344 144.585938 L 159.820312 138.167969 C 160.625 137.421875 160.675781 136.167969 159.925781 135.363281 " clip-rule="nonzero"/></clipPath><clipPath id="bf94decca8"><path d="M 194.445312 150.78125 L 281.445312 150.78125 L 281.445312 237.78125 L 194.445312 237.78125 Z M 194.445312 150.78125 " clip-rule="nonzero"/></clipPath><clipPath id="0c50da8046"><path d="M 194.445312 150.78125 L 251.515625 150.78125 L 251.515625 221.074219 L 194.445312 221.074219 Z M 194.445312 150.78125 " clip-rule="nonzero"/></clipPath><clipPath id="2853afa77f"><path d="M 317.230469 94.335938 L 330.800781 277.230469 L 147.90625 290.800781 L 134.339844 107.90625 Z M 317.230469 94.335938 " clip-rule="nonzero"/></clipPath><clipPath id="e7f56d1ca2"><path d="M 317.230469 94.335938 L 330.800781 277.230469 L 147.90625 290.800781 L 134.339844 107.90625 Z M 317.230469 94.335938 " clip-rule="nonzero"/></clipPath><clipPath id="7fa2c82604"><path d="M 239.21875 191.148438 L 279.355469 191.148438 L 279.355469 237.78125 L 239.21875 237.78125 Z M 239.21875 191.148438 " clip-rule="nonzero"/></clipPath><clipPath id="9266fc0002"><path d="M 317.230469 94.335938 L 330.800781 277.230469 L 147.90625 290.800781 L 134.339844 107.90625 Z M 317.230469 94.335938 " clip-rule="nonzero"/></clipPath><clipPath id="e27cf2fc72"><path d="M 317.230469 94.335938 L 330.800781 277.230469 L 147.90625 290.800781 L 134.339844 107.90625 Z M 317.230469 94.335938 " clip-rule="nonzero"/></clipPath><clipPath id="e608e3865b"><path d="M 93.75 150.78125 L 180.75 150.78125 L 180.75 237.78125 L 93.75 237.78125 Z M 93.75 150.78125 " clip-rule="nonzero"/></clipPath><clipPath id="a5861ca10f"><path d="M 96.535156 166 L 174.484375 166 L 174.484375 237.78125 L 96.535156 237.78125 Z M 96.535156 166 " clip-rule="nonzero"/></clipPath><clipPath id="6b8c273272"><path d="M 113.207031 154.320312 L 175.691406 178.035156 L 134.742188 285.917969 L 72.257812 262.199219 Z M 113.207031 154.320312 " clip-rule="nonzero"/></clipPath><clipPath id="3cd45ba8fd"><path d="M 174.132812 182.136719 C 175.085938 179.75 172.679688 178.261719 170.238281 177.273438 C 167.796875 176.289062 163.503906 177.84375 158.90625 175.988281 C 154.308594 174.132812 155.109375 170.472656 149.160156 168.246094 C 143.214844 166.015625 137.734375 165.535156 128.855469 166.453125 C 119.980469 167.367188 104.214844 180.054688 104.214844 180.054688 C 101.046875 182.757812 102.96875 184.832031 105.921875 183.511719 C 107.761719 182.6875 117.042969 178.652344 117.042969 178.652344 C 125.871094 174.945312 128.375 176.125 131.238281 178.410156 C 134.191406 180.769531 133.667969 187.964844 133.667969 187.964844 C 133.667969 187.964844 133.925781 188.070312 134.394531 188.257812 L 125.242188 209.519531 C 124.542969 209.328125 123.519531 209.289062 122.855469 210.375 C 121.773438 212.144531 116.621094 221.902344 114.46875 225.71875 C 112.320312 229.53125 107.84375 243.800781 107.84375 243.800781 L 106.332031 248.492188 C 104.828125 253.183594 100.390625 262.078125 97.828125 265.996094 C 95.273438 269.90625 97.222656 270.609375 99.179688 271.925781 C 101.132812 273.246094 105.421875 274.625 108.90625 275.855469 C 112.386719 277.082031 114.875 276.144531 115.332031 273.148438 C 115.785156 270.152344 120.523438 257.402344 121.5 254.96875 C 122.476562 252.535156 129.910156 237.078125 131.402344 233.355469 C 132.898438 229.625 135.421875 218.984375 136.152344 216.542969 C 136.511719 215.339844 135.800781 214.398438 134.988281 213.757812 L 143.261719 191.925781 C 143.304688 191.941406 143.347656 191.960938 143.390625 191.976562 C 143.40625 191.957031 143.421875 191.9375 143.4375 191.914062 C 143.503906 191.941406 143.574219 191.964844 143.644531 191.996094 C 146.332031 187.972656 149.105469 186.472656 151.539062 186.113281 C 154.207031 185.847656 156.421875 186.945312 157.601562 187.421875 C 159.871094 188.339844 160.625 191.816406 162.332031 192.503906 C 164.039062 193.191406 162.332031 192.503906 165.597656 193.824219 C 166.375 194.140625 167.015625 194.1875 167.539062 194.085938 C 169.542969 194.035156 170.238281 191.828125 170.238281 191.828125 C 170.238281 191.828125 173.164062 184.523438 174.121094 182.140625 " clip-rule="nonzero"/></clipPath><clipPath id="ae19381655"><path d="M 113.207031 154.320312 L 175.691406 178.035156 L 134.742188 285.917969 L 72.257812 262.199219 Z M 113.207031 154.320312 " clip-rule="nonzero"/></clipPath><clipPath id="23bf0349ca"><path d="M 174.132812 182.136719 C 175.085938 179.75 172.679688 178.261719 170.238281 177.273438 C 167.796875 176.289062 163.503906 177.84375 158.90625 175.988281 C 154.308594 174.132812 155.109375 170.472656 149.160156 168.246094 C 143.214844 166.015625 137.734375 165.535156 128.855469 166.453125 C 119.980469 167.367188 104.214844 180.054688 104.214844 180.054688 C 101.046875 182.757812 102.96875 184.832031 105.921875 183.511719 C 107.761719 182.6875 117.042969 178.652344 117.042969 178.652344 C 125.871094 174.945312 128.375 176.125 131.238281 178.410156 C 134.191406 180.769531 133.667969 187.964844 133.667969 187.964844 C 133.667969 187.964844 133.925781 188.070312 134.394531 188.257812 L 125.242188 209.519531 C 124.542969 209.328125 123.519531 209.289062 122.855469 210.375 C 121.773438 212.144531 116.621094 221.902344 114.46875 225.71875 C 112.320312 229.53125 107.84375 243.800781 107.84375 243.800781 L 106.332031 248.492188 C 104.828125 253.183594 100.390625 262.078125 97.828125 265.996094 C 95.273438 269.90625 97.222656 270.609375 99.179688 271.925781 C 101.132812 273.246094 105.421875 274.625 108.90625 275.855469 C 112.386719 277.082031 114.875 276.144531 115.332031 273.148438 C 115.785156 270.152344 120.523438 257.402344 121.5 254.96875 C 122.476562 252.535156 129.910156 237.078125 131.402344 233.355469 C 132.898438 229.625 135.421875 218.984375 136.152344 216.542969 C 136.511719 215.339844 135.800781 214.398438 134.988281 213.757812 L 143.261719 191.925781 C 143.304688 191.941406 143.347656 191.960938 143.390625 191.976562 C 143.40625 191.957031 143.421875 191.9375 143.4375 191.914062 C 143.503906 191.941406 143.574219 191.964844 143.644531 191.996094 C 146.332031 187.972656 149.105469 186.472656 151.539062 186.113281 C 154.207031 185.847656 156.421875 186.945312 157.601562 187.421875 C 159.871094 188.339844 160.625 191.816406 162.332031 192.503906 C 164.039062 193.191406 162.332031 192.503906 165.597656 193.824219 C 166.375 194.140625 167.015625 194.1875 167.539062 194.085938 C 169.542969 194.035156 170.238281 191.828125 170.238281 191.828125 C 170.238281 191.828125 173.164062 184.523438 174.121094 182.140625 " clip-rule="nonzero"/></clipPath></defs><g fill="#f5af23" fill-opacity="1"><g transform="translate(87.339843, 289.469952)"><g><path d="M 7.015625 0.8125 C 5.816406 0.8125 4.554688 0.691406 3.234375 0.453125 C 1.910156 0.222656 0.921875 -0.0703125 0.265625 -0.4375 L 0.265625 -8.90625 C 0.816406 -8.65625 1.515625 -8.457031 2.359375 -8.3125 C 3.210938 -8.164062 4.070312 -8.09375 4.9375 -8.09375 C 6.539062 -8.09375 7.664062 -8.425781 8.3125 -9.09375 C 8.96875 -9.769531 9.296875 -10.882812 9.296875 -12.4375 L 9.296875 -37.984375 L 18.90625 -37.984375 L 18.90625 -11.359375 C 18.90625 -7.628906 17.890625 -4.664062 15.859375 -2.46875 C 13.835938 -0.28125 10.890625 0.8125 7.015625 0.8125 Z M 7.015625 0.8125 "/></g></g></g><g fill="#f5af23" fill-opacity="1"><g transform="translate(108.41916, 289.469952)"><g><path d="M 21.796875 0.8125 C 17.953125 0.8125 14.476562 -0.0195312 11.375 -1.6875 C 8.28125 -3.351562 5.835938 -5.679688 4.046875 -8.671875 C 2.253906 -11.660156 1.359375 -15.09375 1.359375 -18.96875 C 1.359375 -22.84375 2.253906 -26.28125 4.046875 -29.28125 C 5.835938 -32.289062 8.28125 -34.628906 11.375 -36.296875 C 14.476562 -37.960938 17.953125 -38.796875 21.796875 -38.796875 C 25.597656 -38.796875 29.046875 -37.960938 32.140625 -36.296875 C 35.242188 -34.628906 37.679688 -32.289062 39.453125 -29.28125 C 41.222656 -26.28125 42.109375 -22.84375 42.109375 -18.96875 C 42.109375 -15.09375 41.222656 -11.660156 39.453125 -8.671875 C 37.679688 -5.679688 35.242188 -3.351562 32.140625 -1.6875 C 29.046875 -0.0195312 25.597656 0.8125 21.796875 0.8125 Z M 21.796875 -8.203125 C 23.710938 -8.203125 25.46875 -8.632812 27.0625 -9.5 C 28.65625 -10.375 29.921875 -11.625 30.859375 -13.25 C 31.804688 -14.882812 32.28125 -16.789062 32.28125 -18.96875 C 32.28125 -21.144531 31.816406 -23.035156 30.890625 -24.640625 C 29.972656 -26.253906 28.710938 -27.503906 27.109375 -28.390625 C 25.515625 -29.273438 23.742188 -29.71875 21.796875 -29.71875 C 19.796875 -29.71875 18 -29.273438 16.40625 -28.390625 C 14.8125 -27.503906 13.550781 -26.253906 12.625 -24.640625 C 11.707031 -23.035156 11.25 -21.144531 11.25 -18.96875 C 11.25 -16.789062 11.707031 -14.882812 12.625 -13.25 C 13.550781 -11.625 14.820312 -10.375 16.4375 -9.5 C 18.050781 -8.632812 19.835938 -8.203125 21.796875 -8.203125 Z M 21.796875 -8.203125 "/></g></g></g><g fill="#f5af23" fill-opacity="1"><g transform="translate(151.881678, 289.469952)"><g><path d="M 2.453125 -37.984375 L 21.6875 -37.984375 C 25.34375 -37.984375 28.226562 -37.078125 30.34375 -35.265625 C 32.46875 -33.453125 33.53125 -30.863281 33.53125 -27.5 C 33.53125 -25.90625 33.164062 -24.421875 32.4375 -23.046875 C 31.71875 -21.671875 30.6875 -20.582031 29.34375 -19.78125 C 31.1875 -19.050781 32.539062 -18.007812 33.40625 -16.65625 C 34.28125 -15.300781 34.71875 -13.535156 34.71875 -11.359375 C 34.71875 -9.035156 34.175781 -7.015625 33.09375 -5.296875 C 32.007812 -3.578125 30.550781 -2.265625 28.71875 -1.359375 C 26.882812 -0.453125 24.847656 0 22.609375 0 L 2.453125 0 Z M 19.5625 -22.9375 C 22.382812 -22.9375 23.796875 -24.257812 23.796875 -26.90625 C 23.796875 -28.382812 23.429688 -29.40625 22.703125 -29.96875 C 21.984375 -30.53125 20.882812 -30.8125 19.40625 -30.8125 L 12.0625 -30.8125 L 12.0625 -22.9375 Z M 20.15625 -7.171875 C 21.789062 -7.171875 23.003906 -7.476562 23.796875 -8.09375 C 24.597656 -8.707031 25 -9.796875 25 -11.359375 C 25 -12.910156 24.582031 -14.039062 23.75 -14.75 C 22.914062 -15.457031 21.644531 -15.8125 19.9375 -15.8125 L 12.0625 -15.8125 L 12.0625 -7.171875 Z M 20.15625 -7.171875 "/></g></g></g><g fill="#179d2e" fill-opacity="1"><g transform="translate(187.957027, 289.469952)"><g><path d="M 7.015625 0.8125 C 5.816406 0.8125 4.554688 0.691406 3.234375 0.453125 C 1.910156 0.222656 0.921875 -0.0703125 0.265625 -0.4375 L 0.265625 -8.90625 C 0.816406 -8.65625 1.515625 -8.457031 2.359375 -8.3125 C 3.210938 -8.164062 4.070312 -8.09375 4.9375 -8.09375 C 6.539062 -8.09375 7.664062 -8.425781 8.3125 -9.09375 C 8.96875 -9.769531 9.296875 -10.882812 9.296875 -12.4375 L 9.296875 -37.984375 L 18.90625 -37.984375 L 18.90625 -11.359375 C 18.90625 -7.628906 17.890625 -4.664062 15.859375 -2.46875 C 13.835938 -0.28125 10.890625 0.8125 7.015625 0.8125 Z M 7.015625 0.8125 "/></g></g></g><g fill="#179d2e" fill-opacity="1"><g transform="translate(209.036345, 289.469952)"><g><path d="M 16.578125 -37.984375 L 26.03125 -37.984375 L 41.1875 0 L 31.359375 0 L 28.3125 -7.828125 L 14.296875 -7.828125 L 11.25 0 L 1.359375 0 Z M 25.921875 -15.21875 L 21.296875 -27.984375 L 16.625 -15.21875 Z M 25.921875 -15.21875 "/></g></g></g><g fill="#179d2e" fill-opacity="1"><g transform="translate(251.575279, 289.469952)"><g><path d="M 2.453125 -37.984375 L 21.6875 -37.984375 C 25.34375 -37.984375 28.226562 -37.078125 30.34375 -35.265625 C 32.46875 -33.453125 33.53125 -30.863281 33.53125 -27.5 C 33.53125 -25.90625 33.164062 -24.421875 32.4375 -23.046875 C 31.71875 -21.671875 30.6875 -20.582031 29.34375 -19.78125 C 31.1875 -19.050781 32.539062 -18.007812 33.40625 -16.65625 C 34.28125 -15.300781 34.71875 -13.535156 34.71875 -11.359375 C 34.71875 -9.035156 34.175781 -7.015625 33.09375 -5.296875 C 32.007812 -3.578125 30.550781 -2.265625 28.71875 -1.359375 C 26.882812 -0.453125 24.847656 0 22.609375 0 L 2.453125 0 Z M 19.5625 -22.9375 C 22.382812 -22.9375 23.796875 -24.257812 23.796875 -26.90625 C 23.796875 -28.382812 23.429688 -29.40625 22.703125 -29.96875 C 21.984375 -30.53125 20.882812 -30.8125 19.40625 -30.8125 L 12.0625 -30.8125 L 12.0625 -22.9375 Z M 20.15625 -7.171875 C 21.789062 -7.171875 23.003906 -7.476562 23.796875 -8.09375 C 24.597656 -8.707031 25 -9.796875 25 -11.359375 C 25 -12.910156 24.582031 -14.039062 23.75 -14.75 C 22.914062 -15.457031 21.644531 -15.8125 19.9375 -15.8125 L 12.0625 -15.8125 L 12.0625 -7.171875 Z M 20.15625 -7.171875 "/></g></g></g><g fill="#0177b8" fill-opacity="1"><g transform="translate(84.522023, 316.041454)"><g><path d="M 1.3125 -15.375 L 11.71875 -15.375 L 11.71875 -13.046875 L 4.109375 -13.046875 L 4.109375 -8.734375 L 9.765625 -8.734375 L 9.765625 -6.640625 L 4.109375 -6.640625 L 4.109375 0 L 1.3125 0 Z M 1.3125 -15.375 "/></g></g></g><g fill="#0177b8" fill-opacity="1"><g transform="translate(96.685856, 316.041454)"><g><path d="M 1.3125 -15.375 L 4.109375 -15.375 L 4.109375 0 L 1.3125 0 Z M 1.3125 -15.375 "/></g></g></g><g fill="#0177b8" fill-opacity="1"><g transform="translate(102.118893, 316.041454)"><g><path d="M 1.3125 -15.375 L 11.71875 -15.375 L 11.71875 -13.0625 L 4.109375 -13.0625 L 4.109375 -8.84375 L 9.765625 -8.84375 L 9.765625 -6.53125 L 4.109375 -6.53125 L 4.109375 -2.3125 L 11.71875 -2.3125 L 11.71875 0 L 1.3125 0 Z M 1.3125 -15.375 "/></g></g></g><g fill="#0177b8" fill-opacity="1"><g transform="translate(114.502681, 316.041454)"><g><path d="M 1.3125 -15.375 L 4.109375 -15.375 L 4.109375 -2.3125 L 11.5 -2.3125 L 11.5 0 L 1.3125 0 Z M 1.3125 -15.375 "/></g></g></g><g fill="#0177b8" fill-opacity="1"><g transform="translate(126.446547, 316.041454)"><g><path d="M 1.3125 -15.375 L 6.46875 -15.375 C 8.132812 -15.375 9.582031 -15.066406 10.8125 -14.453125 C 12.050781 -13.835938 13 -12.957031 13.65625 -11.8125 C 14.320312 -10.664062 14.65625 -9.316406 14.65625 -7.765625 C 14.65625 -5.210938 13.910156 -3.28125 12.421875 -1.96875 C 10.941406 -0.65625 8.875 0 6.21875 0 L 1.3125 0 Z M 6.265625 -2.3125 C 8.054688 -2.3125 9.429688 -2.789062 10.390625 -3.75 C 11.359375 -4.707031 11.84375 -6.046875 11.84375 -7.765625 C 11.84375 -8.804688 11.628906 -9.722656 11.203125 -10.515625 C 10.773438 -11.316406 10.164062 -11.941406 9.375 -12.390625 C 8.582031 -12.835938 7.644531 -13.0625 6.5625 -13.0625 L 4.109375 -13.0625 L 4.109375 -2.3125 Z M 6.265625 -2.3125 "/></g></g></g><g fill="#0177b8" fill-opacity="1"><g transform="translate(141.975778, 316.041454)"><g/></g></g><g fill="#0177b8" fill-opacity="1"><g transform="translate(149.894368, 316.041454)"><g><path d="M 5.765625 0.328125 C 4.859375 0.328125 3.957031 0.242188 3.0625 0.078125 C 2.175781 -0.0859375 1.445312 -0.3125 0.875 -0.59375 L 0.875 -2.984375 C 1.613281 -2.640625 2.382812 -2.378906 3.1875 -2.203125 C 4 -2.023438 4.789062 -1.9375 5.5625 -1.9375 C 6.550781 -1.9375 7.300781 -2.117188 7.8125 -2.484375 C 8.320312 -2.847656 8.578125 -3.351562 8.578125 -4 C 8.578125 -4.457031 8.457031 -4.835938 8.21875 -5.140625 C 7.988281 -5.441406 7.644531 -5.703125 7.1875 -5.921875 C 6.738281 -6.148438 6.046875 -6.445312 5.109375 -6.8125 C 3.671875 -7.40625 2.628906 -8.0625 1.984375 -8.78125 C 1.335938 -9.5 1.015625 -10.394531 1.015625 -11.46875 C 1.015625 -12.300781 1.238281 -13.039062 1.6875 -13.6875 C 2.144531 -14.332031 2.785156 -14.828125 3.609375 -15.171875 C 4.429688 -15.523438 5.378906 -15.703125 6.453125 -15.703125 C 7.328125 -15.703125 8.101562 -15.632812 8.78125 -15.5 C 9.46875 -15.363281 10.140625 -15.144531 10.796875 -14.84375 L 10.796875 -12.515625 C 9.523438 -13.128906 8.238281 -13.4375 6.9375 -13.4375 C 5.988281 -13.4375 5.257812 -13.265625 4.75 -12.921875 C 4.238281 -12.578125 3.984375 -12.09375 3.984375 -11.46875 C 3.984375 -11.007812 4.097656 -10.632812 4.328125 -10.34375 C 4.566406 -10.0625 4.878906 -9.820312 5.265625 -9.625 C 5.660156 -9.425781 6.363281 -9.113281 7.375 -8.6875 C 8.394531 -8.257812 9.203125 -7.835938 9.796875 -7.421875 C 10.390625 -7.015625 10.835938 -6.535156 11.140625 -5.984375 C 11.441406 -5.441406 11.59375 -4.773438 11.59375 -3.984375 C 11.59375 -2.617188 11.097656 -1.554688 10.109375 -0.796875 C 9.128906 -0.046875 7.679688 0.328125 5.765625 0.328125 Z M 5.765625 0.328125 "/></g></g></g><g fill="#0177b8" fill-opacity="1"><g transform="translate(162.36615, 316.041454)"><g><path d="M 1.3125 -15.375 L 11.71875 -15.375 L 11.71875 -13.0625 L 4.109375 -13.0625 L 4.109375 -8.84375 L 9.765625 -8.84375 L 9.765625 -6.53125 L 4.109375 -6.53125 L 4.109375 -2.3125 L 11.71875 -2.3125 L 11.71875 0 L 1.3125 0 Z M 1.3125 -15.375 "/></g></g></g><g fill="#0177b8" fill-opacity="1"><g transform="translate(174.749938, 316.041454)"><g><path d="M 1.3125 -15.375 L 7.75 -15.375 C 9.445312 -15.375 10.753906 -14.957031 11.671875 -14.125 C 12.597656 -13.289062 13.0625 -12.082031 13.0625 -10.5 C 13.0625 -9.363281 12.78125 -8.398438 12.21875 -7.609375 C 11.664062 -6.816406 10.878906 -6.253906 9.859375 -5.921875 L 12.984375 0 L 10.125 0 L 7.15625 -5.625 L 4.109375 -5.625 L 4.109375 0 L 1.3125 0 Z M 7.234375 -7.9375 C 8.148438 -7.9375 8.882812 -8.148438 9.4375 -8.578125 C 10 -9.003906 10.28125 -9.644531 10.28125 -10.5 C 10.28125 -12.207031 9.265625 -13.0625 7.234375 -13.0625 L 4.109375 -13.0625 L 4.109375 -7.9375 Z M 7.234375 -7.9375 "/></g></g></g><g fill="#0177b8" fill-opacity="1"><g transform="translate(188.695456, 316.041454)"><g><path d="M 0.875 -15.375 L 3.84375 -15.375 L 8.375 -3.734375 L 12.9375 -15.375 L 15.890625 -15.375 L 9.75 0 L 7.046875 0 Z M 0.875 -15.375 "/></g></g></g><g fill="#0177b8" fill-opacity="1"><g transform="translate(205.456471, 316.041454)"><g><path d="M 1.3125 -15.375 L 4.109375 -15.375 L 4.109375 0 L 1.3125 0 Z M 1.3125 -15.375 "/></g></g></g><g fill="#0177b8" fill-opacity="1"><g transform="translate(210.889508, 316.041454)"><g><path d="M 9.109375 0.328125 C 7.492188 0.328125 6.0625 0.00390625 4.8125 -0.640625 C 3.570312 -1.296875 2.601562 -2.226562 1.90625 -3.4375 C 1.21875 -4.65625 0.875 -6.066406 0.875 -7.671875 C 0.875 -9.285156 1.21875 -10.695312 1.90625 -11.90625 C 2.601562 -13.125 3.570312 -14.0625 4.8125 -14.71875 C 6.0625 -15.375 7.492188 -15.703125 9.109375 -15.703125 C 11.234375 -15.703125 13.007812 -15.195312 14.4375 -14.1875 L 14.4375 -11.53125 C 13.15625 -12.613281 11.457031 -13.15625 9.34375 -13.15625 C 8.21875 -13.15625 7.226562 -12.929688 6.375 -12.484375 C 5.53125 -12.035156 4.875 -11.398438 4.40625 -10.578125 C 3.9375 -9.753906 3.703125 -8.785156 3.703125 -7.671875 C 3.703125 -6.554688 3.9375 -5.585938 4.40625 -4.765625 C 4.882812 -3.953125 5.546875 -3.320312 6.390625 -2.875 C 7.242188 -2.425781 8.226562 -2.203125 9.34375 -2.203125 C 10.4375 -2.203125 11.40625 -2.335938 12.25 -2.609375 C 13.101562 -2.878906 13.890625 -3.316406 14.609375 -3.921875 L 14.609375 -1.25 C 13.253906 -0.195312 11.421875 0.328125 9.109375 0.328125 Z M 9.109375 0.328125 "/></g></g></g><g fill="#0177b8" fill-opacity="1"><g transform="translate(226.374748, 316.041454)"><g><path d="M 1.3125 -15.375 L 11.71875 -15.375 L 11.71875 -13.0625 L 4.109375 -13.0625 L 4.109375 -8.84375 L 9.765625 -8.84375 L 9.765625 -6.53125 L 4.109375 -6.53125 L 4.109375 -2.3125 L 11.71875 -2.3125 L 11.71875 0 L 1.3125 0 Z M 1.3125 -15.375 "/></g></g></g><g fill="#0177b8" fill-opacity="1"><g transform="translate(238.758536, 316.041454)"><g/></g></g><g fill="#0177b8" fill-opacity="1"><g transform="translate(246.677126, 316.041454)"><g><path d="M 7.046875 -15.375 L 9.75 -15.375 L 15.890625 0 L 13.046875 0 L 11.640625 -3.546875 L 5.125 -3.546875 L 3.734375 0 L 0.875 0 Z M 10.875 -5.859375 L 8.375 -12.390625 L 5.890625 -5.859375 Z M 10.875 -5.859375 "/></g></g></g><g fill="#0177b8" fill-opacity="1"><g transform="translate(263.438142, 316.041454)"><g><path d="M 1.3125 -15.375 L 7.484375 -15.375 C 9.171875 -15.375 10.519531 -14.925781 11.53125 -14.03125 C 12.550781 -13.132812 13.0625 -11.910156 13.0625 -10.359375 C 13.0625 -8.742188 12.554688 -7.515625 11.546875 -6.671875 C 10.535156 -5.828125 9.171875 -5.40625 7.453125 -5.40625 L 4.109375 -5.40625 L 4.109375 0 L 1.3125 0 Z M 7.125 -7.71875 C 9.226562 -7.71875 10.28125 -8.597656 10.28125 -10.359375 C 10.28125 -12.160156 9.226562 -13.0625 7.125 -13.0625 L 4.109375 -13.0625 L 4.109375 -7.71875 Z M 7.125 -7.71875 "/></g></g></g><g fill="#0177b8" fill-opacity="1"><g transform="translate(276.943748, 316.041454)"><g><path d="M 1.3125 -15.375 L 7.484375 -15.375 C 9.171875 -15.375 10.519531 -14.925781 11.53125 -14.03125 C 12.550781 -13.132812 13.0625 -11.910156 13.0625 -10.359375 C 13.0625 -8.742188 12.554688 -7.515625 11.546875 -6.671875 C 10.535156 -5.828125 9.171875 -5.40625 7.453125 -5.40625 L 4.109375 -5.40625 L 4.109375 0 L 1.3125 0 Z M 7.125 -7.71875 C 9.226562 -7.71875 10.28125 -8.597656 10.28125 -10.359375 C 10.28125 -12.160156 9.226562 -13.0625 7.125 -13.0625 L 4.109375 -13.0625 L 4.109375 -7.71875 Z M 7.125 -7.71875 "/></g></g></g><g clip-path="url(#c12abbc517)"><path fill="#ffffff" d="M 185.746094 41.386719 L 290.144531 41.386719 L 290.144531 145.785156 L 185.746094 145.785156 Z M 185.746094 41.386719 " fill-opacity="1" fill-rule="nonzero"/><path fill="#ffffff" d="M 185.746094 41.386719 L 290.144531 41.386719 L 290.144531 145.785156 L 185.746094 145.785156 Z M 185.746094 41.386719 " fill-opacity="1" fill-rule="nonzero"/><path fill="#0177b8" d="M 175.304688 30.945312 L 300.585938 30.945312 L 300.585938 156.226562 L 175.304688 156.226562 Z M 175.304688 30.945312 " fill-opacity="1" fill-rule="nonzero"/></g><g clip-path="url(#451a677bde)"><g clip-path="url(#d7082e18a2)"><g clip-path="url(#a04f2f4b6e)"><g clip-path="url(#f7f95582a5)"><g clip-path="url(#2e61adf0bb)"><path fill="#ffffff" d="M 218.648438 50.085938 L 278.007812 68.457031 L 210.402344 286.882812 L 151.042969 268.511719 Z M 218.648438 50.085938 " fill-opacity="1" fill-rule="nonzero"/></g></g></g></g></g><g clip-path="url(#ef8c016c35)"><path fill="#ffffff" d="M 85.050781 41.386719 L 189.449219 41.386719 L 189.449219 145.785156 L 85.050781 145.785156 Z M 85.050781 41.386719 " fill-opacity="1" fill-rule="nonzero"/><path fill="#ffffff" d="M 85.050781 41.386719 L 189.449219 41.386719 L 189.449219 145.785156 L 85.050781 145.785156 Z M 85.050781 41.386719 " fill-opacity="1" fill-rule="nonzero"/><path fill="#179d2e" d="M 74.609375 30.945312 L 199.890625 30.945312 L 199.890625 156.226562 L 74.609375 156.226562 Z M 74.609375 30.945312 " fill-opacity="1" fill-rule="nonzero"/></g><g clip-path="url(#4e9e1ccbd2)"><g clip-path="url(#3550bf2f7b)"><g clip-path="url(#8bf74958d0)"><g clip-path="url(#7aaadbf430)"><g clip-path="url(#b0019a7442)"><path fill="#ffffff" d="M 106.726562 66.441406 L 124.355469 50.085938 L 194.761719 125.972656 L 177.132812 142.328125 Z M 106.726562 66.441406 " fill-opacity="1" fill-rule="nonzero"/></g></g></g></g></g><g clip-path="url(#47ef3172c3)"><g clip-path="url(#7e70c3c054)"><g clip-path="url(#eb14ce7543)"><g clip-path="url(#900afc2408)"><g clip-path="url(#7df4b516f4)"><path fill="#ffffff" d="M 108.90625 100.8125 L 119.464844 91.019531 L 161.628906 136.464844 L 151.070312 146.261719 Z M 108.90625 100.8125 " fill-opacity="1" fill-rule="nonzero"/></g></g></g></g></g><g clip-path="url(#bf94decca8)"><path fill="#ffffff" d="M 185.746094 142.078125 L 290.144531 142.078125 L 290.144531 246.480469 L 185.746094 246.480469 Z M 185.746094 142.078125 " fill-opacity="1" fill-rule="nonzero"/><path fill="#ffffff" d="M 185.746094 142.078125 L 290.144531 142.078125 L 290.144531 246.480469 L 185.746094 246.480469 Z M 185.746094 142.078125 " fill-opacity="1" fill-rule="nonzero"/><path fill="#f02e2c" d="M 175.304688 131.640625 L 300.585938 131.640625 L 300.585938 256.917969 L 175.304688 256.917969 Z M 175.304688 131.640625 " fill-opacity="1" fill-rule="nonzero"/></g><g clip-path="url(#0c50da8046)"><g clip-path="url(#2853afa77f)"><g clip-path="url(#e7f56d1ca2)"><path fill="#ffffff" d="M 190.988281 149.96875 C 190.332031 149.046875 190.546875 147.773438 191.464844 147.117188 C 192.386719 146.460938 193.660156 146.671875 194.316406 147.59375 C 194.972656 148.515625 194.757812 149.789062 193.835938 150.445312 C 192.921875 151.097656 191.644531 150.886719 190.988281 149.96875 Z M 237.171875 205.25 C 237.144531 203.871094 237.710938 202.535156 238.714844 201.589844 L 250.605469 190.371094 C 250.871094 190.121094 251.160156 189.90625 251.472656 189.734375 L 192.933594 141.753906 L 185.316406 146.246094 L 184.171875 148.988281 L 186.574219 148.921875 L 185.726562 151.171875 L 188.132812 151.105469 L 187.285156 153.355469 L 189.691406 153.289062 L 188.84375 155.539062 L 191.25 155.472656 L 190.402344 157.722656 L 192.808594 157.65625 L 191.960938 159.910156 L 194.363281 159.839844 L 193.515625 162.089844 L 195.921875 162.023438 L 195.074219 164.277344 L 197.480469 164.207031 L 196.632812 166.460938 L 199.035156 166.390625 L 198.191406 168.644531 L 200.59375 168.578125 L 199.746094 170.828125 L 202.152344 170.761719 L 201.304688 173.011719 L 203.710938 172.945312 L 202.863281 175.195312 L 205.265625 175.128906 L 204.421875 177.378906 L 206.824219 177.3125 L 205.976562 179.5625 L 208.382812 179.496094 L 207.535156 181.746094 L 209.941406 181.679688 L 209.09375 183.929688 L 211.5 183.863281 L 210.652344 186.117188 L 213.054688 186.046875 L 212.207031 188.300781 L 214.613281 188.230469 L 213.765625 190.484375 L 216.171875 190.414062 L 215.324219 192.667969 L 217.726562 192.597656 L 216.882812 194.851562 L 219.285156 194.785156 L 218.4375 197.035156 L 220.84375 196.96875 L 219.996094 199.21875 L 222.402344 199.152344 L 221.554688 201.402344 L 223.957031 201.335938 L 223.113281 203.585938 L 225.515625 203.519531 L 224.667969 205.769531 L 227.074219 205.703125 L 226.226562 207.953125 L 228.632812 207.886719 L 227.785156 210.136719 L 230.191406 210.070312 L 229.34375 212.320312 L 231.746094 212.253906 L 230.898438 214.503906 L 233.304688 214.4375 L 232.457031 216.6875 L 234.863281 216.621094 L 234.015625 218.875 L 236.417969 218.804688 L 235.574219 221.058594 L 237.421875 221.007812 L 237.171875 205.25 " fill-opacity="1" fill-rule="nonzero"/></g></g></g><g clip-path="url(#7fa2c82604)"><g clip-path="url(#9266fc0002)"><g clip-path="url(#e27cf2fc72)"><path fill="#ffffff" d="M 249.894531 229.15625 L 247.820312 227.527344 C 247.476562 227.257812 247.195312 226.925781 246.980469 226.558594 C 246.671875 226.019531 246.511719 225.402344 246.53125 224.769531 L 246.90625 212.519531 L 246.953125 210.933594 C 246.976562 210.144531 247.316406 209.402344 247.894531 208.871094 L 248.730469 208.105469 L 253.761719 203.476562 C 254.742188 202.578125 256.242188 202.566406 257.238281 203.449219 L 263.308594 208.84375 C 263.519531 209.035156 263.695312 209.25 263.832031 209.488281 C 264.296875 210.296875 264.300781 211.316406 263.789062 212.144531 L 253.664062 228.488281 C 252.855469 229.789062 251.097656 230.101562 249.894531 229.15625 Z M 241.574219 221.230469 C 241.125 220.449219 241.394531 219.449219 242.175781 219 C 242.957031 218.550781 243.953125 218.820312 244.40625 219.601562 C 244.855469 220.382812 244.585938 221.378906 243.804688 221.828125 C 243.023438 222.277344 242.023438 222.011719 241.574219 221.230469 Z M 242.195312 207.097656 C 241.746094 206.316406 242.015625 205.320312 242.796875 204.867188 C 243.578125 204.417969 244.574219 204.6875 245.023438 205.46875 C 245.472656 206.25 245.207031 207.25 244.425781 207.699219 C 243.640625 208.148438 242.644531 207.878906 242.195312 207.097656 Z M 251.878906 197.753906 C 251.429688 196.972656 251.699219 195.976562 252.480469 195.527344 C 253.261719 195.078125 254.257812 195.34375 254.710938 196.125 C 255.160156 196.90625 254.890625 197.90625 254.109375 198.355469 C 253.328125 198.804688 252.332031 198.539062 251.878906 197.753906 Z M 262.828125 243.453125 C 263.085938 243.15625 263.234375 242.792969 263.273438 242.414062 C 263.3125 242.039062 263.242188 241.652344 263.050781 241.304688 L 262.316406 239.976562 C 261.902344 239.222656 261.953125 238.304688 262.441406 237.601562 C 264.511719 234.636719 270.121094 226.363281 274.070312 218.320312 C 274.621094 217.203125 275.515625 216.292969 276.628906 215.726562 L 278.320312 214.863281 C 278.597656 214.722656 278.832031 214.511719 279.007812 214.257812 C 279.410156 213.667969 279.429688 212.90625 279.078125 212.300781 C 279.039062 212.226562 278.992188 212.15625 278.941406 212.089844 L 277.472656 210.195312 C 277.050781 209.652344 276.5625 209.175781 276.015625 208.765625 C 273.101562 206.59375 263.003906 198.972656 255.164062 191.882812 C 254.664062 191.429688 254.011719 191.238281 253.386719 191.300781 C 252.90625 191.355469 252.4375 191.558594 252.0625 191.914062 L 240.171875 203.132812 C 239.597656 203.671875 239.277344 204.429688 239.292969 205.21875 L 239.613281 225.265625 C 239.613281 225.300781 239.613281 225.332031 239.617188 225.367188 C 239.636719 225.675781 239.726562 225.976562 239.882812 226.242188 C 239.996094 226.445312 240.144531 226.625 240.324219 226.777344 L 260.160156 243.664062 C 260.957031 244.339844 262.148438 244.246094 262.828125 243.453125 " fill-opacity="1" fill-rule="nonzero"/></g></g></g><g clip-path="url(#e608e3865b)"><path fill="#ffffff" d="M 85.050781 142.078125 L 189.449219 142.078125 L 189.449219 246.480469 L 85.050781 246.480469 Z M 85.050781 142.078125 " fill-opacity="1" fill-rule="nonzero"/><path fill="#ffffff" d="M 85.050781 142.078125 L 189.449219 142.078125 L 189.449219 246.480469 L 85.050781 246.480469 Z M 85.050781 142.078125 " fill-opacity="1" fill-rule="nonzero"/><path fill="#f5af23" d="M 74.609375 131.640625 L 199.890625 131.640625 L 199.890625 256.917969 L 74.609375 256.917969 Z M 74.609375 131.640625 " fill-opacity="1" fill-rule="nonzero"/></g><g clip-path="url(#a5861ca10f)"><g clip-path="url(#6b8c273272)"><g clip-path="url(#3cd45ba8fd)"><g clip-path="url(#ae19381655)"><g clip-path="url(#23bf0349ca)"><path fill="#ffffff" d="M 113.113281 154.5625 L 175.597656 178.277344 L 134.742188 285.917969 L 72.257812 262.199219 Z M 113.113281 154.5625 " fill-opacity="1" fill-rule="nonzero"/></g></g></g></g></g></svg>