<svg xmlns="http://www.w3.org/2000/svg" xmlns:xlink="http://www.w3.org/1999/xlink" width="364" zoomAndPan="magnify" viewBox="0 0 273 91.5" height="122" preserveAspectRatio="xMidYMid meet" version="1.0"><defs><g/></defs><g fill="#3871c1" fill-opacity="1"><g transform="translate(111.133601, 56.192196)"><g><path d="M 46.1875 -41.796875 C 46.1875 -41.390625 46.070312 -40.734375 45.84375 -39.828125 C 45.613281 -38.921875 45.375 -37.914062 45.125 -36.8125 C 44.84375 -35.570312 44.628906 -34.457031 44.484375 -33.46875 C 44.335938 -32.488281 44.144531 -31.363281 43.90625 -30.09375 C 43.613281 -28.53125 43.3125 -27.128906 43 -25.890625 C 42.695312 -24.660156 42.316406 -23.265625 41.859375 -21.703125 C 41.578125 -20.753906 41.332031 -19.890625 41.125 -19.109375 C 40.914062 -18.328125 40.710938 -17.46875 40.515625 -16.53125 C 40.347656 -15.78125 40.222656 -15.109375 40.140625 -14.515625 C 40.054688 -13.921875 39.929688 -13.253906 39.765625 -12.515625 C 39.554688 -11.609375 39.335938 -10.804688 39.109375 -10.109375 C 38.890625 -9.410156 38.675781 -8.609375 38.46875 -7.703125 C 38.3125 -6.921875 38.148438 -6.203125 37.984375 -5.546875 C 37.816406 -4.890625 37.609375 -4.148438 37.359375 -3.328125 C 37.160156 -2.671875 36.945312 -2.0625 36.71875 -1.5 C 36.488281 -0.945312 36.25 -0.570312 36 -0.375 C 35.71875 -0.125 35.429688 0.0195312 35.140625 0.0625 C 34.859375 0.101562 34.550781 0.125 34.21875 0.125 C 33.394531 0.125 32.664062 0.101562 32.03125 0.0625 C 31.394531 0.0195312 30.664062 0 29.84375 0 C 29.382812 0 28.957031 0.0195312 28.5625 0.0625 C 28.175781 0.101562 27.757812 0.125 27.3125 0.125 C 26.90625 0.125 26.597656 0.0390625 26.390625 -0.125 C 26.179688 -0.289062 25.992188 -0.472656 25.828125 -0.671875 C 25.785156 -0.710938 25.742188 -0.804688 25.703125 -0.953125 C 25.671875 -1.097656 25.65625 -1.171875 25.65625 -1.171875 C 25.65625 -1.171875 25.582031 -1.457031 25.4375 -2.03125 C 25.289062 -2.601562 25.144531 -3.257812 25 -4 C 24.851562 -4.75 24.71875 -5.410156 24.59375 -5.984375 C 24.476562 -6.554688 24.421875 -6.84375 24.421875 -6.84375 C 24.296875 -7.375 24.203125 -7.84375 24.140625 -8.25 C 24.078125 -8.664062 23.984375 -9.125 23.859375 -9.625 C 23.816406 -9.695312 23.710938 -10.039062 23.546875 -10.65625 C 23.390625 -11.28125 23.164062 -11.613281 22.875 -11.65625 C 22.46875 -11.738281 22.148438 -11.367188 21.921875 -10.546875 C 21.691406 -9.722656 21.472656 -8.960938 21.265625 -8.265625 C 20.984375 -7.359375 20.738281 -6.535156 20.53125 -5.796875 C 20.320312 -5.054688 20.078125 -4.210938 19.796875 -3.265625 C 19.671875 -2.859375 19.535156 -2.382812 19.390625 -1.84375 C 19.242188 -1.3125 19.148438 -1.023438 19.109375 -0.984375 C 18.984375 -0.816406 18.921875 -0.710938 18.921875 -0.671875 C 18.921875 -0.628906 18.820312 -0.507812 18.625 -0.3125 C 18.375 -0.0625 17.960938 0.0625 17.390625 0.0625 C 16.734375 0.0625 16.15625 0.0507812 15.65625 0.03125 C 15.164062 0.0078125 14.613281 0 14 0 C 13.582031 0 13.144531 0.0078125 12.6875 0.03125 C 12.238281 0.0507812 11.789062 0.0625 11.34375 0.0625 C 10.8125 0.0625 10.390625 0.0078125 10.078125 -0.09375 C 9.773438 -0.195312 9.476562 -0.390625 9.1875 -0.671875 C 8.8125 -1.046875 8.5 -1.960938 8.25 -3.421875 C 8.007812 -4.878906 7.742188 -6.328125 7.453125 -7.765625 C 7.128906 -9.703125 6.726562 -11.429688 6.25 -12.953125 C 5.78125 -14.472656 5.320312 -16.175781 4.875 -18.0625 C 4.582031 -19.21875 4.375 -20.242188 4.25 -21.140625 C 4.125 -22.046875 3.921875 -23.054688 3.640625 -24.171875 C 3.390625 -25.117188 3.140625 -25.972656 2.890625 -26.734375 C 2.648438 -27.492188 2.425781 -28.320312 2.21875 -29.21875 C 2.175781 -29.382812 2.082031 -29.878906 1.9375 -30.703125 C 1.789062 -31.523438 1.613281 -32.507812 1.40625 -33.65625 C 1.207031 -34.8125 1.003906 -35.953125 0.796875 -37.078125 C 0.597656 -38.210938 0.4375 -39.191406 0.3125 -40.015625 C 0.1875 -40.835938 0.125 -41.332031 0.125 -41.5 C 0.125 -42.363281 0.273438 -42.9375 0.578125 -43.21875 C 0.890625 -43.507812 1.238281 -43.664062 1.625 -43.6875 C 2.019531 -43.707031 2.363281 -43.71875 2.65625 -43.71875 C 3.394531 -43.71875 4.070312 -43.6875 4.6875 -43.625 C 5.300781 -43.5625 5.976562 -43.53125 6.71875 -43.53125 C 7.175781 -43.53125 7.566406 -43.550781 7.890625 -43.59375 C 8.222656 -43.632812 8.59375 -43.65625 9 -43.65625 C 9.820312 -43.65625 10.40625 -43.382812 10.75 -42.84375 C 11.101562 -42.3125 11.34375 -41.707031 11.46875 -41.03125 C 11.59375 -40.351562 11.675781 -39.789062 11.71875 -39.34375 C 11.800781 -38.800781 11.878906 -38.3125 11.953125 -37.875 C 12.035156 -37.445312 12.117188 -36.945312 12.203125 -36.375 C 12.578125 -34.445312 12.988281 -32.722656 13.4375 -31.203125 C 13.894531 -29.679688 14.347656 -27.953125 14.796875 -26.015625 C 14.960938 -25.398438 15.125 -24.691406 15.28125 -23.890625 C 15.445312 -23.085938 15.59375 -22.378906 15.71875 -21.765625 C 15.84375 -21.148438 15.90625 -20.820312 15.90625 -20.78125 C 16.03125 -20.613281 16.132812 -20.53125 16.21875 -20.53125 C 16.539062 -20.53125 16.703125 -20.648438 16.703125 -20.890625 C 16.703125 -21.140625 16.742188 -21.410156 16.828125 -21.703125 C 16.910156 -21.910156 17.015625 -22.269531 17.140625 -22.78125 C 17.265625 -23.289062 17.347656 -23.628906 17.390625 -23.796875 C 17.597656 -24.742188 17.800781 -25.597656 18 -26.359375 C 18.207031 -27.117188 18.4375 -27.953125 18.6875 -28.859375 C 18.476562 -29.640625 18.269531 -30.421875 18.0625 -31.203125 C 17.851562 -31.984375 17.671875 -32.765625 17.515625 -33.546875 C 17.347656 -34.367188 17.210938 -35.109375 17.109375 -35.765625 C 17.003906 -36.421875 16.847656 -37.160156 16.640625 -37.984375 C 16.523438 -38.554688 16.382812 -39.171875 16.21875 -39.828125 C 16.050781 -40.484375 15.96875 -41.097656 15.96875 -41.671875 C 15.96875 -42.453125 16.160156 -42.976562 16.546875 -43.25 C 16.941406 -43.519531 17.351562 -43.65625 17.78125 -43.65625 C 18.21875 -43.65625 18.476562 -43.65625 18.5625 -43.65625 C 19.257812 -43.65625 19.882812 -43.625 20.4375 -43.5625 C 20.988281 -43.5 21.597656 -43.46875 22.265625 -43.46875 C 22.835938 -43.46875 23.316406 -43.488281 23.703125 -43.53125 C 24.097656 -43.570312 24.5625 -43.59375 25.09375 -43.59375 C 26.320312 -43.59375 27.007812 -43.265625 27.15625 -42.609375 C 27.300781 -41.953125 27.4375 -40.898438 27.5625 -39.453125 C 27.601562 -38.921875 27.65625 -38.414062 27.71875 -37.9375 C 27.78125 -37.46875 27.851562 -36.945312 27.9375 -36.375 C 28.257812 -34.113281 28.613281 -32.097656 29 -30.328125 C 29.394531 -28.566406 29.675781 -26.535156 29.84375 -24.234375 C 29.882812 -23.691406 29.9375 -23.101562 30 -22.46875 C 30.0625 -21.832031 30.140625 -21.273438 30.234375 -20.796875 C 30.335938 -20.328125 30.492188 -20.09375 30.703125 -20.09375 C 30.910156 -20.09375 31.078125 -20.335938 31.203125 -20.828125 C 31.328125 -21.328125 31.414062 -21.90625 31.46875 -22.5625 C 31.53125 -23.21875 31.601562 -23.796875 31.6875 -24.296875 C 31.851562 -25.234375 32.03125 -26.070312 32.21875 -26.8125 C 32.40625 -27.5625 32.578125 -28.382812 32.734375 -29.28125 C 32.859375 -30.1875 32.953125 -31.007812 33.015625 -31.75 C 33.078125 -32.488281 33.191406 -33.3125 33.359375 -34.21875 C 33.484375 -34.914062 33.613281 -35.550781 33.75 -36.125 C 33.894531 -36.707031 34.007812 -37.367188 34.09375 -38.109375 C 34.09375 -38.148438 34.113281 -38.488281 34.15625 -39.125 C 34.195312 -39.757812 34.238281 -40.382812 34.28125 -41 C 34.320312 -41.613281 34.34375 -41.941406 34.34375 -41.984375 C 34.34375 -42.066406 34.375 -42.226562 34.4375 -42.46875 C 34.5 -42.71875 34.628906 -42.945312 34.828125 -43.15625 C 35.117188 -43.445312 35.394531 -43.613281 35.65625 -43.65625 C 35.925781 -43.695312 36.332031 -43.71875 36.875 -43.71875 C 37.488281 -43.71875 38.039062 -43.6875 38.53125 -43.625 C 39.03125 -43.5625 39.585938 -43.507812 40.203125 -43.46875 C 40.734375 -43.46875 41.203125 -43.488281 41.609375 -43.53125 C 42.023438 -43.570312 42.476562 -43.59375 42.96875 -43.59375 C 43.34375 -43.59375 43.785156 -43.582031 44.296875 -43.5625 C 44.816406 -43.539062 45.257812 -43.40625 45.625 -43.15625 C 46 -42.914062 46.1875 -42.460938 46.1875 -41.796875 Z M 46.1875 -41.796875 "/></g></g></g><g fill="#3871c1" fill-opacity="1"><g transform="translate(155.586913, 56.192196)"><g><path d="M 30.640625 -2.46875 C 30.640625 -2.46875 30.597656 -2.257812 30.515625 -1.84375 C 30.429688 -1.4375 30.242188 -1.023438 29.953125 -0.609375 C 29.671875 -0.203125 29.222656 0 28.609375 0 C 27.867188 0 27.195312 -0.03125 26.59375 -0.09375 C 26 -0.15625 25.332031 -0.1875 24.59375 -0.1875 C 23.976562 -0.1875 23.425781 -0.164062 22.9375 -0.125 C 22.445312 -0.0820312 21.890625 -0.0625 21.265625 -0.0625 C 20.523438 -0.0625 20.019531 -0.203125 19.75 -0.484375 C 19.488281 -0.773438 19.347656 -1.101562 19.328125 -1.46875 C 19.304688 -1.84375 19.273438 -2.132812 19.234375 -2.34375 C 19.234375 -2.550781 19.203125 -2.984375 19.140625 -3.640625 C 19.078125 -4.296875 19.003906 -4.960938 18.921875 -5.640625 C 18.847656 -6.316406 18.707031 -6.738281 18.5 -6.90625 C 18.332031 -7.070312 18.257812 -7.144531 18.28125 -7.125 C 18.300781 -7.101562 18.207031 -7.15625 18 -7.28125 C 17.957031 -7.320312 17.472656 -7.351562 16.546875 -7.375 C 15.628906 -7.394531 14.820312 -7.40625 14.125 -7.40625 C 12.96875 -7.40625 12.304688 -7.25 12.140625 -6.9375 C 11.984375 -6.625 11.84375 -6.117188 11.71875 -5.421875 C 11.71875 -5.253906 11.695312 -4.832031 11.65625 -4.15625 C 11.613281 -3.476562 11.550781 -2.8125 11.46875 -2.15625 C 11.382812 -1.5 11.28125 -1.066406 11.15625 -0.859375 C 10.945312 -0.578125 10.71875 -0.375 10.46875 -0.25 C 10.226562 -0.125 9.863281 -0.0625 9.375 -0.0625 C 8.800781 -0.0625 8.273438 -0.0703125 7.796875 -0.09375 C 7.328125 -0.113281 6.804688 -0.125 6.234375 -0.125 C 5.609375 -0.125 4.988281 -0.113281 4.375 -0.09375 C 3.757812 -0.0703125 3.144531 -0.0625 2.53125 -0.0625 C 1.988281 -0.0625 1.460938 -0.148438 0.953125 -0.328125 C 0.441406 -0.515625 0.1875 -1.019531 0.1875 -1.84375 C 0.1875 -2.09375 0.238281 -2.484375 0.34375 -3.015625 C 0.445312 -3.554688 0.554688 -4.15625 0.671875 -4.8125 C 0.796875 -5.632812 0.890625 -6.351562 0.953125 -6.96875 C 1.015625 -7.582031 1.128906 -8.28125 1.296875 -9.0625 C 1.421875 -9.757812 1.539062 -10.394531 1.65625 -10.96875 C 1.78125 -11.550781 1.90625 -12.191406 2.03125 -12.890625 C 2.238281 -13.910156 2.382812 -14.820312 2.46875 -15.625 C 2.550781 -16.425781 2.675781 -17.34375 2.84375 -18.375 C 3 -19.40625 3.160156 -20.3125 3.328125 -21.09375 C 3.492188 -21.875 3.640625 -22.773438 3.765625 -23.796875 C 3.847656 -24.492188 3.914062 -25.140625 3.96875 -25.734375 C 4.03125 -26.335938 4.125 -27.007812 4.25 -27.75 C 4.414062 -28.570312 4.582031 -29.332031 4.75 -30.03125 C 4.914062 -30.726562 5.078125 -31.488281 5.234375 -32.3125 C 5.484375 -33.625 5.660156 -34.789062 5.765625 -35.8125 C 5.867188 -36.84375 6.0625 -38 6.34375 -39.28125 C 6.550781 -40.101562 6.769531 -40.863281 7 -41.5625 C 7.226562 -42.257812 7.484375 -42.75 7.765625 -43.03125 C 8.335938 -43.488281 9.242188 -43.71875 10.484375 -43.71875 C 11.546875 -43.71875 12.5 -43.675781 13.34375 -43.59375 C 14.1875 -43.507812 15.125 -43.46875 16.15625 -43.46875 C 16.9375 -43.46875 17.71875 -43.476562 18.5 -43.5 C 19.28125 -43.519531 20.0625 -43.53125 20.84375 -43.53125 L 21.09375 -43.53125 C 21.90625 -43.53125 22.488281 -43.445312 22.84375 -43.28125 C 23.195312 -43.113281 23.515625 -42.765625 23.796875 -42.234375 C 23.878906 -42.191406 23.941406 -42.078125 23.984375 -41.890625 C 24.023438 -41.710938 24.066406 -41.582031 24.109375 -41.5 C 24.109375 -41.5 24.160156 -41.195312 24.265625 -40.59375 C 24.367188 -40 24.5 -39.332031 24.65625 -38.59375 C 24.820312 -37.851562 24.957031 -37.1875 25.0625 -36.59375 C 25.164062 -36 25.21875 -35.703125 25.21875 -35.703125 C 25.382812 -34.710938 25.503906 -33.816406 25.578125 -33.015625 C 25.660156 -32.210938 25.785156 -31.316406 25.953125 -30.328125 C 26.160156 -29.140625 26.359375 -28.0625 26.546875 -27.09375 C 26.734375 -26.132812 26.945312 -25.054688 27.1875 -23.859375 C 27.394531 -22.910156 27.578125 -22.035156 27.734375 -21.234375 C 27.898438 -20.429688 28.046875 -19.5625 28.171875 -18.625 C 28.378906 -17.34375 28.515625 -16.195312 28.578125 -15.1875 C 28.640625 -14.1875 28.753906 -13.050781 28.921875 -11.78125 C 29.117188 -10.539062 29.351562 -9.253906 29.625 -7.921875 C 29.894531 -6.585938 30.128906 -5.414062 30.328125 -4.40625 C 30.535156 -3.394531 30.640625 -2.75 30.640625 -2.46875 Z M 17.390625 -20.09375 C 17.390625 -21.207031 17.316406 -22.304688 17.171875 -23.390625 C 17.023438 -24.484375 16.878906 -25.441406 16.734375 -26.265625 C 16.597656 -27.085938 16.507812 -27.644531 16.46875 -27.9375 C 16.425781 -28.425781 16.375 -28.9375 16.3125 -29.46875 C 16.25 -30 16.175781 -30.304688 16.09375 -30.390625 C 15.96875 -30.847656 15.757812 -31.078125 15.46875 -31.078125 C 15.226562 -31.078125 15.066406 -30.867188 14.984375 -30.453125 C 14.941406 -30.367188 14.878906 -30.128906 14.796875 -29.734375 C 14.710938 -29.347656 14.640625 -28.96875 14.578125 -28.59375 C 14.515625 -28.226562 14.460938 -27.988281 14.421875 -27.875 C 14.335938 -27.5 14.253906 -27.15625 14.171875 -26.84375 C 14.097656 -26.539062 14.019531 -26.203125 13.9375 -25.828125 C 13.9375 -25.710938 13.894531 -25.363281 13.8125 -24.78125 C 13.726562 -24.207031 13.632812 -23.570312 13.53125 -22.875 C 13.425781 -22.175781 13.332031 -21.546875 13.25 -20.984375 C 13.164062 -20.429688 13.125 -20.097656 13.125 -19.984375 C 13.125 -19.035156 13.316406 -18.445312 13.703125 -18.21875 C 14.097656 -17.988281 14.546875 -17.875 15.046875 -17.875 C 15.453125 -17.875 15.941406 -17.96875 16.515625 -18.15625 C 17.097656 -18.34375 17.390625 -18.988281 17.390625 -20.09375 Z M 17.390625 -20.09375 "/></g></g></g><g fill="#3871c1" fill-opacity="1"><g transform="translate(187.031094, 56.192196)"><g><path d="M 25.09375 -12.890625 C 25.09375 -10.171875 24.84375 -8.050781 24.34375 -6.53125 C 23.851562 -5.007812 22.847656 -3.632812 21.328125 -2.40625 C 20.671875 -1.875 19.960938 -1.410156 19.203125 -1.015625 C 18.441406 -0.628906 17.734375 -0.332031 17.078125 -0.125 C 16.460938 0.0390625 15.691406 0.1875 14.765625 0.3125 C 13.835938 0.4375 12.910156 0.515625 11.984375 0.546875 C 11.066406 0.585938 10.300781 0.609375 9.6875 0.609375 C 9.3125 0.609375 8.742188 0.585938 7.984375 0.546875 C 7.222656 0.515625 6.398438 0.425781 5.515625 0.28125 C 4.628906 0.132812 3.804688 -0.0546875 3.046875 -0.296875 C 2.285156 -0.546875 1.742188 -0.878906 1.421875 -1.296875 C 1.128906 -1.660156 0.984375 -2.175781 0.984375 -2.84375 C 0.984375 -3.539062 1.003906 -4.15625 1.046875 -4.6875 C 1.085938 -5.21875 1.109375 -5.8125 1.109375 -6.46875 C 1.109375 -7.007812 1.085938 -7.472656 1.046875 -7.859375 C 1.003906 -8.253906 0.984375 -8.71875 0.984375 -9.25 C 0.984375 -9.457031 1.015625 -9.804688 1.078125 -10.296875 C 1.140625 -10.785156 1.34375 -11.234375 1.6875 -11.640625 C 2.039062 -12.054688 2.648438 -12.242188 3.515625 -12.203125 C 4.085938 -12.160156 4.5 -12.078125 4.75 -11.953125 C 5 -11.835938 5.285156 -11.675781 5.609375 -11.46875 C 5.691406 -11.425781 5.753906 -11.375 5.796875 -11.3125 C 5.835938 -11.25 5.898438 -11.175781 5.984375 -11.09375 C 6.148438 -11.007812 6.28125 -10.90625 6.375 -10.78125 C 6.476562 -10.664062 6.613281 -10.566406 6.78125 -10.484375 C 7.195312 -10.234375 7.691406 -10.066406 8.265625 -9.984375 C 8.835938 -9.898438 9.328125 -9.859375 9.734375 -9.859375 C 11.992188 -9.859375 13.1875 -10.539062 13.3125 -11.90625 C 13.394531 -12.882812 13.003906 -13.796875 12.140625 -14.640625 C 11.273438 -15.484375 10.457031 -16.253906 9.6875 -16.953125 C 9.144531 -17.484375 8.664062 -17.972656 8.25 -18.421875 C 7.84375 -18.878906 7.351562 -19.378906 6.78125 -19.921875 C 6.613281 -20.078125 6.265625 -20.390625 5.734375 -20.859375 C 5.203125 -21.335938 4.664062 -21.882812 4.125 -22.5 C 2.851562 -24.0625 2.082031 -25.488281 1.8125 -26.78125 C 1.550781 -28.082031 1.421875 -29.515625 1.421875 -31.078125 C 1.421875 -35.722656 2.507812 -39.0625 4.6875 -41.09375 C 6.863281 -43.125 10.171875 -44.140625 14.609375 -44.140625 C 15.960938 -44.140625 17.296875 -44.117188 18.609375 -44.078125 C 19.929688 -44.035156 21.023438 -43.828125 21.890625 -43.453125 C 22.753906 -43.085938 23.1875 -42.414062 23.1875 -41.4375 C 23.1875 -40.78125 23.164062 -40.179688 23.125 -39.640625 C 23.082031 -39.109375 23.0625 -38.492188 23.0625 -37.796875 L 23.0625 -37.546875 C 23.0625 -37.140625 23.070312 -36.769531 23.09375 -36.4375 C 23.113281 -36.113281 23.125 -35.722656 23.125 -35.265625 C 23.125 -35.054688 23.082031 -34.742188 23 -34.328125 C 22.914062 -33.921875 22.71875 -33.539062 22.40625 -33.1875 C 22.101562 -32.84375 21.5625 -32.671875 20.78125 -32.671875 C 20.28125 -32.671875 19.765625 -32.753906 19.234375 -32.921875 C 18.703125 -33.085938 18.375 -33.191406 18.25 -33.234375 C 17.957031 -33.316406 17.613281 -33.398438 17.21875 -33.484375 C 16.832031 -33.566406 16.332031 -33.609375 15.71875 -33.609375 C 15.59375 -33.609375 15.316406 -33.585938 14.890625 -33.546875 C 14.460938 -33.503906 14.039062 -33.328125 13.625 -33.015625 C 13.21875 -32.703125 13.015625 -32.160156 13.015625 -31.390625 C 13.015625 -30.722656 13.195312 -30.101562 13.5625 -29.53125 C 13.769531 -29.207031 14.425781 -28.53125 15.53125 -27.5 C 16.644531 -26.46875 17.796875 -25.378906 18.984375 -24.234375 C 19.441406 -23.816406 19.875 -23.421875 20.28125 -23.046875 C 20.695312 -22.679688 21.109375 -22.253906 21.515625 -21.765625 C 22.992188 -20.117188 23.957031 -18.644531 24.40625 -17.34375 C 24.863281 -16.050781 25.09375 -14.566406 25.09375 -12.890625 Z M 25.09375 -12.890625 "/></g></g></g><g fill="#3871c1" fill-opacity="1"><g transform="translate(213.41954, 56.192196)"><g><path d="M 30.09375 -2.65625 C 30.09375 -1.625 29.882812 -0.921875 29.46875 -0.546875 C 29.0625 -0.179688 28.566406 0 27.984375 0 C 27.453125 0 26.976562 -0.0195312 26.5625 -0.0625 C 26.15625 -0.101562 25.664062 -0.125 25.09375 -0.125 C 24.351562 -0.125 23.675781 -0.09375 23.0625 -0.03125 C 22.445312 0.03125 21.75 0.0625 20.96875 0.0625 C 20.3125 0.0625 19.835938 -0.0859375 19.546875 -0.390625 C 19.253906 -0.703125 19.078125 -1.039062 19.015625 -1.40625 C 18.953125 -1.78125 18.921875 -2.050781 18.921875 -2.21875 C 18.921875 -2.707031 18.953125 -3.144531 19.015625 -3.53125 C 19.078125 -3.925781 19.109375 -4.351562 19.109375 -4.8125 C 19.109375 -5.132812 19.097656 -5.410156 19.078125 -5.640625 C 19.054688 -5.867188 19.046875 -6.125 19.046875 -6.40625 C 19.046875 -7.601562 19.078125 -8.671875 19.140625 -9.609375 C 19.203125 -10.554688 19.234375 -11.609375 19.234375 -12.765625 C 19.234375 -13.992188 19.078125 -14.863281 18.765625 -15.375 C 18.460938 -15.894531 18.050781 -16.207031 17.53125 -16.3125 C 17.019531 -16.414062 16.4375 -16.46875 15.78125 -16.46875 C 15.25 -16.46875 14.835938 -16.40625 14.546875 -16.28125 C 14.265625 -16.15625 14.019531 -15.925781 13.8125 -15.59375 C 13.644531 -15.4375 13.507812 -15.046875 13.40625 -14.421875 C 13.300781 -13.804688 13.226562 -13.191406 13.1875 -12.578125 C 13.144531 -11.960938 13.125 -11.550781 13.125 -11.34375 C 13.125 -10.726562 13.144531 -10.109375 13.1875 -9.484375 C 13.226562 -8.867188 13.25 -8.234375 13.25 -7.578125 C 13.25 -6.921875 13.238281 -6.335938 13.21875 -5.828125 C 13.195312 -5.316406 13.1875 -4.707031 13.1875 -4 C 13.1875 -3.59375 13.195312 -3.222656 13.21875 -2.890625 C 13.238281 -2.566406 13.25 -2.195312 13.25 -1.78125 C 13.25 -1 13.035156 -0.484375 12.609375 -0.234375 C 12.179688 0.00390625 11.800781 0.125 11.46875 0.125 C 10.8125 0.125 10.222656 0.09375 9.703125 0.03125 C 9.191406 -0.03125 8.609375 -0.0625 7.953125 -0.0625 C 7.546875 -0.0625 7.1875 -0.0507812 6.875 -0.03125 C 6.5625 -0.0078125 6.203125 0.0195312 5.796875 0.0625 C 5.546875 0.0625 5.316406 0.0820312 5.109375 0.125 C 4.910156 0.164062 4.6875 0.1875 4.4375 0.1875 C 3.695312 0.1875 3.148438 0.0234375 2.796875 -0.296875 C 2.453125 -0.628906 2.238281 -0.988281 2.15625 -1.375 C 2.070312 -1.769531 2.03125 -2.09375 2.03125 -2.34375 C 2.03125 -3.164062 2.082031 -3.914062 2.1875 -4.59375 C 2.289062 -5.269531 2.34375 -6.039062 2.34375 -6.90625 L 2.34375 -7.09375 C 2.34375 -8.039062 2.351562 -8.894531 2.375 -9.65625 C 2.394531 -10.414062 2.40625 -11.242188 2.40625 -12.140625 C 2.40625 -13.503906 2.375 -14.726562 2.3125 -15.8125 C 2.25 -16.90625 2.21875 -18.128906 2.21875 -19.484375 C 2.21875 -20.585938 2.257812 -21.59375 2.34375 -22.5 C 2.425781 -23.40625 2.46875 -24.4375 2.46875 -25.59375 C 2.46875 -26.207031 2.445312 -26.757812 2.40625 -27.25 C 2.363281 -27.738281 2.320312 -28.296875 2.28125 -28.921875 C 2.238281 -29.742188 2.21875 -30.492188 2.21875 -31.171875 C 2.21875 -31.847656 2.21875 -32.617188 2.21875 -33.484375 C 2.21875 -34.222656 2.238281 -34.890625 2.28125 -35.484375 C 2.320312 -36.078125 2.34375 -36.742188 2.34375 -37.484375 C 2.34375 -38.179688 2.300781 -38.816406 2.21875 -39.390625 C 2.132812 -39.972656 2.09375 -40.613281 2.09375 -41.3125 C 2.09375 -41.675781 2.21875 -42.125 2.46875 -42.65625 C 2.71875 -43.195312 3.289062 -43.46875 4.1875 -43.46875 C 4.8125 -43.46875 5.378906 -43.445312 5.890625 -43.40625 C 6.398438 -43.363281 6.984375 -43.34375 7.640625 -43.34375 C 8.253906 -43.34375 8.804688 -43.375 9.296875 -43.4375 C 9.796875 -43.5 10.351562 -43.53125 10.96875 -43.53125 C 12.039062 -43.53125 12.707031 -43.300781 12.96875 -42.84375 C 13.238281 -42.394531 13.375 -41.90625 13.375 -41.375 C 13.375 -40.71875 13.320312 -40.140625 13.21875 -39.640625 C 13.125 -39.148438 13.078125 -38.578125 13.078125 -37.921875 C 13.078125 -37.222656 13.09375 -36.582031 13.125 -36 C 13.164062 -35.425781 13.1875 -34.789062 13.1875 -34.09375 C 13.1875 -33.3125 13.175781 -32.625 13.15625 -32.03125 C 13.132812 -31.4375 13.125 -30.75 13.125 -29.96875 L 13.125 -29.78125 C 13.125 -28.625 13.390625 -27.929688 13.921875 -27.703125 C 14.460938 -27.484375 15.1875 -27.375 16.09375 -27.375 C 16.832031 -27.375 17.351562 -27.445312 17.65625 -27.59375 C 17.96875 -27.738281 18.269531 -28.015625 18.5625 -28.421875 C 18.644531 -28.546875 18.707031 -28.894531 18.75 -29.46875 C 18.789062 -30.039062 18.828125 -30.613281 18.859375 -31.1875 C 18.898438 -31.769531 18.921875 -32.125 18.921875 -32.25 C 18.921875 -32.945312 18.890625 -33.570312 18.828125 -34.125 C 18.773438 -34.675781 18.75 -35.300781 18.75 -36 C 18.75 -36.375 18.757812 -36.753906 18.78125 -37.140625 C 18.800781 -37.535156 18.8125 -37.914062 18.8125 -38.28125 C 18.8125 -38.863281 18.78125 -39.378906 18.71875 -39.828125 C 18.65625 -40.285156 18.625 -40.78125 18.625 -41.3125 C 18.625 -42.332031 18.910156 -42.957031 19.484375 -43.1875 C 20.054688 -43.414062 20.53125 -43.53125 20.90625 -43.53125 C 21.601562 -43.53125 22.21875 -43.5 22.75 -43.4375 C 23.28125 -43.375 23.894531 -43.34375 24.59375 -43.34375 C 25.175781 -43.34375 25.679688 -43.375 26.109375 -43.4375 C 26.546875 -43.5 27.03125 -43.53125 27.5625 -43.53125 C 28.46875 -43.53125 29.082031 -43.34375 29.40625 -42.96875 C 29.738281 -42.601562 29.925781 -42.191406 29.96875 -41.734375 C 30.007812 -41.285156 30.03125 -40.957031 30.03125 -40.75 C 30.03125 -39.601562 29.976562 -38.546875 29.875 -37.578125 C 29.769531 -36.609375 29.71875 -35.53125 29.71875 -34.34375 C 29.71875 -34.007812 29.726562 -33.707031 29.75 -33.4375 C 29.769531 -33.175781 29.78125 -32.878906 29.78125 -32.546875 C 29.78125 -31.972656 29.757812 -31.445312 29.71875 -30.96875 C 29.675781 -30.5 29.65625 -29.976562 29.65625 -29.40625 C 29.65625 -28.425781 29.664062 -27.546875 29.6875 -26.765625 C 29.707031 -25.984375 29.71875 -25.097656 29.71875 -24.109375 C 29.71875 -22.910156 29.695312 -21.828125 29.65625 -20.859375 C 29.613281 -19.898438 29.59375 -18.828125 29.59375 -17.640625 C 29.59375 -16.191406 29.644531 -14.898438 29.75 -13.765625 C 29.851562 -12.640625 29.90625 -11.359375 29.90625 -9.921875 C 29.90625 -9.222656 29.894531 -8.585938 29.875 -8.015625 C 29.851562 -7.441406 29.84375 -6.804688 29.84375 -6.109375 C 29.84375 -5.484375 29.882812 -4.914062 29.96875 -4.40625 C 30.050781 -3.894531 30.09375 -3.3125 30.09375 -2.65625 Z M 30.09375 -2.65625 "/></g></g></g><g fill="#51ade5" fill-opacity="1"><g transform="translate(27.589154, 56.192196)"><g><path d="M 23.734375 -34.828125 C 23.734375 -34.585938 23.648438 -34.164062 23.484375 -33.5625 C 23.328125 -32.96875 22.773438 -32.671875 21.828125 -32.671875 C 21.535156 -32.671875 21.265625 -32.679688 21.015625 -32.703125 C 20.773438 -32.722656 20.488281 -32.734375 20.15625 -32.734375 C 19.257812 -32.734375 18.644531 -32.5 18.3125 -32.03125 C 17.976562 -31.5625 17.8125 -30.707031 17.8125 -29.46875 C 17.8125 -28.445312 17.84375 -27.523438 17.90625 -26.703125 C 17.96875 -25.878906 18 -24.929688 18 -23.859375 C 18 -22.585938 17.976562 -21.457031 17.9375 -20.46875 C 17.894531 -19.476562 17.875 -18.347656 17.875 -17.078125 C 17.875 -15.929688 17.894531 -14.90625 17.9375 -14 C 17.976562 -13.09375 18 -12.0625 18 -10.90625 C 18 -10.25 17.988281 -9.601562 17.96875 -8.96875 C 17.945312 -8.332031 17.9375 -7.6875 17.9375 -7.03125 C 17.9375 -6.5 17.945312 -6.003906 17.96875 -5.546875 C 17.988281 -5.097656 18.019531 -4.582031 18.0625 -4 C 18.101562 -3.675781 18.144531 -3.378906 18.1875 -3.109375 C 18.226562 -2.847656 18.25 -2.550781 18.25 -2.21875 C 18.25 -1.5625 18.09375 -1.085938 17.78125 -0.796875 C 17.476562 -0.515625 17.140625 -0.332031 16.765625 -0.25 C 16.398438 -0.164062 16.113281 -0.125 15.90625 -0.125 C 15.539062 -0.125 15.210938 -0.132812 14.921875 -0.15625 C 14.628906 -0.175781 14.300781 -0.207031 13.9375 -0.25 C 13.394531 -0.289062 12.929688 -0.3125 12.546875 -0.3125 C 12.160156 -0.3125 11.695312 -0.3125 11.15625 -0.3125 C 10.75 -0.3125 10.359375 -0.289062 9.984375 -0.25 C 9.617188 -0.207031 9.207031 -0.1875 8.75 -0.1875 C 8.09375 -0.1875 7.566406 -0.347656 7.171875 -0.671875 C 6.785156 -1.003906 6.59375 -1.6875 6.59375 -2.71875 C 6.59375 -3.738281 6.644531 -4.640625 6.75 -5.421875 C 6.851562 -6.203125 6.90625 -7.109375 6.90625 -8.140625 C 6.90625 -9.085938 6.875 -9.953125 6.8125 -10.734375 C 6.75 -11.515625 6.71875 -12.375 6.71875 -13.3125 C 6.71875 -14.425781 6.769531 -15.4375 6.875 -16.34375 C 6.976562 -17.25 7.03125 -18.253906 7.03125 -19.359375 C 7.03125 -20.179688 7 -20.910156 6.9375 -21.546875 C 6.875 -22.179688 6.820312 -22.890625 6.78125 -23.671875 C 6.738281 -24.953125 6.78125 -26.132812 6.90625 -27.21875 C 7.03125 -28.3125 7.070312 -29.28125 7.03125 -30.125 C 6.988281 -30.96875 6.703125 -31.613281 6.171875 -32.0625 C 6.046875 -32.226562 5.929688 -32.320312 5.828125 -32.34375 C 5.722656 -32.363281 5.648438 -32.394531 5.609375 -32.4375 C 5.398438 -32.550781 5.140625 -32.617188 4.828125 -32.640625 C 4.523438 -32.660156 4.269531 -32.671875 4.0625 -32.671875 C 3.820312 -32.671875 3.597656 -32.660156 3.390625 -32.640625 C 3.179688 -32.617188 2.976562 -32.609375 2.78125 -32.609375 C 1.957031 -32.609375 1.398438 -32.820312 1.109375 -33.25 C 0.816406 -33.6875 0.671875 -34.09375 0.671875 -34.46875 C 0.671875 -35.25 0.691406 -35.945312 0.734375 -36.5625 C 0.773438 -37.175781 0.796875 -37.875 0.796875 -38.65625 C 0.796875 -39.1875 0.773438 -39.65625 0.734375 -40.0625 C 0.691406 -40.476562 0.671875 -40.957031 0.671875 -41.5 C 0.671875 -42.28125 0.835938 -42.820312 1.171875 -43.125 C 1.503906 -43.4375 2.0625 -43.59375 2.84375 -43.59375 C 3.539062 -43.59375 4.175781 -43.570312 4.75 -43.53125 C 5.320312 -43.488281 5.957031 -43.46875 6.65625 -43.46875 C 7.726562 -43.46875 8.785156 -43.5 9.828125 -43.5625 C 10.878906 -43.625 11.921875 -43.65625 12.953125 -43.65625 L 13.625 -43.65625 C 14.488281 -43.65625 15.269531 -43.632812 15.96875 -43.59375 C 16.664062 -43.550781 17.46875 -43.53125 18.375 -43.53125 C 18.945312 -43.53125 19.445312 -43.550781 19.875 -43.59375 C 20.3125 -43.632812 20.796875 -43.65625 21.328125 -43.65625 C 22.523438 -43.65625 23.222656 -43.296875 23.421875 -42.578125 C 23.628906 -41.859375 23.734375 -41.085938 23.734375 -40.265625 C 23.734375 -39.648438 23.722656 -39.101562 23.703125 -38.625 C 23.679688 -38.15625 23.671875 -37.632812 23.671875 -37.0625 C 23.671875 -36.644531 23.679688 -36.269531 23.703125 -35.9375 C 23.722656 -35.613281 23.734375 -35.242188 23.734375 -34.828125 Z M 23.734375 -34.828125 "/></g></g></g><g fill="#51ade5" fill-opacity="1"><g transform="translate(49.476629, 56.192196)"><g><path d="M 30.640625 -2.46875 C 30.640625 -2.46875 30.597656 -2.257812 30.515625 -1.84375 C 30.429688 -1.4375 30.242188 -1.023438 29.953125 -0.609375 C 29.671875 -0.203125 29.222656 0 28.609375 0 C 27.867188 0 27.195312 -0.03125 26.59375 -0.09375 C 26 -0.15625 25.332031 -0.1875 24.59375 -0.1875 C 23.976562 -0.1875 23.425781 -0.164062 22.9375 -0.125 C 22.445312 -0.0820312 21.890625 -0.0625 21.265625 -0.0625 C 20.523438 -0.0625 20.019531 -0.203125 19.75 -0.484375 C 19.488281 -0.773438 19.347656 -1.101562 19.328125 -1.46875 C 19.304688 -1.84375 19.273438 -2.132812 19.234375 -2.34375 C 19.234375 -2.550781 19.203125 -2.984375 19.140625 -3.640625 C 19.078125 -4.296875 19.003906 -4.960938 18.921875 -5.640625 C 18.847656 -6.316406 18.707031 -6.738281 18.5 -6.90625 C 18.332031 -7.070312 18.257812 -7.144531 18.28125 -7.125 C 18.300781 -7.101562 18.207031 -7.15625 18 -7.28125 C 17.957031 -7.320312 17.472656 -7.351562 16.546875 -7.375 C 15.628906 -7.394531 14.820312 -7.40625 14.125 -7.40625 C 12.96875 -7.40625 12.304688 -7.25 12.140625 -6.9375 C 11.984375 -6.625 11.84375 -6.117188 11.71875 -5.421875 C 11.71875 -5.253906 11.695312 -4.832031 11.65625 -4.15625 C 11.613281 -3.476562 11.550781 -2.8125 11.46875 -2.15625 C 11.382812 -1.5 11.28125 -1.066406 11.15625 -0.859375 C 10.945312 -0.578125 10.71875 -0.375 10.46875 -0.25 C 10.226562 -0.125 9.863281 -0.0625 9.375 -0.0625 C 8.800781 -0.0625 8.273438 -0.0703125 7.796875 -0.09375 C 7.328125 -0.113281 6.804688 -0.125 6.234375 -0.125 C 5.609375 -0.125 4.988281 -0.113281 4.375 -0.09375 C 3.757812 -0.0703125 3.144531 -0.0625 2.53125 -0.0625 C 1.988281 -0.0625 1.460938 -0.148438 0.953125 -0.328125 C 0.441406 -0.515625 0.1875 -1.019531 0.1875 -1.84375 C 0.1875 -2.09375 0.238281 -2.484375 0.34375 -3.015625 C 0.445312 -3.554688 0.554688 -4.15625 0.671875 -4.8125 C 0.796875 -5.632812 0.890625 -6.351562 0.953125 -6.96875 C 1.015625 -7.582031 1.128906 -8.28125 1.296875 -9.0625 C 1.421875 -9.757812 1.539062 -10.394531 1.65625 -10.96875 C 1.78125 -11.550781 1.90625 -12.191406 2.03125 -12.890625 C 2.238281 -13.910156 2.382812 -14.820312 2.46875 -15.625 C 2.550781 -16.425781 2.675781 -17.34375 2.84375 -18.375 C 3 -19.40625 3.160156 -20.3125 3.328125 -21.09375 C 3.492188 -21.875 3.640625 -22.773438 3.765625 -23.796875 C 3.847656 -24.492188 3.914062 -25.140625 3.96875 -25.734375 C 4.03125 -26.335938 4.125 -27.007812 4.25 -27.75 C 4.414062 -28.570312 4.582031 -29.332031 4.75 -30.03125 C 4.914062 -30.726562 5.078125 -31.488281 5.234375 -32.3125 C 5.484375 -33.625 5.660156 -34.789062 5.765625 -35.8125 C 5.867188 -36.84375 6.0625 -38 6.34375 -39.28125 C 6.550781 -40.101562 6.769531 -40.863281 7 -41.5625 C 7.226562 -42.257812 7.484375 -42.75 7.765625 -43.03125 C 8.335938 -43.488281 9.242188 -43.71875 10.484375 -43.71875 C 11.546875 -43.71875 12.5 -43.675781 13.34375 -43.59375 C 14.1875 -43.507812 15.125 -43.46875 16.15625 -43.46875 C 16.9375 -43.46875 17.71875 -43.476562 18.5 -43.5 C 19.28125 -43.519531 20.0625 -43.53125 20.84375 -43.53125 L 21.09375 -43.53125 C 21.90625 -43.53125 22.488281 -43.445312 22.84375 -43.28125 C 23.195312 -43.113281 23.515625 -42.765625 23.796875 -42.234375 C 23.878906 -42.191406 23.941406 -42.078125 23.984375 -41.890625 C 24.023438 -41.710938 24.066406 -41.582031 24.109375 -41.5 C 24.109375 -41.5 24.160156 -41.195312 24.265625 -40.59375 C 24.367188 -40 24.5 -39.332031 24.65625 -38.59375 C 24.820312 -37.851562 24.957031 -37.1875 25.0625 -36.59375 C 25.164062 -36 25.21875 -35.703125 25.21875 -35.703125 C 25.382812 -34.710938 25.503906 -33.816406 25.578125 -33.015625 C 25.660156 -32.210938 25.785156 -31.316406 25.953125 -30.328125 C 26.160156 -29.140625 26.359375 -28.0625 26.546875 -27.09375 C 26.734375 -26.132812 26.945312 -25.054688 27.1875 -23.859375 C 27.394531 -22.910156 27.578125 -22.035156 27.734375 -21.234375 C 27.898438 -20.429688 28.046875 -19.5625 28.171875 -18.625 C 28.378906 -17.34375 28.515625 -16.195312 28.578125 -15.1875 C 28.640625 -14.1875 28.753906 -13.050781 28.921875 -11.78125 C 29.117188 -10.539062 29.351562 -9.253906 29.625 -7.921875 C 29.894531 -6.585938 30.128906 -5.414062 30.328125 -4.40625 C 30.535156 -3.394531 30.640625 -2.75 30.640625 -2.46875 Z M 17.390625 -20.09375 C 17.390625 -21.207031 17.316406 -22.304688 17.171875 -23.390625 C 17.023438 -24.484375 16.878906 -25.441406 16.734375 -26.265625 C 16.597656 -27.085938 16.507812 -27.644531 16.46875 -27.9375 C 16.425781 -28.425781 16.375 -28.9375 16.3125 -29.46875 C 16.25 -30 16.175781 -30.304688 16.09375 -30.390625 C 15.96875 -30.847656 15.757812 -31.078125 15.46875 -31.078125 C 15.226562 -31.078125 15.066406 -30.867188 14.984375 -30.453125 C 14.941406 -30.367188 14.878906 -30.128906 14.796875 -29.734375 C 14.710938 -29.347656 14.640625 -28.96875 14.578125 -28.59375 C 14.515625 -28.226562 14.460938 -27.988281 14.421875 -27.875 C 14.335938 -27.5 14.253906 -27.15625 14.171875 -26.84375 C 14.097656 -26.539062 14.019531 -26.203125 13.9375 -25.828125 C 13.9375 -25.710938 13.894531 -25.363281 13.8125 -24.78125 C 13.726562 -24.207031 13.632812 -23.570312 13.53125 -22.875 C 13.425781 -22.175781 13.332031 -21.546875 13.25 -20.984375 C 13.164062 -20.429688 13.125 -20.097656 13.125 -19.984375 C 13.125 -19.035156 13.316406 -18.445312 13.703125 -18.21875 C 14.097656 -17.988281 14.546875 -17.875 15.046875 -17.875 C 15.453125 -17.875 15.941406 -17.96875 16.515625 -18.15625 C 17.097656 -18.34375 17.390625 -18.988281 17.390625 -20.09375 Z M 17.390625 -20.09375 "/></g></g></g><g fill="#51ade5" fill-opacity="1"><g transform="translate(80.304231, 56.192196)"><g><path d="M 30.453125 -29.21875 C 30.453125 -28.5625 30.421875 -27.882812 30.359375 -27.1875 C 30.296875 -26.488281 30.207031 -25.484375 30.09375 -24.171875 C 30.050781 -23.597656 29.96875 -22.835938 29.84375 -21.890625 C 29.71875 -20.941406 29.382812 -19.847656 28.84375 -18.609375 C 28.3125 -17.378906 27.390625 -16.046875 26.078125 -14.609375 C 25.253906 -13.703125 24.1875 -12.847656 22.875 -12.046875 C 21.5625 -11.242188 19.835938 -10.84375 17.703125 -10.84375 C 17.410156 -10.84375 17.097656 -10.851562 16.765625 -10.875 C 16.441406 -10.894531 16.113281 -10.90625 15.78125 -10.90625 L 15.65625 -10.90625 C 15.375 -10.90625 15.035156 -10.875 14.640625 -10.8125 C 14.253906 -10.757812 13.90625 -10.566406 13.59375 -10.234375 C 13.28125 -9.898438 13.125 -9.34375 13.125 -8.5625 C 13.125 -8.15625 13.144531 -7.796875 13.1875 -7.484375 C 13.226562 -7.179688 13.25 -6.820312 13.25 -6.40625 C 13.289062 -6 13.300781 -5.609375 13.28125 -5.234375 C 13.257812 -4.867188 13.269531 -4.457031 13.3125 -4 C 13.3125 -3.675781 13.332031 -3.378906 13.375 -3.109375 C 13.414062 -2.847656 13.4375 -2.550781 13.4375 -2.21875 C 13.4375 -1.8125 13.351562 -1.359375 13.1875 -0.859375 C 13.03125 -0.367188 12.457031 -0.125 11.46875 -0.125 C 10.726562 -0.125 10.066406 -0.144531 9.484375 -0.1875 C 8.910156 -0.226562 8.273438 -0.25 7.578125 -0.25 C 6.921875 -0.25 6.328125 -0.207031 5.796875 -0.125 C 5.265625 -0.0390625 4.648438 0 3.953125 0 C 3.328125 0 2.859375 -0.148438 2.546875 -0.453125 C 2.242188 -0.765625 2.09375 -1.394531 2.09375 -2.34375 C 2.09375 -2.675781 2.101562 -2.992188 2.125 -3.296875 C 2.144531 -3.609375 2.175781 -3.90625 2.21875 -4.1875 C 2.21875 -4.5625 2.195312 -4.890625 2.15625 -5.171875 C 2.113281 -5.460938 2.113281 -5.773438 2.15625 -6.109375 C 2.195312 -6.640625 2.25 -7.109375 2.3125 -7.515625 C 2.375 -7.929688 2.40625 -8.40625 2.40625 -8.9375 C 2.40625 -9.800781 2.375 -10.675781 2.3125 -11.5625 C 2.25 -12.445312 2.21875 -13.320312 2.21875 -14.1875 C 2.21875 -15.375 2.238281 -16.429688 2.28125 -17.359375 C 2.320312 -18.285156 2.34375 -19.320312 2.34375 -20.46875 C 2.34375 -21.414062 2.332031 -22.359375 2.3125 -23.296875 C 2.289062 -24.242188 2.28125 -25.171875 2.28125 -26.078125 C 2.28125 -27.640625 2.300781 -29.054688 2.34375 -30.328125 C 2.382812 -31.609375 2.382812 -33.050781 2.34375 -34.65625 C 2.300781 -35.800781 2.257812 -36.828125 2.21875 -37.734375 C 2.175781 -38.640625 2.15625 -39.664062 2.15625 -40.8125 C 2.15625 -42.007812 2.484375 -42.800781 3.140625 -43.1875 C 3.796875 -43.582031 4.597656 -43.78125 5.546875 -43.78125 C 5.960938 -43.78125 6.363281 -43.757812 6.75 -43.71875 C 7.144531 -43.675781 7.523438 -43.65625 7.890625 -43.65625 C 8.460938 -43.65625 9.023438 -43.675781 9.578125 -43.71875 C 10.140625 -43.757812 10.6875 -43.78125 11.21875 -43.78125 C 11.59375 -43.78125 11.960938 -43.769531 12.328125 -43.75 C 12.703125 -43.726562 13.070312 -43.71875 13.4375 -43.71875 C 13.976562 -43.675781 14.492188 -43.675781 14.984375 -43.71875 C 15.472656 -43.757812 15.988281 -43.78125 16.53125 -43.78125 C 19.28125 -43.863281 21.535156 -43.484375 23.296875 -42.640625 C 25.066406 -41.796875 26.445312 -40.710938 27.4375 -39.390625 C 28.007812 -38.617188 28.390625 -37.953125 28.578125 -37.390625 C 28.765625 -36.835938 28.921875 -36.394531 29.046875 -36.0625 C 29.367188 -35.207031 29.679688 -34.296875 29.984375 -33.328125 C 30.296875 -32.359375 30.453125 -30.988281 30.453125 -29.21875 Z M 18.75 -25.40625 C 18.75 -25.769531 18.738281 -26.085938 18.71875 -26.359375 C 18.695312 -26.628906 18.6875 -26.945312 18.6875 -27.3125 C 18.6875 -27.6875 18.695312 -28.015625 18.71875 -28.296875 C 18.738281 -28.585938 18.75 -28.914062 18.75 -29.28125 C 18.75 -30.601562 18.445312 -31.625 17.84375 -32.34375 C 17.25 -33.0625 16.539062 -33.421875 15.71875 -33.421875 L 15.46875 -33.421875 C 15.101562 -33.421875 14.753906 -33.296875 14.421875 -33.046875 C 14.015625 -32.753906 13.71875 -32.28125 13.53125 -31.625 C 13.34375 -30.96875 13.25 -30.207031 13.25 -29.34375 L 13.25 -25.46875 C 13.25 -24.3125 13.535156 -23.40625 14.109375 -22.75 C 14.691406 -22.09375 15.3125 -21.785156 15.96875 -21.828125 C 16.414062 -21.828125 16.910156 -22.03125 17.453125 -22.4375 C 17.859375 -22.769531 18.175781 -23.148438 18.40625 -23.578125 C 18.632812 -24.015625 18.75 -24.625 18.75 -25.40625 Z M 18.75 -25.40625 "/></g></g></g><g fill="#3871c1" fill-opacity="1"><g transform="translate(10.940026, 81.250112)"><g><path d="M 10.203125 -14.75 C 11.421875 -14.75 12.300781 -14.367188 12.84375 -13.609375 C 13.363281 -12.890625 13.625 -11.8125 13.625 -10.375 L 13.625 -10.46875 C 13.625 -9.050781 13.363281 -7.972656 12.84375 -7.234375 C 12.300781 -6.484375 11.421875 -6.109375 10.203125 -6.109375 L 4.078125 -6.09375 L 4.078125 -0.609375 C 4.078125 -0.335938 4.007812 -0.164062 3.875 -0.09375 C 3.75 -0.0195312 3.648438 0.015625 3.578125 0.015625 L 1.9375 0.015625 C 1.863281 0.015625 1.757812 -0.0195312 1.625 -0.09375 C 1.5 -0.164062 1.4375 -0.335938 1.4375 -0.609375 L 1.4375 -8.125 C 1.4375 -8.40625 1.5 -8.578125 1.625 -8.640625 C 1.757812 -8.703125 1.863281 -8.734375 1.9375 -8.734375 L 9.734375 -8.734375 C 10.191406 -8.734375 10.507812 -8.863281 10.6875 -9.125 C 10.875 -9.394531 10.96875 -9.828125 10.96875 -10.421875 C 10.96875 -11.015625 10.875 -11.441406 10.6875 -11.703125 C 10.507812 -11.972656 10.191406 -12.109375 9.734375 -12.109375 L 1.9375 -12.109375 C 1.863281 -12.109375 1.757812 -12.140625 1.625 -12.203125 C 1.5 -12.265625 1.4375 -12.4375 1.4375 -12.71875 L 1.4375 -14.125 C 1.4375 -14.414062 1.5 -14.59375 1.625 -14.65625 C 1.757812 -14.71875 1.863281 -14.75 1.9375 -14.75 Z M 10.203125 -14.75 "/></g></g></g><g fill="#3871c1" fill-opacity="1"><g transform="translate(26.890819, 81.250112)"><g><path d="M 13.640625 -10.46875 L 13.640625 -10.375 C 13.640625 -10.382812 13.640625 -10.390625 13.640625 -10.390625 C 13.640625 -10.398438 13.640625 -10.410156 13.640625 -10.421875 C 13.640625 -10.429688 13.640625 -10.4375 13.640625 -10.4375 C 13.640625 -10.445312 13.640625 -10.457031 13.640625 -10.46875 Z M 13.984375 -0.765625 C 14.054688 -0.671875 14.082031 -0.53125 14.0625 -0.34375 C 14.019531 -0.101562 13.878906 0.015625 13.640625 0.015625 L 11.671875 0.015625 C 11.515625 0.015625 11.390625 -0.0195312 11.296875 -0.09375 C 11.265625 -0.113281 11.234375 -0.144531 11.203125 -0.1875 C 11.171875 -0.238281 11.140625 -0.289062 11.109375 -0.34375 L 7.859375 -6.09375 L 4.078125 -6.09375 L 4.078125 -0.609375 C 4.078125 -0.335938 4.015625 -0.164062 3.890625 -0.09375 C 3.765625 -0.0195312 3.660156 0.015625 3.578125 0.015625 L 1.953125 0.015625 C 1.867188 0.015625 1.757812 -0.0195312 1.625 -0.09375 C 1.5 -0.164062 1.4375 -0.335938 1.4375 -0.609375 L 1.4375 -8.125 C 1.4375 -8.40625 1.5 -8.578125 1.625 -8.640625 C 1.757812 -8.703125 1.867188 -8.734375 1.953125 -8.734375 L 9.734375 -8.734375 C 10.191406 -8.734375 10.507812 -8.863281 10.6875 -9.125 C 10.875 -9.394531 10.96875 -9.828125 10.96875 -10.421875 C 10.96875 -11.015625 10.875 -11.441406 10.6875 -11.703125 C 10.507812 -11.972656 10.191406 -12.109375 9.734375 -12.109375 L 1.953125 -12.109375 C 1.867188 -12.109375 1.757812 -12.140625 1.625 -12.203125 C 1.5 -12.265625 1.4375 -12.4375 1.4375 -12.71875 L 1.4375 -14.125 C 1.4375 -14.414062 1.5 -14.59375 1.625 -14.65625 C 1.757812 -14.71875 1.867188 -14.75 1.953125 -14.75 L 10.203125 -14.75 C 11.429688 -14.75 12.316406 -14.367188 12.859375 -13.609375 C 13.367188 -12.867188 13.628906 -11.804688 13.640625 -10.421875 C 13.628906 -9.035156 13.367188 -7.972656 12.859375 -7.234375 C 12.398438 -6.609375 11.726562 -6.242188 10.84375 -6.140625 Z M 13.984375 -0.765625 "/></g></g></g><g fill="#3871c1" fill-opacity="1"><g transform="translate(43.289159, 81.250112)"><g><path d="M 12.1875 -3.203125 C 12.269531 -3.203125 12.378906 -3.171875 12.515625 -3.109375 C 12.648438 -3.046875 12.71875 -2.875 12.71875 -2.59375 L 12.71875 -0.625 C 12.71875 -0.351562 12.648438 -0.179688 12.515625 -0.109375 C 12.378906 -0.046875 12.269531 -0.015625 12.1875 -0.015625 L 5.84375 -0.015625 C 5.445312 -0.015625 5.082031 -0.0351562 4.75 -0.078125 C 4.414062 -0.128906 4.109375 -0.210938 3.828125 -0.328125 C 3.242188 -0.523438 2.78125 -0.851562 2.4375 -1.3125 C 2.070312 -1.769531 1.816406 -2.351562 1.671875 -3.0625 C 1.609375 -3.363281 1.554688 -3.691406 1.515625 -4.046875 C 1.472656 -4.398438 1.445312 -4.785156 1.4375 -5.203125 L 1.4375 -5.296875 L 1.46875 -7.5625 C 1.5 -7.6875 1.566406 -7.832031 1.671875 -8 C 1.929688 -8.46875 2.335938 -8.71875 2.890625 -8.75 L 12.125 -8.78125 C 12.195312 -8.78125 12.296875 -8.742188 12.421875 -8.671875 C 12.554688 -8.609375 12.625 -8.441406 12.625 -8.171875 L 12.625 -6.75 C 12.625 -6.476562 12.554688 -6.304688 12.421875 -6.234375 C 12.296875 -6.160156 12.195312 -6.125 12.125 -6.125 L 4.125 -6.125 C 4.125 -6.125 4.117188 -6.054688 4.109375 -5.921875 C 4.097656 -5.796875 4.085938 -5.648438 4.078125 -5.484375 C 4.078125 -5.316406 4.078125 -5.164062 4.078125 -5.03125 C 4.078125 -4.894531 4.078125 -4.828125 4.078125 -4.828125 C 4.085938 -4.785156 4.09375 -4.738281 4.09375 -4.6875 C 4.09375 -4.632812 4.101562 -4.582031 4.125 -4.53125 C 4.164062 -4.195312 4.265625 -3.925781 4.421875 -3.71875 C 4.566406 -3.539062 4.742188 -3.410156 4.953125 -3.328125 C 5.085938 -3.296875 5.226562 -3.265625 5.375 -3.234375 C 5.53125 -3.210938 5.703125 -3.203125 5.890625 -3.203125 Z M 3.015625 -8.609375 Z M 12.21875 -14.796875 C 12.28125 -14.796875 12.378906 -14.757812 12.515625 -14.6875 C 12.648438 -14.613281 12.71875 -14.4375 12.71875 -14.15625 L 12.71875 -12.75 C 12.71875 -12.476562 12.648438 -12.304688 12.515625 -12.234375 C 12.378906 -12.160156 12.28125 -12.125 12.21875 -12.125 L 1.921875 -12.140625 C 1.847656 -12.140625 1.75 -12.171875 1.625 -12.234375 C 1.5 -12.304688 1.4375 -12.476562 1.4375 -12.75 L 1.4375 -14.140625 C 1.4375 -14.429688 1.5 -14.613281 1.625 -14.6875 C 1.75 -14.757812 1.847656 -14.796875 1.921875 -14.796875 Z M 12.21875 -14.796875 "/></g></g></g><g fill="#3871c1" fill-opacity="1"><g transform="translate(58.326942, 81.250112)"><g><path d="M 10.078125 -8.8125 C 11.015625 -8.8125 11.726562 -8.484375 12.21875 -7.828125 C 12.675781 -7.179688 12.90625 -6.273438 12.90625 -5.109375 L 12.90625 -3.53125 C 12.90625 -2.5 12.679688 -1.65625 12.234375 -1 C 11.765625 -0.332031 11.035156 0 10.046875 0 L 1.96875 0 C 1.882812 0 1.773438 -0.03125 1.640625 -0.09375 C 1.515625 -0.164062 1.453125 -0.335938 1.453125 -0.609375 L 1.453125 -2.046875 C 1.453125 -2.316406 1.515625 -2.484375 1.640625 -2.546875 C 1.773438 -2.617188 1.882812 -2.65625 1.96875 -2.65625 L 9.609375 -2.65625 C 9.765625 -2.65625 9.875 -2.679688 9.9375 -2.734375 C 10.007812 -2.785156 10.0625 -2.835938 10.09375 -2.890625 C 10.207031 -3.066406 10.265625 -3.316406 10.265625 -3.640625 L 10.265625 -5.171875 C 10.265625 -5.617188 10.191406 -5.894531 10.046875 -6 C 9.898438 -6.101562 9.765625 -6.15625 9.640625 -6.15625 L 4.265625 -6.15625 C 3.890625 -6.15625 3.507812 -6.203125 3.125 -6.296875 C 2.738281 -6.398438 2.40625 -6.632812 2.125 -7 C 1.664062 -7.65625 1.4375 -8.609375 1.4375 -9.859375 L 1.4375 -11.234375 C 1.4375 -12.273438 1.664062 -13.117188 2.125 -13.765625 C 2.59375 -14.421875 3.316406 -14.75 4.296875 -14.75 L 12.015625 -14.75 C 12.085938 -14.75 12.1875 -14.71875 12.3125 -14.65625 C 12.445312 -14.59375 12.515625 -14.421875 12.515625 -14.140625 L 12.515625 -12.71875 C 12.515625 -12.4375 12.445312 -12.265625 12.3125 -12.203125 C 12.1875 -12.140625 12.085938 -12.109375 12.015625 -12.109375 L 4.734375 -12.109375 C 4.578125 -12.109375 4.460938 -12.082031 4.390625 -12.03125 C 4.328125 -11.988281 4.28125 -11.9375 4.25 -11.875 C 4.144531 -11.675781 4.09375 -11.425781 4.09375 -11.125 L 4.09375 -9.796875 C 4.09375 -9.347656 4.160156 -9.070312 4.296875 -8.96875 C 4.441406 -8.863281 4.578125 -8.8125 4.703125 -8.8125 Z M 10.078125 -8.8125 "/></g></g></g><g fill="#3871c1" fill-opacity="1"><g transform="translate(73.561643, 81.250112)"><g><path d="M 10.078125 -8.8125 C 11.015625 -8.8125 11.726562 -8.484375 12.21875 -7.828125 C 12.675781 -7.179688 12.90625 -6.273438 12.90625 -5.109375 L 12.90625 -3.53125 C 12.90625 -2.5 12.679688 -1.65625 12.234375 -1 C 11.765625 -0.332031 11.035156 0 10.046875 0 L 1.96875 0 C 1.882812 0 1.773438 -0.03125 1.640625 -0.09375 C 1.515625 -0.164062 1.453125 -0.335938 1.453125 -0.609375 L 1.453125 -2.046875 C 1.453125 -2.316406 1.515625 -2.484375 1.640625 -2.546875 C 1.773438 -2.617188 1.882812 -2.65625 1.96875 -2.65625 L 9.609375 -2.65625 C 9.765625 -2.65625 9.875 -2.679688 9.9375 -2.734375 C 10.007812 -2.785156 10.0625 -2.835938 10.09375 -2.890625 C 10.207031 -3.066406 10.265625 -3.316406 10.265625 -3.640625 L 10.265625 -5.171875 C 10.265625 -5.617188 10.191406 -5.894531 10.046875 -6 C 9.898438 -6.101562 9.765625 -6.15625 9.640625 -6.15625 L 4.265625 -6.15625 C 3.890625 -6.15625 3.507812 -6.203125 3.125 -6.296875 C 2.738281 -6.398438 2.40625 -6.632812 2.125 -7 C 1.664062 -7.65625 1.4375 -8.609375 1.4375 -9.859375 L 1.4375 -11.234375 C 1.4375 -12.273438 1.664062 -13.117188 2.125 -13.765625 C 2.59375 -14.421875 3.316406 -14.75 4.296875 -14.75 L 12.015625 -14.75 C 12.085938 -14.75 12.1875 -14.71875 12.3125 -14.65625 C 12.445312 -14.59375 12.515625 -14.421875 12.515625 -14.140625 L 12.515625 -12.71875 C 12.515625 -12.4375 12.445312 -12.265625 12.3125 -12.203125 C 12.1875 -12.140625 12.085938 -12.109375 12.015625 -12.109375 L 4.734375 -12.109375 C 4.578125 -12.109375 4.460938 -12.082031 4.390625 -12.03125 C 4.328125 -11.988281 4.28125 -11.9375 4.25 -11.875 C 4.144531 -11.675781 4.09375 -11.425781 4.09375 -11.125 L 4.09375 -9.796875 C 4.09375 -9.347656 4.160156 -9.070312 4.296875 -8.96875 C 4.441406 -8.863281 4.578125 -8.8125 4.703125 -8.8125 Z M 10.078125 -8.8125 "/></g></g></g><g fill="#3871c1" fill-opacity="1"><g transform="translate(88.796344, 81.250112)"><g><path d="M 13.8125 -14.75 C 13.894531 -14.75 14 -14.71875 14.125 -14.65625 C 14.25 -14.59375 14.3125 -14.421875 14.3125 -14.140625 L 14.3125 -5.609375 C 14.3125 -5.109375 14.289062 -4.640625 14.25 -4.203125 C 14.21875 -3.773438 14.160156 -3.390625 14.078125 -3.046875 C 13.910156 -2.304688 13.648438 -1.722656 13.296875 -1.296875 C 12.953125 -0.835938 12.488281 -0.5 11.90625 -0.28125 C 11.375 -0.09375 10.703125 0 9.890625 0 L 5.859375 0 C 5.046875 0 4.367188 -0.09375 3.828125 -0.28125 C 3.554688 -0.394531 3.300781 -0.535156 3.0625 -0.703125 C 2.820312 -0.867188 2.617188 -1.066406 2.453125 -1.296875 C 2.078125 -1.742188 1.816406 -2.328125 1.671875 -3.046875 C 1.585938 -3.390625 1.523438 -3.773438 1.484375 -4.203125 C 1.453125 -4.640625 1.4375 -5.109375 1.4375 -5.609375 L 1.4375 -14.140625 C 1.4375 -14.421875 1.5 -14.59375 1.625 -14.65625 C 1.757812 -14.71875 1.867188 -14.75 1.953125 -14.75 L 3.578125 -14.75 C 3.660156 -14.75 3.765625 -14.71875 3.890625 -14.65625 C 4.015625 -14.59375 4.078125 -14.421875 4.078125 -14.140625 L 4.078125 -5.3125 C 4.078125 -5.050781 4.085938 -4.800781 4.109375 -4.5625 C 4.128906 -4.332031 4.148438 -4.132812 4.171875 -3.96875 C 4.242188 -3.644531 4.34375 -3.378906 4.46875 -3.171875 C 4.613281 -2.992188 4.796875 -2.863281 5.015625 -2.78125 C 5.128906 -2.738281 5.265625 -2.707031 5.421875 -2.6875 C 5.578125 -2.664062 5.75 -2.65625 5.9375 -2.65625 L 9.8125 -2.65625 C 10 -2.65625 10.171875 -2.664062 10.328125 -2.6875 C 10.484375 -2.707031 10.625 -2.738281 10.75 -2.78125 C 10.957031 -2.863281 11.132812 -2.992188 11.28125 -3.171875 C 11.34375 -3.265625 11.398438 -3.378906 11.453125 -3.515625 C 11.503906 -3.648438 11.539062 -3.800781 11.5625 -3.96875 C 11.59375 -4.132812 11.613281 -4.332031 11.625 -4.5625 C 11.644531 -4.800781 11.65625 -5.050781 11.65625 -5.3125 L 11.65625 -14.140625 C 11.65625 -14.421875 11.71875 -14.59375 11.84375 -14.65625 C 11.96875 -14.71875 12.070312 -14.75 12.15625 -14.75 Z M 13.8125 -14.75 "/></g></g></g><g fill="#3871c1" fill-opacity="1"><g transform="translate(105.427409, 81.250112)"><g><path d="M 13.640625 -10.46875 L 13.640625 -10.375 C 13.640625 -10.382812 13.640625 -10.390625 13.640625 -10.390625 C 13.640625 -10.398438 13.640625 -10.410156 13.640625 -10.421875 C 13.640625 -10.429688 13.640625 -10.4375 13.640625 -10.4375 C 13.640625 -10.445312 13.640625 -10.457031 13.640625 -10.46875 Z M 13.984375 -0.765625 C 14.054688 -0.671875 14.082031 -0.53125 14.0625 -0.34375 C 14.019531 -0.101562 13.878906 0.015625 13.640625 0.015625 L 11.671875 0.015625 C 11.515625 0.015625 11.390625 -0.0195312 11.296875 -0.09375 C 11.265625 -0.113281 11.234375 -0.144531 11.203125 -0.1875 C 11.171875 -0.238281 11.140625 -0.289062 11.109375 -0.34375 L 7.859375 -6.09375 L 4.078125 -6.09375 L 4.078125 -0.609375 C 4.078125 -0.335938 4.015625 -0.164062 3.890625 -0.09375 C 3.765625 -0.0195312 3.660156 0.015625 3.578125 0.015625 L 1.953125 0.015625 C 1.867188 0.015625 1.757812 -0.0195312 1.625 -0.09375 C 1.5 -0.164062 1.4375 -0.335938 1.4375 -0.609375 L 1.4375 -8.125 C 1.4375 -8.40625 1.5 -8.578125 1.625 -8.640625 C 1.757812 -8.703125 1.867188 -8.734375 1.953125 -8.734375 L 9.734375 -8.734375 C 10.191406 -8.734375 10.507812 -8.863281 10.6875 -9.125 C 10.875 -9.394531 10.96875 -9.828125 10.96875 -10.421875 C 10.96875 -11.015625 10.875 -11.441406 10.6875 -11.703125 C 10.507812 -11.972656 10.191406 -12.109375 9.734375 -12.109375 L 1.953125 -12.109375 C 1.867188 -12.109375 1.757812 -12.140625 1.625 -12.203125 C 1.5 -12.265625 1.4375 -12.4375 1.4375 -12.71875 L 1.4375 -14.125 C 1.4375 -14.414062 1.5 -14.59375 1.625 -14.65625 C 1.757812 -14.71875 1.867188 -14.75 1.953125 -14.75 L 10.203125 -14.75 C 11.429688 -14.75 12.316406 -14.367188 12.859375 -13.609375 C 13.367188 -12.867188 13.628906 -11.804688 13.640625 -10.421875 C 13.628906 -9.035156 13.367188 -7.972656 12.859375 -7.234375 C 12.398438 -6.609375 11.726562 -6.242188 10.84375 -6.140625 Z M 13.984375 -0.765625 "/></g></g></g><g fill="#3871c1" fill-opacity="1"><g transform="translate(121.825749, 81.250112)"><g><path d="M 12.1875 -3.203125 C 12.269531 -3.203125 12.378906 -3.171875 12.515625 -3.109375 C 12.648438 -3.046875 12.71875 -2.875 12.71875 -2.59375 L 12.71875 -0.625 C 12.71875 -0.351562 12.648438 -0.179688 12.515625 -0.109375 C 12.378906 -0.046875 12.269531 -0.015625 12.1875 -0.015625 L 5.84375 -0.015625 C 5.445312 -0.015625 5.082031 -0.0351562 4.75 -0.078125 C 4.414062 -0.128906 4.109375 -0.210938 3.828125 -0.328125 C 3.242188 -0.523438 2.78125 -0.851562 2.4375 -1.3125 C 2.070312 -1.769531 1.816406 -2.351562 1.671875 -3.0625 C 1.609375 -3.363281 1.554688 -3.691406 1.515625 -4.046875 C 1.472656 -4.398438 1.445312 -4.785156 1.4375 -5.203125 L 1.4375 -5.296875 L 1.46875 -7.5625 C 1.5 -7.6875 1.566406 -7.832031 1.671875 -8 C 1.929688 -8.46875 2.335938 -8.71875 2.890625 -8.75 L 12.125 -8.78125 C 12.195312 -8.78125 12.296875 -8.742188 12.421875 -8.671875 C 12.554688 -8.609375 12.625 -8.441406 12.625 -8.171875 L 12.625 -6.75 C 12.625 -6.476562 12.554688 -6.304688 12.421875 -6.234375 C 12.296875 -6.160156 12.195312 -6.125 12.125 -6.125 L 4.125 -6.125 C 4.125 -6.125 4.117188 -6.054688 4.109375 -5.921875 C 4.097656 -5.796875 4.085938 -5.648438 4.078125 -5.484375 C 4.078125 -5.316406 4.078125 -5.164062 4.078125 -5.03125 C 4.078125 -4.894531 4.078125 -4.828125 4.078125 -4.828125 C 4.085938 -4.785156 4.09375 -4.738281 4.09375 -4.6875 C 4.09375 -4.632812 4.101562 -4.582031 4.125 -4.53125 C 4.164062 -4.195312 4.265625 -3.925781 4.421875 -3.71875 C 4.566406 -3.539062 4.742188 -3.410156 4.953125 -3.328125 C 5.085938 -3.296875 5.226562 -3.265625 5.375 -3.234375 C 5.53125 -3.210938 5.703125 -3.203125 5.890625 -3.203125 Z M 3.015625 -8.609375 Z M 12.21875 -14.796875 C 12.28125 -14.796875 12.378906 -14.757812 12.515625 -14.6875 C 12.648438 -14.613281 12.71875 -14.4375 12.71875 -14.15625 L 12.71875 -12.75 C 12.71875 -12.476562 12.648438 -12.304688 12.515625 -12.234375 C 12.378906 -12.160156 12.28125 -12.125 12.21875 -12.125 L 1.921875 -12.140625 C 1.847656 -12.140625 1.75 -12.171875 1.625 -12.234375 C 1.5 -12.304688 1.4375 -12.476562 1.4375 -12.75 L 1.4375 -14.140625 C 1.4375 -14.429688 1.5 -14.613281 1.625 -14.6875 C 1.75 -14.757812 1.847656 -14.796875 1.921875 -14.796875 Z M 12.21875 -14.796875 "/></g></g></g><g fill="#3871c1" fill-opacity="1"><g transform="translate(136.863532, 81.250112)"><g/></g></g><g fill="#3871c1" fill-opacity="1"><g transform="translate(146.960332, 81.250112)"><g><path d="M 23.0625 -14.96875 C 23.207031 -14.96875 23.304688 -14.9375 23.359375 -14.875 C 23.410156 -14.820312 23.441406 -14.765625 23.453125 -14.703125 C 23.492188 -14.578125 23.484375 -14.429688 23.421875 -14.265625 L 19.421875 -1.875 C 19.160156 -1.21875 18.898438 -0.78125 18.640625 -0.5625 C 18.609375 -0.53125 18.570312 -0.492188 18.53125 -0.453125 C 18.488281 -0.421875 18.4375 -0.394531 18.375 -0.375 C 18.007812 -0.125 17.597656 0 17.140625 0 C 16.648438 0 16.203125 -0.144531 15.796875 -0.4375 C 15.398438 -0.738281 15.132812 -1.125 15 -1.59375 C 14.988281 -1.625 14.972656 -1.664062 14.953125 -1.71875 C 14.929688 -1.769531 14.90625 -1.816406 14.875 -1.859375 L 12.40625 -10.109375 L 9.765625 -1.875 C 9.628906 -1.539062 9.492188 -1.265625 9.359375 -1.046875 C 9.234375 -0.835938 9.101562 -0.675781 8.96875 -0.5625 C 8.925781 -0.53125 8.882812 -0.492188 8.84375 -0.453125 C 8.8125 -0.421875 8.765625 -0.394531 8.703125 -0.375 C 8.347656 -0.125 7.9375 0 7.46875 0 C 6.976562 0 6.53125 -0.144531 6.125 -0.4375 C 5.726562 -0.738281 5.46875 -1.125 5.34375 -1.59375 C 5.320312 -1.625 5.300781 -1.664062 5.28125 -1.71875 C 5.257812 -1.769531 5.234375 -1.816406 5.203125 -1.859375 L 1.5 -14.265625 C 1.445312 -14.410156 1.4375 -14.554688 1.46875 -14.703125 C 1.476562 -14.742188 1.503906 -14.796875 1.546875 -14.859375 C 1.597656 -14.929688 1.695312 -14.96875 1.84375 -14.96875 L 3.765625 -14.96875 C 4.015625 -14.96875 4.1875 -14.835938 4.28125 -14.578125 L 7.40625 -3.8125 C 7.40625 -3.800781 7.410156 -3.789062 7.421875 -3.78125 C 7.429688 -3.78125 7.4375 -3.78125 7.4375 -3.78125 L 7.5 -3.796875 C 7.5 -3.804688 7.503906 -3.816406 7.515625 -3.828125 L 10.90625 -14.578125 C 11.007812 -14.835938 11.179688 -14.96875 11.421875 -14.96875 L 13.453125 -14.96875 C 13.691406 -14.96875 13.859375 -14.835938 13.953125 -14.578125 L 17.078125 -3.8125 C 17.078125 -3.800781 17.078125 -3.789062 17.078125 -3.78125 C 17.085938 -3.78125 17.09375 -3.78125 17.09375 -3.78125 L 17.171875 -3.796875 C 17.171875 -3.804688 17.175781 -3.816406 17.1875 -3.828125 L 20.578125 -14.578125 C 20.679688 -14.835938 20.851562 -14.96875 21.09375 -14.96875 Z M 23.0625 -14.96875 "/></g></g></g><g fill="#3871c1" fill-opacity="1"><g transform="translate(172.775187, 81.250112)"><g><path d="M 11.03125 -13.09375 L 16.0625 -0.6875 C 16.132812 -0.519531 16.148438 -0.375 16.109375 -0.25 C 16.097656 -0.195312 16.066406 -0.140625 16.015625 -0.078125 C 15.960938 -0.015625 15.863281 0.015625 15.71875 0.015625 L 13.8125 0.015625 C 13.550781 0.015625 13.375 -0.113281 13.28125 -0.375 L 8.84375 -11.453125 C 8.832031 -11.484375 8.828125 -11.5 8.828125 -11.5 L 8.75 -11.5 C 8.75 -11.5 8.742188 -11.492188 8.734375 -11.484375 C 8.734375 -11.484375 8.726562 -11.46875 8.71875 -11.4375 L 6.421875 -5.640625 L 8.65625 -5.640625 C 8.90625 -5.640625 9.078125 -5.519531 9.171875 -5.28125 L 9.8125 -3.6875 C 9.875 -3.488281 9.847656 -3.316406 9.734375 -3.171875 C 9.640625 -3.003906 9.488281 -2.921875 9.28125 -2.921875 L 5.359375 -2.921875 L 4.328125 -0.359375 C 4.234375 -0.109375 4.066406 0.015625 3.828125 0.015625 L 1.859375 0.015625 C 1.710938 0.015625 1.613281 -0.015625 1.5625 -0.078125 C 1.507812 -0.140625 1.476562 -0.195312 1.46875 -0.25 C 1.4375 -0.351562 1.445312 -0.5 1.5 -0.6875 L 6.5 -13.09375 C 6.738281 -13.71875 7 -14.148438 7.28125 -14.390625 C 7.320312 -14.421875 7.363281 -14.453125 7.40625 -14.484375 C 7.457031 -14.523438 7.507812 -14.554688 7.5625 -14.578125 C 7.914062 -14.828125 8.328125 -14.953125 8.796875 -14.953125 C 9.285156 -14.953125 9.722656 -14.800781 10.109375 -14.5 C 10.503906 -14.207031 10.773438 -13.828125 10.921875 -13.359375 C 10.941406 -13.316406 10.960938 -13.269531 10.984375 -13.21875 C 11.003906 -13.175781 11.019531 -13.132812 11.03125 -13.09375 Z M 11.03125 -13.09375 "/></g></g></g><g fill="#3871c1" fill-opacity="1"><g transform="translate(191.250177, 81.250112)"><g><path d="M 10.078125 -8.8125 C 11.015625 -8.8125 11.726562 -8.484375 12.21875 -7.828125 C 12.675781 -7.179688 12.90625 -6.273438 12.90625 -5.109375 L 12.90625 -3.53125 C 12.90625 -2.5 12.679688 -1.65625 12.234375 -1 C 11.765625 -0.332031 11.035156 0 10.046875 0 L 1.96875 0 C 1.882812 0 1.773438 -0.03125 1.640625 -0.09375 C 1.515625 -0.164062 1.453125 -0.335938 1.453125 -0.609375 L 1.453125 -2.046875 C 1.453125 -2.316406 1.515625 -2.484375 1.640625 -2.546875 C 1.773438 -2.617188 1.882812 -2.65625 1.96875 -2.65625 L 9.609375 -2.65625 C 9.765625 -2.65625 9.875 -2.679688 9.9375 -2.734375 C 10.007812 -2.785156 10.0625 -2.835938 10.09375 -2.890625 C 10.207031 -3.066406 10.265625 -3.316406 10.265625 -3.640625 L 10.265625 -5.171875 C 10.265625 -5.617188 10.191406 -5.894531 10.046875 -6 C 9.898438 -6.101562 9.765625 -6.15625 9.640625 -6.15625 L 4.265625 -6.15625 C 3.890625 -6.15625 3.507812 -6.203125 3.125 -6.296875 C 2.738281 -6.398438 2.40625 -6.632812 2.125 -7 C 1.664062 -7.65625 1.4375 -8.609375 1.4375 -9.859375 L 1.4375 -11.234375 C 1.4375 -12.273438 1.664062 -13.117188 2.125 -13.765625 C 2.59375 -14.421875 3.316406 -14.75 4.296875 -14.75 L 12.015625 -14.75 C 12.085938 -14.75 12.1875 -14.71875 12.3125 -14.65625 C 12.445312 -14.59375 12.515625 -14.421875 12.515625 -14.140625 L 12.515625 -12.71875 C 12.515625 -12.4375 12.445312 -12.265625 12.3125 -12.203125 C 12.1875 -12.140625 12.085938 -12.109375 12.015625 -12.109375 L 4.734375 -12.109375 C 4.578125 -12.109375 4.460938 -12.082031 4.390625 -12.03125 C 4.328125 -11.988281 4.28125 -11.9375 4.25 -11.875 C 4.144531 -11.675781 4.09375 -11.425781 4.09375 -11.125 L 4.09375 -9.796875 C 4.09375 -9.347656 4.160156 -9.070312 4.296875 -8.96875 C 4.441406 -8.863281 4.578125 -8.8125 4.703125 -8.8125 Z M 10.078125 -8.8125 "/></g></g></g><g fill="#3871c1" fill-opacity="1"><g transform="translate(206.484878, 81.250112)"><g><path d="M 13 -14.75 C 13.082031 -14.75 13.1875 -14.710938 13.3125 -14.640625 C 13.445312 -14.578125 13.515625 -14.40625 13.515625 -14.125 L 13.515625 -0.609375 C 13.515625 -0.335938 13.445312 -0.164062 13.3125 -0.09375 C 13.1875 -0.0195312 13.082031 0.015625 13 0.015625 L 11.359375 0.015625 C 11.285156 0.015625 11.1875 -0.0195312 11.0625 -0.09375 C 10.9375 -0.164062 10.875 -0.335938 10.875 -0.609375 L 10.875 -6.125 L 4.078125 -6.125 L 4.078125 -0.609375 C 4.078125 -0.335938 4.015625 -0.164062 3.890625 -0.09375 C 3.765625 -0.0195312 3.660156 0.015625 3.578125 0.015625 L 1.953125 0.015625 C 1.867188 0.015625 1.757812 -0.0195312 1.625 -0.09375 C 1.5 -0.164062 1.4375 -0.335938 1.4375 -0.609375 L 1.4375 -14.125 C 1.4375 -14.40625 1.5 -14.578125 1.625 -14.640625 C 1.757812 -14.710938 1.867188 -14.75 1.953125 -14.75 L 3.578125 -14.75 C 3.660156 -14.75 3.765625 -14.710938 3.890625 -14.640625 C 4.015625 -14.578125 4.078125 -14.40625 4.078125 -14.125 L 4.078125 -8.78125 L 10.875 -8.78125 L 10.875 -14.125 C 10.875 -14.40625 10.9375 -14.578125 11.0625 -14.640625 C 11.1875 -14.710938 11.285156 -14.75 11.359375 -14.75 Z M 13 -14.75 "/></g></g></g><g fill="#3871c1" fill-opacity="1"><g transform="translate(222.328271, 81.250112)"><g><path d="M 3.578125 -14.75 C 3.648438 -14.75 3.75 -14.710938 3.875 -14.640625 C 4.007812 -14.578125 4.078125 -14.40625 4.078125 -14.125 L 4.078125 -0.609375 C 4.078125 -0.335938 4.007812 -0.164062 3.875 -0.09375 C 3.75 -0.0195312 3.648438 0.015625 3.578125 0.015625 L 1.9375 0.015625 C 1.863281 0.015625 1.757812 -0.0195312 1.625 -0.09375 C 1.5 -0.164062 1.4375 -0.335938 1.4375 -0.609375 L 1.4375 -14.125 C 1.4375 -14.40625 1.5 -14.578125 1.625 -14.640625 C 1.757812 -14.710938 1.863281 -14.75 1.9375 -14.75 Z M 3.578125 -14.75 "/></g></g></g><g fill="#3871c1" fill-opacity="1"><g transform="translate(228.737234, 81.250112)"><g><path d="M 14.109375 -14.75 C 14.179688 -14.75 14.28125 -14.71875 14.40625 -14.65625 C 14.539062 -14.59375 14.609375 -14.414062 14.609375 -14.125 L 14.609375 -2.296875 C 14.609375 -1.421875 14.484375 -0.820312 14.234375 -0.5 C 13.984375 -0.15625 13.597656 0.015625 13.078125 0.015625 L 11.765625 0.015625 C 11.523438 0.015625 11.320312 0 11.15625 -0.03125 C 11.070312 -0.0625 10.988281 -0.0859375 10.90625 -0.109375 C 10.820312 -0.140625 10.742188 -0.179688 10.671875 -0.234375 C 10.523438 -0.316406 10.394531 -0.445312 10.28125 -0.625 C 10.21875 -0.707031 10.148438 -0.800781 10.078125 -0.90625 C 10.003906 -1.019531 9.929688 -1.148438 9.859375 -1.296875 L 4.1875 -11.359375 C 4.175781 -11.378906 4.164062 -11.390625 4.15625 -11.390625 C 4.144531 -11.398438 4.140625 -11.40625 4.140625 -11.40625 L 4.046875 -11.40625 C 4.046875 -11.40625 4.046875 -11.398438 4.046875 -11.390625 C 4.046875 -11.390625 4.046875 -11.382812 4.046875 -11.375 L 4.046875 -0.609375 C 4.046875 -0.335938 3.984375 -0.164062 3.859375 -0.09375 C 3.734375 -0.0195312 3.628906 0.015625 3.546875 0.015625 L 1.953125 0.015625 C 1.867188 0.015625 1.757812 -0.0195312 1.625 -0.09375 C 1.5 -0.164062 1.4375 -0.335938 1.4375 -0.609375 L 1.4375 -12.4375 C 1.4375 -13.3125 1.5625 -13.914062 1.8125 -14.25 C 2.070312 -14.582031 2.457031 -14.75 2.96875 -14.75 L 4.3125 -14.75 C 4.4375 -14.75 4.550781 -14.742188 4.65625 -14.734375 C 4.757812 -14.734375 4.851562 -14.726562 4.9375 -14.71875 C 5.132812 -14.6875 5.300781 -14.613281 5.4375 -14.5 C 5.5625 -14.414062 5.6875 -14.28125 5.8125 -14.09375 C 5.875 -14.007812 5.9375 -13.910156 6 -13.796875 C 6.070312 -13.691406 6.144531 -13.578125 6.21875 -13.453125 L 11.875 -3.390625 C 11.882812 -3.347656 11.898438 -3.328125 11.921875 -3.328125 L 12.015625 -3.328125 C 12.015625 -3.335938 12.015625 -3.34375 12.015625 -3.34375 C 12.015625 -3.34375 12.015625 -3.347656 12.015625 -3.359375 L 12.015625 -14.125 C 12.015625 -14.414062 12.078125 -14.59375 12.203125 -14.65625 C 12.328125 -14.71875 12.429688 -14.75 12.515625 -14.75 Z M 14.109375 -14.75 "/></g></g></g><g fill="#3871c1" fill-opacity="1"><g transform="translate(245.672629, 81.250112)"><g><path d="M 13.5625 -14.75 C 13.625 -14.75 13.722656 -14.710938 13.859375 -14.640625 C 13.992188 -14.578125 14.0625 -14.40625 14.0625 -14.125 L 14.0625 -12.734375 C 14.0625 -12.441406 13.992188 -12.265625 13.859375 -12.203125 C 13.722656 -12.140625 13.625 -12.109375 13.5625 -12.109375 L 5.9375 -12.109375 C 5.75 -12.109375 5.578125 -12.09375 5.421875 -12.0625 C 5.265625 -12.039062 5.128906 -12.015625 5.015625 -11.984375 C 4.796875 -11.898438 4.613281 -11.765625 4.46875 -11.578125 C 4.332031 -11.367188 4.238281 -11.109375 4.1875 -10.796875 C 4.113281 -10.441406 4.078125 -9.992188 4.078125 -9.453125 L 4.078125 -5.296875 C 4.078125 -4.765625 4.113281 -4.316406 4.1875 -3.953125 C 4.238281 -3.628906 4.332031 -3.367188 4.46875 -3.171875 C 4.613281 -2.984375 4.796875 -2.851562 5.015625 -2.78125 C 5.234375 -2.695312 5.539062 -2.65625 5.9375 -2.65625 L 10.953125 -2.65625 C 11.160156 -2.65625 11.304688 -2.71875 11.390625 -2.84375 C 11.421875 -2.90625 11.453125 -3 11.484375 -3.125 C 11.523438 -3.257812 11.546875 -3.46875 11.546875 -3.75 C 11.546875 -3.75 11.546875 -3.832031 11.546875 -4 C 11.546875 -4.164062 11.546875 -4.375 11.546875 -4.625 C 11.546875 -4.875 11.539062 -5.125 11.53125 -5.375 C 11.53125 -5.625 11.53125 -5.832031 11.53125 -6 C 11.53125 -6.164062 11.53125 -6.25 11.53125 -6.25 L 7.078125 -6.25 C 7.003906 -6.25 6.898438 -6.28125 6.765625 -6.34375 C 6.640625 -6.414062 6.578125 -6.597656 6.578125 -6.890625 L 6.578125 -8.25 C 6.578125 -8.539062 6.640625 -8.722656 6.765625 -8.796875 C 6.898438 -8.867188 7.003906 -8.90625 7.078125 -8.90625 L 13.40625 -8.90625 C 13.53125 -8.90625 13.664062 -8.859375 13.8125 -8.765625 C 13.957031 -8.671875 14.03125 -8.453125 14.03125 -8.109375 L 14.03125 -3.3125 C 14.03125 -2.132812 13.859375 -1.285156 13.515625 -0.765625 C 13.160156 -0.242188 12.648438 0.015625 11.984375 0.015625 L 5.859375 0.015625 C 5.078125 0.015625 4.398438 -0.0820312 3.828125 -0.28125 C 3.285156 -0.476562 2.828125 -0.804688 2.453125 -1.265625 C 2.078125 -1.742188 1.816406 -2.332031 1.671875 -3.03125 C 1.585938 -3.382812 1.523438 -3.773438 1.484375 -4.203125 C 1.453125 -4.640625 1.4375 -5.109375 1.4375 -5.609375 L 1.4375 -9.15625 C 1.4375 -9.644531 1.453125 -10.101562 1.484375 -10.53125 C 1.523438 -10.957031 1.585938 -11.34375 1.671875 -11.6875 C 1.753906 -12.050781 1.859375 -12.378906 1.984375 -12.671875 C 2.117188 -12.960938 2.273438 -13.222656 2.453125 -13.453125 C 2.785156 -13.890625 3.242188 -14.222656 3.828125 -14.453125 C 4.398438 -14.648438 5.078125 -14.75 5.859375 -14.75 Z M 13.5625 -14.75 "/></g></g></g></svg>