<svg xmlns="http://www.w3.org/2000/svg" xmlns:xlink="http://www.w3.org/1999/xlink" width="500" zoomAndPan="magnify" viewBox="0 0 375 374.999991" height="500" preserveAspectRatio="xMidYMid meet" version="1.0"><defs><clipPath id="da418d1956"><path d="M 0 201.3125 L 174.523438 201.3125 L 174.523438 375 L 0 375 Z M 0 201.3125 " clip-rule="nonzero"/></clipPath><clipPath id="c13ffe2593"><path d="M 209 199.824219 L 375 199.824219 L 375 334 L 209 334 Z M 209 199.824219 " clip-rule="nonzero"/></clipPath><clipPath id="08876b209e"><path d="M 198.378906 214 L 310 214 L 310 375 L 198.378906 375 Z M 198.378906 214 " clip-rule="nonzero"/></clipPath><clipPath id="d42f126d39"><path d="M 198.378906 0 L 375 0 L 375 175.480469 L 198.378906 175.480469 Z M 198.378906 0 " clip-rule="nonzero"/></clipPath><clipPath id="7725ab40c3"><path d="M 72 0 L 174.523438 0 L 174.523438 152 L 72 152 Z M 72 0 " clip-rule="nonzero"/></clipPath><clipPath id="7b2da21a18"><path d="M 0 0 L 147 0 L 147 175.480469 L 0 175.480469 Z M 0 0 " clip-rule="nonzero"/></clipPath></defs><rect x="-37.5" width="450" fill="#ffffff" y="-37.499999" height="449.999989" fill-opacity="1"/><rect x="-37.5" width="450" fill="#ffffff" y="-37.499999" height="449.999989" fill-opacity="1"/><g clip-path="url(#da418d1956)"><path fill="#f5af23" d="M 174.972656 200.433594 C 116.441406 200.507812 57.835938 200.433594 -0.691406 200.433594 L -0.691406 278.25 C -0.691406 301.796875 -0.769531 325.417969 -0.691406 348.964844 C -0.691406 358.160156 -0.691406 367.355469 -0.691406 376.472656 C 10.59375 376.546875 21.957031 376.621094 33.242188 376.472656 C 38.175781 361.222656 43.632812 346.199219 49.015625 331.097656 C 52.304688 322.203125 54.621094 313.007812 58.511719 304.339844 C 59.855469 300.972656 63.59375 299.929688 66.285156 298.058594 C 69.796875 288.265625 73.984375 278.773438 76.226562 268.605469 C 76.75 261.207031 77.871094 251.265625 70.246094 246.929688 C 62.546875 242.816406 54.097656 243.9375 45.875 245.808594 C 39.523438 247.226562 33.542969 249.84375 28.234375 253.582031 L 28.011719 253.730469 L 27.9375 253.804688 C 27.785156 253.957031 27.5625 254.105469 27.339844 254.179688 C 27.1875 254.253906 27.039062 254.328125 26.890625 254.402344 C 24.648438 255.226562 21.65625 254.03125 19.414062 254.179688 C 29.28125 236.761719 48.941406 227.570312 67.929688 224.28125 C 78.992188 222.035156 90.054688 225.699219 100.296875 229.660156 C 108.742188 232.128906 111.136719 242.667969 119.507812 245.210938 C 125.785156 247.226562 132.140625 244.460938 137.972656 242.519531 C 143.578125 244.3125 149.109375 246.257812 154.640625 248.347656 C 152.847656 260.011719 148.734375 271.148438 142.382812 281.089844 C 137.148438 279.222656 131.839844 277.351562 126.683594 275.410156 C 123.320312 265.765625 112.257812 257.246094 102.238281 263.074219 C 88.785156 272.269531 86.992188 289.613281 81.457031 303.738281 C 90.355469 312.039062 81.011719 323.476562 78.917969 332.820312 C 73.835938 347.46875 68.601562 362.121094 63.519531 376.773438 C 100.59375 376.847656 137.671875 376.847656 174.675781 376.773438 C 174.675781 351.878906 174.597656 327.0625 174.75 302.171875 C 174.898438 268.160156 174.972656 234.296875 174.972656 200.433594 Z M 174.972656 200.433594 " fill-opacity="1" fill-rule="nonzero"/></g><g clip-path="url(#c13ffe2593)"><path fill="#f02e2c" d="M 374.859375 199.246094 C 358.046875 198.492188 341.160156 199.246094 324.351562 198.867188 C 285.902344 199.171875 247.457031 198.792969 209.011719 199.019531 C 248.511719 233.847656 288.390625 268.148438 327.894531 302.898438 C 330.078125 301.464844 332.265625 300.035156 334.375 298.601562 C 346.589844 307.875 357.671875 318.578125 369.429688 328.378906 C 370.410156 329.132812 372.371094 330.792969 373.351562 331.621094 L 375.234375 333.128906 C 375.007812 288.5 375.761719 243.796875 374.859375 199.246094 Z M 374.859375 199.246094 " fill-opacity="1" fill-rule="nonzero"/></g><g clip-path="url(#08876b209e)"><path fill="#f02e2c" d="M 299.699219 363.808594 C 297.4375 358.683594 294.648438 353.859375 291.40625 349.335938 C 260.121094 304.558594 229.515625 259.402344 198.230469 214.699219 C 198.082031 268.902344 198.007812 323.027344 198.230469 377.226562 C 235.320312 375.945312 272.5625 376.851562 309.726562 376.699219 C 305.65625 372.929688 301.734375 368.9375 299.699219 363.808594 Z M 299.699219 363.808594 " fill-opacity="1" fill-rule="nonzero"/></g><path fill="#f02e2c" d="M 351.488281 346.320312 C 355.558594 344.660156 354.957031 339.988281 355.859375 336.445312 C 349.527344 332.449219 343.496094 321.21875 334.980469 326.042969 C 326.914062 332.449219 321.109375 341.421875 313.871094 348.734375 C 308.519531 357.476562 317.941406 364.035156 324.125 368.558594 C 328.796875 372.101562 335.808594 369.011719 337.089844 363.433594 C 339.503906 355.96875 344.703125 350.164062 351.488281 346.320312 Z M 351.488281 346.320312 " fill-opacity="1" fill-rule="nonzero"/><path fill="#f02e2c" d="M 367.394531 347.527344 C 359.480469 357.550781 350.960938 367.125 342.519531 376.699219 C 353.449219 376.472656 364.304688 376.550781 375.234375 376.625 C 375.160156 367.878906 375.160156 359.058594 375.234375 350.242188 C 372.671875 349.410156 370.035156 348.507812 367.394531 347.527344 Z M 367.394531 347.527344 " fill-opacity="1" fill-rule="nonzero"/><g clip-path="url(#d42f126d39)"><path fill="#0177b8" d="M 244.191406 176.804688 C 246.613281 161.582031 250.929688 146.667969 252.367188 131.296875 C 243.8125 122.210938 234.273438 113.425781 230.03125 101.238281 C 217.839844 72.84375 230.863281 36.648438 258.351562 22.492188 C 263.574219 18.78125 270.691406 25.671875 268.800781 31.273438 C 266.453125 48.6875 262.816406 65.953125 260.09375 83.367188 C 268.269531 90.410156 276.597656 97.375 284.777344 104.339844 C 294.847656 100.554688 304.992188 96.996094 315.0625 93.210938 C 318.320312 75.570312 320.742188 57.851562 324.375 40.359375 C 324.753906 34.453125 332.628906 31.121094 336.71875 35.742188 C 348.152344 47.554688 353.679688 64.515625 353.222656 80.792969 C 352.164062 107.898438 332.25 132.054688 306.429688 139.703125 C 303.554688 151.96875 301.507812 164.386719 299.085938 176.804688 C 324.753906 176.804688 350.421875 176.425781 376.015625 177.105469 C 375.9375 167.339844 376.015625 157.644531 376.015625 147.878906 C 376.015625 121.074219 375.9375 94.269531 376.015625 67.390625 C 376.089844 44.375 376.015625 21.355469 376.015625 -1.664062 C 316.726562 -1.585938 257.441406 -1.585938 198.15625 -1.511719 C 198.15625 57.925781 198.078125 117.441406 198.15625 176.878906 C 213.527344 176.804688 228.820312 176.804688 244.191406 176.804688 Z M 244.191406 176.804688 " fill-opacity="1" fill-rule="nonzero"/></g><g clip-path="url(#7725ab40c3)"><path fill="#179d2e" d="M 111.976562 70.722656 C 115.914062 69.816406 119.777344 68.832031 123.789062 68.300781 C 127.5 72.160156 130.375 76.703125 133.632812 81.019531 C 133.707031 85.867188 133.632812 90.710938 133.253906 95.632812 C 135.449219 99.34375 139.160156 101.386719 143.171875 102.675781 C 156.726562 115.699219 163.84375 133.71875 173.460938 149.542969 C 174.367188 149.921875 176.109375 150.679688 177.019531 151.132812 C 176.488281 100.707031 176.867188 50.355469 176.792969 -0.0742188 C 142.1875 -0.0742188 107.585938 -0.222656 72.984375 0.00390625 C 78.433594 6.289062 81.3125 14.011719 81.992188 22.265625 C 92.667969 37.863281 101.679688 54.746094 111.976562 70.722656 Z M 111.976562 70.722656 " fill-opacity="1" fill-rule="nonzero"/></g><g clip-path="url(#7b2da21a18)"><path fill="#179d2e" d="M 86.992188 175.667969 C 86.082031 173.621094 85.097656 171.652344 84.039062 169.683594 C 79.644531 161.355469 74.421875 153.40625 69.652344 145.378906 C 65.488281 137.808594 64.730469 129.023438 62.003906 120.847656 C 59.277344 120.46875 56.550781 120.089844 53.902344 119.710938 C 51.933594 115.546875 49.964844 111.457031 47.996094 107.292969 C 50.191406 104.945312 52.386719 102.601562 54.582031 100.253906 C 40.347656 77.613281 25.585938 55.125 13.46875 31.273438 C 13.921875 29.230469 14.378906 27.261719 14.757812 25.292969 L 50.34375 77.613281 C 50.496094 77.992188 50.644531 78.292969 50.875 78.671875 C 50.875 78.597656 50.875 78.445312 50.875 78.292969 L 60.261719 92.074219 C 60.488281 92.453125 60.714844 92.757812 60.945312 93.136719 L 63.746094 97.300781 L 63.746094 97.222656 C 63.898438 97.453125 64.046875 97.679688 64.199219 97.828125 C 65.488281 96.238281 68.136719 93.058594 69.425781 91.46875 C 76.542969 96.46875 78.359375 104.71875 77.527344 112.972656 C 81.085938 115.851562 84.792969 118.578125 88.730469 121 C 96.078125 131.222656 101.753906 142.578125 108.644531 153.101562 C 111.21875 157.570312 114.628906 161.734375 115.6875 166.882812 C 115.082031 168.324219 114.171875 170.519531 113.339844 172.5625 C 112.808594 173.773438 112.355469 174.910156 112.054688 175.742188 C 111.976562 175.820312 111.976562 175.96875 111.976562 176.046875 C 123.484375 175.742188 134.996094 175.894531 146.503906 175.742188 C 138.175781 160.828125 129.089844 146.289062 120.078125 131.828125 C 115.308594 124.710938 116.292969 115.773438 115.460938 107.671875 C 112.054688 106.460938 108.570312 105.175781 105.164062 103.964844 C 100.316406 98.738281 95.242188 92.984375 93.804688 85.789062 C 96.378906 82.609375 99.410156 79.886719 102.4375 77.160156 C 90.09375 61.257812 82.75 41.875 69.804688 26.503906 C 59.65625 19.765625 58.519531 7.347656 52.84375 -2.269531 C 35.199219 -1.585938 17.480469 -2.042969 -0.160156 -1.964844 L -0.539062 -1.585938 L -0.539062 153.101562 L -0.691406 175.667969 Z M 86.992188 175.667969 " fill-opacity="1" fill-rule="nonzero"/></g></svg>